<?xml version="1.0" encoding="utf-8"?>
<!-- Generator: Adobe Illustrator 24.0.1, SVG Export Plug-In . SVG Version: 6.00 Build 0)  -->
<svg version="1.1" id="Camada_1" xmlns="http://www.w3.org/2000/svg" xmlns:xlink="http://www.w3.org/1999/xlink" x="0px" y="0px"
	 viewBox="0 0 1920.57 722" style="enable-background:new 0 0 1920.57 722;" xml:space="preserve">
<style type="text/css">
	.st0{display:none;}
	.st1{fill:#FFFFFF;}
</style>
<rect class="st0" width="1920.57" height="722"/>
<g>
	<g>
		
			<rect x="41.63" y="36.42" transform="matrix(0.7071 0.7071 -0.7071 0.7071 42.1049 -20.494)" class="st1" width="8.32" height="8.32"/>
		
			<rect x="72.11" y="36.42" transform="matrix(0.7071 0.7071 -0.7071 0.7071 51.0322 -42.0465)" class="st1" width="8.32" height="8.32"/>
		
			<rect x="102.59" y="36.42" transform="matrix(0.7071 0.7071 -0.7071 0.7071 59.9595 -63.599)" class="st1" width="8.32" height="8.32"/>
		
			<rect x="133.07" y="36.42" transform="matrix(0.7071 0.7071 -0.7071 0.7071 68.8869 -85.1514)" class="st1" width="8.32" height="8.32"/>
		
			<rect x="163.55" y="36.42" transform="matrix(0.7071 0.7071 -0.7071 0.7071 77.8142 -106.7039)" class="st1" width="8.32" height="8.32"/>
		
			<rect x="194.03" y="36.42" transform="matrix(0.7071 0.7071 -0.7071 0.7071 86.7415 -128.2564)" class="st1" width="8.32" height="8.32"/>
	</g>
	<g>
		
			<rect x="41.63" y="66.9" transform="matrix(0.7071 0.7071 -0.7071 0.7071 63.6574 -11.5667)" class="st1" width="8.32" height="8.32"/>
		
			<rect x="72.11" y="66.9" transform="matrix(0.7071 0.7071 -0.7071 0.7071 72.5847 -33.1192)" class="st1" width="8.32" height="8.32"/>
		
			<rect x="102.59" y="66.9" transform="matrix(0.7071 0.7071 -0.7071 0.7071 81.512 -54.6716)" class="st1" width="8.32" height="8.32"/>
		
			<rect x="133.07" y="66.9" transform="matrix(0.7071 0.7071 -0.7071 0.7071 90.4393 -76.2241)" class="st1" width="8.32" height="8.32"/>
		
			<rect x="163.55" y="66.9" transform="matrix(0.7071 0.7071 -0.7071 0.7071 99.3667 -97.7766)" class="st1" width="8.32" height="8.32"/>
	</g>
</g>
<g>
	<g>
		
			<rect x="1874.11" y="681.19" transform="matrix(-0.7071 -0.7071 0.7071 -0.7071 2721.7971 2498.1025)" class="st1" width="8.32" height="8.32"/>
		
			<rect x="1843.63" y="681.19" transform="matrix(-0.7071 -0.7071 0.7071 -0.7071 2669.7649 2476.55)" class="st1" width="8.32" height="8.32"/>
		
			<rect x="1813.16" y="681.19" transform="matrix(-0.7071 -0.7071 0.7071 -0.7071 2617.7327 2454.9976)" class="st1" width="8.32" height="8.32"/>
		
			<rect x="1782.68" y="681.19" transform="matrix(-0.7071 -0.7071 0.7071 -0.7071 2565.7002 2433.4451)" class="st1" width="8.32" height="8.32"/>
		
			<rect x="1752.2" y="681.19" transform="matrix(-0.7071 -0.7071 0.7071 -0.7071 2513.668 2411.8926)" class="st1" width="8.32" height="8.32"/>
		
			<rect x="1721.72" y="681.19" transform="matrix(-0.7071 -0.7071 0.7071 -0.7071 2461.6357 2390.3401)" class="st1" width="8.32" height="8.32"/>
	</g>
	<g>
		
			<rect x="1874.11" y="650.71" transform="matrix(-0.7071 -0.7071 0.7071 -0.7071 2743.3496 2446.0703)" class="st1" width="8.32" height="8.32"/>
		
			<rect x="1843.63" y="650.71" transform="matrix(-0.7071 -0.7071 0.7071 -0.7071 2691.3174 2424.5178)" class="st1" width="8.32" height="8.32"/>
		
			<rect x="1813.16" y="650.71" transform="matrix(-0.7071 -0.7071 0.7071 -0.7071 2639.2852 2402.9653)" class="st1" width="8.32" height="8.32"/>
		
			<rect x="1782.68" y="650.71" transform="matrix(-0.7071 -0.7071 0.7071 -0.7071 2587.2527 2381.4128)" class="st1" width="8.32" height="8.32"/>
		
			<rect x="1752.2" y="650.71" transform="matrix(-0.7071 -0.7071 0.7071 -0.7071 2535.2205 2359.8604)" class="st1" width="8.32" height="8.32"/>
	</g>
</g>
</svg>
