<?xml version="1.0" encoding="utf-8"?>
<!-- Generator: Adobe Illustrator 24.0.1, SVG Export Plug-In . SVG Version: 6.00 Build 0)  -->
<svg version="1.1" id="Camada_1" xmlns="http://www.w3.org/2000/svg" xmlns:xlink="http://www.w3.org/1999/xlink" x="0px" y="0px"
	 viewBox="0 0 1012.48 180.63" style="enable-background:new 0 0 1012.48 180.63;" xml:space="preserve">
<style type="text/css">
	.st0{fill:#FFFFFF;}
</style>
<g>
	<g>
		<path class="st0" d="M18.52,90.94l85.81-38.03v21.5l-61.9,25.15v0.35l61.9,25.1v21.45l-85.81-38.03V90.94z"/>
		<path class="st0" d="M156.51,27.95v118.52h-31.74V27.95H156.51z"/>
		<path class="st0" d="M281.1,140.92c-8.92,2.99-25.45,6.73-40.93,6.73c-23.26,0-39.21-5.8-49.85-16
			c-11.17-10.51-16.97-25.8-16.88-42.77c0.18-41.19,30.82-62.12,69.24-62.12c16,0,28.18,2.86,34.38,5.8l-6.37,25.37
			C264,55.11,256,52.92,242.5,52.92c-19.56,0-35.74,10.24-35.74,34.33c0,22.07,14.33,34.9,33.76,34.9c4.35,0,8.44-0.4,9.98-1.01
			v-20.4h-15.87V76.08h46.47V140.92z"/>
		<path class="st0" d="M429.34,29.57c8.97-1.41,22.42-2.55,38.29-2.55c18.16,0,31.17,2.5,40.09,9.23
			c7.61,5.8,11.69,14.24,11.69,25.85c0,14.77-11.08,25.28-20.31,28.66v0.62c7.87,3.39,12.13,10.95,15.17,21.23
			c3.56,12.04,7.47,29.28,9.76,33.85h-32.44c-1.8-3.43-4.88-12.71-8.31-27.3c-3.21-14.2-7.56-17.14-17.37-17.14h-5.14v44.44h-31.43
			V29.57z M460.77,79.25h8.26c11.96,0,18.86-5.85,18.86-14.73s-5.85-13.94-16.4-14.02c-5.98,0-9.14,0.31-10.73,0.7V79.25z"/>
		<path class="st0" d="M638.07,104.04c-0.4-13.45-0.7-29.28-0.66-47.83h-0.48c-3.65,15.78-8.66,33.45-12.48,46.47L612.7,144h-24.84
			l-9.94-41.19c-3.03-12.75-6.68-30.29-9.45-46.6h-0.35c-0.66,16.71-1.28,34.38-1.8,47.83l-1.8,42.42h-29.23l7.3-118.52h42.73
			l7.83,31.92c3.25,13.19,6.77,28.88,9.23,43.43h0.62c3.3-14.46,7.25-31.21,10.73-43.7l8.88-31.65h41.76l5.93,118.52h-30.82
			L638.07,104.04z"/>
		<path class="st0" d="M689.95,146.46V27.95h37.45l18.82,36.36c6.42,11.78,13.36,27.65,18.59,41.54h0.48
			c-1.76-15.61-2.37-32.18-2.37-49.9v-28h29.01v118.52h-33.5l-20.09-39.39c-6.59-12.57-14.29-28.49-19.96-42.82h-0.62
			c0.79,16,1.19,33.85,1.19,53.1v29.1H689.95z"/>
		<path class="st0" d="M816.03,114.9c7.21,3.6,18.86,7.34,30.73,7.34c10.86,0,16.22-3.78,16.22-9.76c0-5.67-5.32-9.01-18.73-13.58
			c-19.96-7.08-33.28-18.11-33.28-35.74c0-20.97,17.67-37.06,47.61-37.06c14.16,0,24.27,2.64,32.05,6.07l-6.64,25.37
			c-5.1-2.24-13.89-5.63-25.76-5.63c-9.67,0-14.99,3.56-14.99,8.75c0,6.02,6.29,8.44,21.23,14.02c21.36,7.83,30.9,19.25,30.9,35.74
			c0,20.49-15.91,37.89-50.51,37.89c-14.29,0-28.13-3.74-34.86-7.21L816.03,114.9z"/>
		<path class="st0" d="M996.93,109.18l-85.81,37.28V125.1l63.66-25.23v-0.35l-63.66-25.23V52.92l85.81,37.28V109.18z"/>
	</g>
	<polygon class="st0" points="444.4,42.87 499.25,42.87 499.25,72.35 477.31,88.47 444.4,88.47 	"/>
	<path class="st0" d="M354.91,26.01C318.6,26.01,296,53.4,296,87.91c0,32.93,20.18,60.49,56.93,60.49
		c36.58,0,59.48-24.27,59.48-62.38C412.41,54.28,393.03,26.01,354.91,26.01z M339.72,77.92l-23.31,9.47v0.13l23.31,9.45v8.08
		l-32.31-14.32v-6.59l32.31-14.32V77.92z M352.46,107.7h-7.61l12.31-48h7.61L352.46,107.7z M368.45,105.05V97l23.97-9.5v-0.13
		l-23.97-9.5v-8.04l32.31,14.04v7.15L368.45,105.05z"/>
</g>
</svg>
