<?xml version="1.0" encoding="utf-8"?>
<!-- Generator: Adobe Illustrator 24.0.1, SVG Export Plug-In . SVG Version: 6.00 Build 0)  -->
<svg version="1.1" id="illustration" xmlns="http://www.w3.org/2000/svg" xmlns:xlink="http://www.w3.org/1999/xlink" x="0px"
	 y="0px" viewBox="0 0 600 400" style="enable-background:new 0 0 600 400;" xml:space="preserve">
<style type="text/css">
	.st0{display:none;clip-path:url(#SVGID_2_);fill:#FFFFFF;}
	.st1{clip-path:url(#SVGID_2_);}
	.st2{fill:#F1F1F4;}
	.st3{display:none;clip-path:url(#SVGID_2_);fill:#E0F3FF;}
	.st4{fill:url(#SVGID_3_);}
	.st5{fill:url(#SVGID_4_);}
	.st6{fill:#E5E2FF;}
	.st7{fill:url(#SVGID_5_);}
	.st8{opacity:0.62;fill:url(#SVGID_6_);}
	.st9{opacity:0.62;fill:url(#SVGID_7_);}
	.st10{opacity:0.5;fill:url(#SVGID_8_);}
	.st11{fill:#FFFFFF;}
	.st12{fill:url(#SVGID_9_);}
	.st13{opacity:0.5;fill:url(#SVGID_10_);}
	.st14{opacity:0.5;fill:url(#SVGID_11_);}
	.st15{fill:url(#SVGID_12_);}
	.st16{fill:url(#SVGID_13_);}
	.st17{opacity:0.76;fill:url(#SVGID_14_);}
	.st18{opacity:0.76;fill:url(#SVGID_15_);}
	.st19{opacity:0.76;fill:url(#SVGID_16_);}
	.st20{fill:#FE9083;}
	.st21{fill:url(#SVGID_17_);}
	.st22{opacity:0.5;fill:url(#SVGID_18_);}
	.st23{fill:url(#SVGID_19_);}
	.st24{opacity:0.5;fill:url(#SVGID_20_);}
	.st25{fill:url(#SVGID_21_);}
	.st26{fill:url(#SVGID_22_);}
	.st27{fill:#CB4D7A;}
	.st28{fill:#EE8183;}
	.st29{fill:url(#SVGID_23_);}
	.st30{opacity:0.6;fill:url(#SVGID_24_);}
	.st31{fill:url(#SVGID_25_);}
	.st32{fill:#E28183;}
	.st33{opacity:0.91;fill:url(#SVGID_26_);}
	.st34{fill:url(#SVGID_27_);}
	.st35{opacity:0.6;fill:url(#SVGID_28_);}
	.st36{fill:url(#SVGID_29_);}
	.st37{fill:url(#SVGID_30_);}
	.st38{opacity:0.91;fill:url(#SVGID_31_);}
	.st39{opacity:0.5;fill:url(#SVGID_32_);}
	.st40{opacity:0.5;fill:url(#SVGID_33_);}
	.st41{opacity:0.5;fill:url(#SVGID_34_);}
	.st42{opacity:0.5;fill:url(#SVGID_35_);}
	.st43{opacity:0.5;fill:url(#SVGID_36_);}
	.st44{opacity:0.5;fill:url(#SVGID_37_);}
	.st45{opacity:0.5;fill:url(#SVGID_38_);}
	.st46{opacity:0.5;fill:url(#SVGID_39_);}
	.st47{opacity:0.5;fill:url(#SVGID_40_);}
	.st48{opacity:0.76;fill:url(#SVGID_41_);}
	.st49{opacity:0.5;fill:url(#SVGID_42_);}
	.st50{opacity:0.3;fill:url(#SVGID_43_);}
	.st51{opacity:0.5;fill:url(#SVGID_44_);}
	.st52{opacity:0.5;fill:url(#SVGID_45_);}
	.st53{opacity:0.5;fill:url(#SVGID_46_);}
	.st54{opacity:0.5;fill:url(#SVGID_47_);}
	.st55{fill:url(#SVGID_48_);}
	.st56{fill:#EBEFFF;}
	.st57{opacity:0.5;fill:url(#SVGID_49_);}
	.st58{opacity:0.3;fill:url(#SVGID_50_);}
	.st59{opacity:0.5;fill:url(#SVGID_51_);}
	.st60{opacity:0.5;fill:url(#SVGID_52_);}
	.st61{opacity:0.5;fill:url(#SVGID_53_);}
	.st62{opacity:0.5;fill:#7A4AC0;}
	.st63{fill:url(#SVGID_54_);}
	.st64{fill:url(#SVGID_55_);}
	.st65{fill:url(#SVGID_56_);}
	.st66{opacity:0.6;fill:url(#SVGID_57_);}
	.st67{fill:#38368E;}
	.st68{fill:url(#SVGID_58_);}
	.st69{fill:url(#SVGID_59_);}
	.st70{fill:#FFEBED;}
	.st71{fill:#7F9EC9;}
	.st72{fill:#131163;}
	.st73{fill:#C6659C;}
	.st74{fill:#CB5F7D;}
	.st75{fill:#9F4A8B;}
	.st76{fill:#FFBCAF;}
	.st77{opacity:0.6;fill:url(#SVGID_60_);}
	.st78{fill:url(#SVGID_61_);}
	.st79{fill:#D2726C;}
	.st80{opacity:0.6;fill:url(#SVGID_62_);}
	.st81{opacity:0.6;fill:url(#SVGID_63_);}
	.st82{opacity:0.5;fill:url(#SVGID_64_);}
	.st83{fill:url(#SVGID_65_);}
	.st84{fill:url(#SVGID_66_);}
	.st85{fill:url(#SVGID_67_);}
	.st86{opacity:0.8;fill:url(#SVGID_68_);}
	.st87{opacity:0.8;fill:url(#SVGID_69_);}
	.st88{fill:#34C7FF;}
	.st89{fill:url(#SVGID_70_);}
	.st90{fill:url(#SVGID_71_);}
	.st91{fill:url(#SVGID_72_);}
	.st92{opacity:0.6;fill:#36D1F7;}
	.st93{fill:#744CA2;}
	.st94{opacity:0.6;fill:url(#SVGID_73_);}
	.st95{opacity:0.3;fill:url(#SVGID_74_);}
	.st96{opacity:0.3;fill:url(#SVGID_75_);}
	.st97{opacity:0.3;fill:url(#SVGID_76_);}
	.st98{opacity:0.3;fill:url(#SVGID_77_);}
	.st99{fill:#D1D4FB;}
	.st100{fill:#E0FFFF;}
	.st101{fill:url(#SVGID_78_);}
	.st102{fill:url(#SVGID_79_);}
	.st103{opacity:0.81;fill:url(#SVGID_80_);}
	.st104{fill:#473DA2;}
	.st105{clip-path:url(#SVGID_2_);fill:url(#SVGID_81_);}
	.st106{clip-path:url(#SVGID_2_);fill:url(#SVGID_82_);}
	.st107{clip-path:url(#SVGID_2_);fill:url(#SVGID_83_);}
	.st108{clip-path:url(#SVGID_2_);fill:url(#SVGID_84_);}
	.st109{clip-path:url(#SVGID_2_);fill:url(#SVGID_85_);}
	.st110{clip-path:url(#SVGID_2_);fill:url(#SVGID_86_);}
	.st111{opacity:0.73;fill:url(#SVGID_87_);}
	.st112{fill:#953DA2;}
	.st113{opacity:0.73;fill:url(#SVGID_88_);}
	.st114{fill-rule:evenodd;clip-rule:evenodd;fill:url(#SVGID_89_);}
	.st115{fill-rule:evenodd;clip-rule:evenodd;fill:url(#SVGID_90_);}
	.st116{fill-rule:evenodd;clip-rule:evenodd;fill:url(#SVGID_91_);}
	.st117{opacity:0.5;fill-rule:evenodd;clip-rule:evenodd;fill:#601734;}
	.st118{fill-rule:evenodd;clip-rule:evenodd;fill:#B3D9FF;}
	.st119{clip-path:url(#SVGID_2_);fill:#FF1D9C;}
	.st120{clip-path:url(#SVGID_2_);fill:#6877FF;}
	.st121{clip-path:url(#SVGID_2_);fill:#4F31E0;}
	.st122{fill-rule:evenodd;clip-rule:evenodd;fill:url(#SVGID_92_);}
	.st123{fill-rule:evenodd;clip-rule:evenodd;fill:url(#SVGID_93_);}
	.st124{fill-rule:evenodd;clip-rule:evenodd;fill:url(#SVGID_94_);}
	.st125{fill-rule:evenodd;clip-rule:evenodd;fill:url(#SVGID_95_);}
</style>
<g>
	<defs>
		<rect id="SVGID_1_" x="0" transform="matrix(-1 -4.489266e-11 4.489266e-11 -1 600 400)" width="600" height="400"/>
	</defs>
	<clipPath id="SVGID_2_">
		<use xlink:href="#SVGID_1_"  style="overflow:visible;"/>
	</clipPath>
	<rect x="0" transform="matrix(-1 -4.489266e-11 4.489266e-11 -1 600 400)" class="st0" width="600" height="400"/>
	<g class="st1">
		<path class="st2" d="M452.05,204.67l-2.53,0.08l-0.06-2.09l-0.1,0l-0.75,2.11l-3.61,0.11c-0.66,0.02-1.23-0.05-1.7-0.2
			c-0.47-0.15-0.86-0.38-1.15-0.68c-0.3-0.3-0.52-0.67-0.66-1.1c-0.14-0.43-0.22-0.92-0.24-1.46l-0.06-1.84
			c-0.02-0.54,0.03-1.03,0.15-1.47c0.12-0.44,0.31-0.82,0.59-1.14s0.65-0.57,1.11-0.75c0.46-0.18,1.02-0.28,1.69-0.3l6.71-0.2
			c0.23-0.01,0.35,0.11,0.35,0.36L452.05,204.67z M449.32,198.22c0-0.05-0.02-0.09-0.05-0.13c-0.03-0.04-0.08-0.05-0.14-0.05
			l-4.1,0.13c-0.48,0.01-0.82,0.13-1.02,0.33c-0.2,0.21-0.29,0.59-0.27,1.15l0.05,1.5c0.02,0.54,0.13,0.91,0.34,1.12
			c0.21,0.21,0.56,0.3,1.04,0.29l4.29-0.13L449.32,198.22z"/>
		<path class="st2" d="M437.01,201.53l-3.5,0.11l-0.06-1.82l4.18-0.13l-0.03-1.12c0-0.04-0.01-0.08-0.03-0.12
			c-0.02-0.04-0.07-0.05-0.13-0.05l-5.07,0.15c-0.08,0-0.12,0.05-0.12,0.14l0.04,1.19l-0.1,0l-2.37-0.8l-0.07-2.32
			c-0.01-0.25,0.11-0.37,0.36-0.38l9.61-0.29c0.24-0.01,0.36,0.11,0.37,0.36l0.25,8.21c0.01,0.25-0.11,0.37-0.35,0.38l-9.89,0.3
			l-0.07-2.32l7.54-0.23c0.12,0,0.17-0.06,0.17-0.18l-0.08-2.68l-0.09,0L437.01,201.53z"/>
		<path class="st2" d="M418.42,198.98l-0.06-1.84c-0.01-0.26,0.12-0.4,0.37-0.4l7.95-0.24c0.8-0.02,1.38,0.14,1.74,0.48
			c0.35,0.35,0.54,0.84,0.56,1.49l0.02,0.63c0.01,0.33-0.02,0.61-0.08,0.85c-0.07,0.24-0.18,0.44-0.34,0.61
			c-0.16,0.17-0.37,0.31-0.62,0.41c-0.25,0.11-0.56,0.19-0.92,0.25l-5.34,0.84c-0.15,0.02-0.26,0.06-0.31,0.13
			c-0.05,0.06-0.07,0.17-0.07,0.33l0.01,0.25c0.01,0.2,0.04,0.33,0.12,0.41c0.07,0.08,0.22,0.11,0.43,0.1l7.14-0.22l0.07,2.32
			l-7.96,0.24c-0.49,0.01-0.91-0.02-1.24-0.11c-0.34-0.09-0.61-0.22-0.82-0.41c-0.21-0.19-0.37-0.42-0.46-0.7
			c-0.1-0.28-0.15-0.6-0.17-0.97l-0.02-0.71c-0.01-0.34,0.01-0.63,0.07-0.88c0.06-0.25,0.16-0.46,0.31-0.63
			c0.15-0.17,0.35-0.31,0.59-0.42c0.24-0.11,0.54-0.19,0.89-0.25l5.53-0.94c0.16-0.03,0.27-0.07,0.33-0.12
			c0.06-0.05,0.08-0.16,0.08-0.33l-0.01-0.22c0-0.14-0.04-0.24-0.11-0.32c-0.07-0.07-0.19-0.1-0.36-0.1l-4.72,0.14
			c-0.1,0-0.15,0.05-0.14,0.15l0.03,0.98l-0.1,0L418.42,198.98z"/>
		<path class="st2" d="M414.9,205.8l-0.27-8.94l2.53-0.08l0.27,8.94L414.9,205.8z"/>
		<path class="st2" d="M405.55,203.61c0,0.1,0.05,0.15,0.14,0.14l4.24-0.13c0.48-0.01,0.82-0.13,1.02-0.35
			c0.2-0.22,0.29-0.6,0.27-1.14l-0.05-1.57c-0.01-0.27-0.04-0.5-0.1-0.68c-0.05-0.18-0.14-0.33-0.25-0.44
			c-0.11-0.11-0.25-0.18-0.42-0.22c-0.17-0.04-0.38-0.06-0.62-0.05l-4.27,0.13c-0.07,0-0.11,0.04-0.11,0.13l0.03,0.86l-0.1,0
			l-2.37-0.79l-0.06-1.93c-0.01-0.25,0.11-0.37,0.35-0.38l6.69-0.2c0.66-0.02,1.23,0.05,1.7,0.2c0.47,0.15,0.86,0.38,1.15,0.68
			c0.3,0.3,0.52,0.66,0.66,1.1c0.14,0.43,0.22,0.92,0.24,1.46l0.06,1.84c0.02,0.54-0.03,1.03-0.15,1.47
			c-0.12,0.44-0.32,0.82-0.59,1.14c-0.28,0.32-0.65,0.57-1.11,0.75c-0.46,0.18-1.02,0.28-1.69,0.3l-6.73,0.2
			c-0.2,0.01-0.31-0.11-0.32-0.33l-0.13-4.39l2.51-0.08l0,0.11c-0.01,0.11-0.02,0.23-0.03,0.38c-0.01,0.14-0.01,0.28-0.01,0.41
			L405.55,203.61z"/>
		<path class="st2" d="M401.45,197.26c0.23-0.01,0.35,0.11,0.35,0.36l0.26,8.58l-2.3,0.07l-0.2-6.72c0-0.13-0.07-0.19-0.2-0.19
			l-0.12,0c-0.11,0-0.18,0.05-0.23,0.15l-3.32,6.52c-0.07,0.14-0.15,0.24-0.23,0.29c-0.08,0.05-0.21,0.08-0.38,0.09l-3.64,0.11
			c-0.23,0.01-0.35-0.11-0.35-0.34l-0.26-8.59l2.3-0.07l0.2,6.73c0,0.13,0.07,0.2,0.2,0.19l0.13,0c0.1,0,0.17-0.05,0.23-0.15
			l3.2-6.53c0.06-0.12,0.13-0.22,0.21-0.28c0.08-0.06,0.21-0.09,0.4-0.1L401.45,197.26z"/>
	</g>
	
		<ellipse transform="matrix(0.7071 -0.7071 0.7071 0.7071 -41.3276 291.2864)" class="st3" cx="330.95" cy="195.53" rx="155.02" ry="155.02"/>
	<g class="st1">
		
			<linearGradient id="SVGID_3_" gradientUnits="userSpaceOnUse" x1="139.8369" y1="275.2009" x2="139.8369" y2="204.0119" gradientTransform="matrix(-0.906 -0.4233 -0.4233 0.906 675.0515 53.7421)">
			<stop  offset="0" style="stop-color:#DBCCFF"/>
			<stop  offset="1" style="stop-color:#D1BBFF"/>
		</linearGradient>
		<path class="st4" d="M443.73,188.13c-0.24,1.52,0.43,4.15,3.6,7.49l-13.31,32.25c-2.64,0.45-5.02,2.14-6.24,4.75
			c-1.98,4.24-0.15,9.28,4.09,11.26c4.24,1.98,9.28,0.15,11.26-4.09c1.22-2.61,0.99-5.52-0.36-7.83l16.2-30.91
			c4.69,0.29,7.12-0.96,8.06-2.05c0.17-0.2,1.18-2.52,1.18-2.52c2.59-7.13,0.33-14.04,0.33-14.04l-2.35-1.1l-3.97,10.22
			c-3.28,1.83-6.47,1.19-6.47,1.19l-0.01,0.02c0,0-2.53-2.03-3.24-5.72l5.29-9.6l-2.35-1.1c0,0-6.74,2.7-10.55,9.26
			C444.9,185.61,443.78,187.8,443.73,188.13z M431.17,234.2l3.88-2.71l4.29,2.01l0.41,4.72l-3.88,2.71l-4.29-2.01L431.17,234.2z"/>
		
			<linearGradient id="SVGID_4_" gradientUnits="userSpaceOnUse" x1="139.8327" y1="277.9781" x2="139.8327" y2="206.7891" gradientTransform="matrix(-0.906 -0.4233 -0.4233 0.906 675.0515 53.7421)">
			<stop  offset="0" style="stop-color:#B5A6E7"/>
			<stop  offset="1" style="stop-color:#7760BF"/>
		</linearGradient>
		<path class="st5" d="M446.15,198.14l-13.31,32.25c-2.64,0.45-5.02,2.14-6.24,4.75c-1.98,4.24-0.15,9.28,4.09,11.26
			c4.24,1.98,9.28,0.15,11.26-4.09c1.22-2.61,0.99-5.52-0.36-7.83l16.2-30.91c5.57,0.34,9.23-4.57,9.23-4.57
			c2.59-7.13,0.33-14.04,0.33-14.04l-2.35-1.1l-3.97,10.22c-3.28,1.83-6.47,1.19-6.47,1.19l-0.01,0.02c0,0-2.53-2.03-3.24-5.72
			l5.29-9.6l-2.35-1.1c0,0-6.74,2.7-10.55,9.26C443.73,188.13,442.31,194.09,446.15,198.14z M429.99,236.72l3.88-2.71l4.29,2.01
			l0.41,4.72l-3.88,2.71l-4.29-2.01L429.99,236.72z"/>
		
			<rect x="465.39" y="181.85" transform="matrix(0.4233 -0.906 0.906 0.4233 103.2641 528.5264)" class="st6" width="2.78" height="2.59"/>
		
			<rect x="454.66" y="176.86" transform="matrix(0.4233 -0.906 0.906 0.4233 101.5946 515.91)" class="st6" width="2.78" height="2.59"/>
		
			<rect x="431.75" y="238.81" transform="matrix(0.4233 -0.906 0.906 0.4233 31.285 531.5076)" class="st6" width="2.78" height="4.74"/>
		<g>
			
				<linearGradient id="SVGID_5_" gradientUnits="userSpaceOnUse" x1="139.8326" y1="260.2796" x2="139.8326" y2="230.2723" gradientTransform="matrix(-0.906 -0.4233 -0.4233 0.906 675.0515 53.7421)">
				<stop  offset="0" style="stop-color:#B5A6E7"/>
				<stop  offset="1" style="stop-color:#7760BF"/>
			</linearGradient>
			<path class="st7" d="M446.62,202.25l-10.65,26.29c0,0,1.85,2.63,5.28,2.47l13.09-25.15C454.34,205.86,451.4,202.08,446.62,202.25
				z M447.19,202.74c1.1,0.15,2.18,0.46,3.24,0.96c1.41,0.66,2.51,1.5,3.15,2.07l-13.11,24.63c-0.62-0.09-1.23-0.27-1.81-0.54
				c-0.73-0.34-1.31-0.78-1.69-1.11L447.19,202.74z"/>
			<path class="st6" d="M436.98,228.75l-1.01-0.21c0,0,1.5,2.66,5.28,2.47l-0.77-0.61C440.48,230.4,438.61,230.18,436.98,228.75z"/>
			
				<linearGradient id="SVGID_6_" gradientUnits="userSpaceOnUse" x1="135.5743" y1="230.8728" x2="144.091" y2="230.8728" gradientTransform="matrix(-0.906 -0.4233 -0.4233 0.906 675.0515 53.7421)">
				<stop  offset="0" style="stop-color:#8B8BE0"/>
				<stop  offset="1" style="stop-color:#A177B7"/>
			</linearGradient>
			<path class="st8" d="M454.34,205.86l-0.75-0.1c0,0-2.24-2.32-6.39-3.02l-0.57-0.48c0,0,1.67-0.29,4.27,0.92
				C453.49,204.39,454.34,205.86,454.34,205.86z"/>
		</g>
		
			<linearGradient id="SVGID_7_" gradientUnits="userSpaceOnUse" x1="139.8327" y1="232.8499" x2="139.8327" y2="227.6944" gradientTransform="matrix(-0.906 -0.4233 -0.4233 0.906 675.0515 53.7421)">
			<stop  offset="0" style="stop-color:#FFFFFF"/>
			<stop  offset="1" style="stop-color:#A177B7"/>
		</linearGradient>
		<path class="st9" d="M457.81,203.56c0,0-6.29-1.12-11.66-5.43l-1.7,4.12c0,0,1.93-1.91,6.17-0.18c4.95,2.02,4.68,6,4.68,6
			L457.81,203.56z"/>
		
			<linearGradient id="SVGID_8_" gradientUnits="userSpaceOnUse" x1="144.337" y1="263.3428" x2="144.337" y2="230.2624" gradientTransform="matrix(-0.906 -0.4233 -0.4233 0.906 675.0515 53.7421)">
			<stop  offset="0" style="stop-color:#000000"/>
			<stop  offset="1" style="stop-color:#FFFFFF"/>
		</linearGradient>
		<path class="st10" d="M444.45,202.26c1.21-0.87,2.59-0.89,2.59-0.89l-12.67,30.6l-1.53-1.58L444.45,202.26z"/>
		<path class="st11" d="M444.45,202.26c0,0,1.33,4.09-2.49,6.03L444.45,202.26z"/>
	</g>
	<g class="st1">
		<g>
			
				<linearGradient id="SVGID_9_" gradientUnits="userSpaceOnUse" x1="280.2997" y1="400" x2="280.2997" y2="310.79" gradientTransform="matrix(-1 0 0 1 600 0)">
				<stop  offset="0" style="stop-color:#6456C0"/>
				<stop  offset="1" style="stop-color:#5F2C95"/>
			</linearGradient>
			<path class="st12" d="M253.77,400h47c4.92-27.32,16.36-62.87,16.36-62.87c2.78-1.65,8.21,0.38,8.21,0.38L342.52,400h42.94
				c2.28-38.56-18.82-82.33-18.82-82.33l0.01-0.01c0.07-0.15,0.74-1.49,0.56-2.39c-0.07-0.39-0.79-1.13-1.6-1.86
				c-1.16-1.06-2.54-2.12-2.54-2.12l-80.11-0.5c0,0-0.81,0.41-1.84,1.03h-0.01c-1.75,1.06-4.12,2.7-4.12,3.9
				c0,1.65,0.65,2.72,0.81,2.96l0.04,0.05C260.66,351.15,253.77,400,253.77,400z"/>
			
				<radialGradient id="SVGID_10_" cx="232.4988" cy="368.6501" r="27.0277" gradientTransform="matrix(-0.6462 0.1491 0.3852 1.6696 371.3772 -282.2475)" gradientUnits="userSpaceOnUse">
				<stop  offset="0" style="stop-color:#4B474B"/>
				<stop  offset="1" style="stop-color:#000000"/>
			</radialGradient>
			<path class="st13" d="M345.67,371.95c5.75,24.92,18.23,43.32,27.88,41.1s12.8-24.23,7.05-49.15
				c-5.75-24.92-18.23-43.32-27.88-41.1C343.08,325.02,339.92,347.02,345.67,371.95z"/>
			
				<radialGradient id="SVGID_11_" cx="351.3293" cy="352.8094" r="27.0272" gradientTransform="matrix(-0.6386 -0.179 -0.4623 1.6499 667.4027 -151.7454)" gradientUnits="userSpaceOnUse">
				<stop  offset="0" style="stop-color:#4B474B"/>
				<stop  offset="1" style="stop-color:#000000"/>
			</radialGradient>
			<path class="st14" d="M262.68,362.63c-6.9,24.63-4.77,46.76,4.76,49.43c9.53,2.67,22.85-15.13,29.76-39.76
				c6.9-24.63,4.77-46.76-4.76-49.43C282.9,320.2,269.58,338,262.68,362.63z"/>
			<g>
				
					<linearGradient id="SVGID_12_" gradientUnits="userSpaceOnUse" x1="251.4272" y1="368.6816" x2="274.8247" y2="368.6816" gradientTransform="matrix(-1 0 0 1 600 0)">
					<stop  offset="0" style="stop-color:#9E8CEF"/>
					<stop  offset="1" style="stop-color:#CAAFEE"/>
				</linearGradient>
				<path class="st15" d="M348.08,400.04l0.49-0.08c-5.47-32.2-19.34-59.2-19.48-59.47l-0.06-0.07l-3.53-3.09l-0.33,0.38l3.5,3.06
					C329.3,341.97,342.73,368.51,348.08,400.04z"/>
			</g>
			<g>
				
					<linearGradient id="SVGID_13_" gradientUnits="userSpaceOnUse" x1="341.5261" y1="368.6826" x2="364.9255" y2="368.6826" gradientTransform="matrix(1 0 0 1 -47.6286 0)">
					<stop  offset="0" style="stop-color:#9E8CEF"/>
					<stop  offset="1" style="stop-color:#CAAFEE"/>
				</linearGradient>
				<path class="st16" d="M294.39,400.04c5.36-31.55,19.16-58.35,19.78-59.54l3.13-2.81l-0.33-0.37l-3.22,2.91
					c-0.14,0.27-14.38,27.53-19.85,59.73L294.39,400.04z"/>
			</g>
			
				<linearGradient id="SVGID_14_" gradientUnits="userSpaceOnUse" x1="277.16" y1="400" x2="277.16" y2="310.79" gradientTransform="matrix(-1 0 0 1 600 0)">
				<stop  offset="0" style="stop-color:#CCCCFF"/>
				<stop  offset="1" style="stop-color:#755CBB"/>
			</linearGradient>
			<path class="st17" d="M276.99,315.72c0,1.65,0.65,2.72,0.81,2.96l0.04,0.05c16.68,3.77,29.37,19.34,29.37,19.34
				c-9.09,17.44-24.25,61.93-24.25,61.93h17.81c4.92-27.32,16.36-62.87,16.36-62.87c2.78-1.65,8.21,0.38,8.21,0.38L342.52,400h11.12
				c-3.98-26.18-15.73-58.14-15.73-58.14c11.55-13.45,28.73-24.19,28.73-24.19l0.01-0.01l2.04-1.28l-1.48-1.11
				c-7.43,7.13-31.39,16.44-32.13,16.73l30.53-18.59c-1.16-1.06-2.54-2.12-2.54-2.12l-80.11-0.5c0,0-0.81,0.41-1.84,1.03L303,323.86
				L276.99,315.72z"/>
			
				<linearGradient id="SVGID_15_" gradientUnits="userSpaceOnUse" x1="287.5455" y1="355.395" x2="287.5455" y2="331.0632" gradientTransform="matrix(-1 0 0 1 600 0)">
				<stop  offset="0" style="stop-color:#CCCCFF"/>
				<stop  offset="1" style="stop-color:#755CBB"/>
			</linearGradient>
			<polygon class="st18" points="317.13,337.13 307.78,331.06 310,337.13 311.63,355.39 			"/>
			
				<linearGradient id="SVGID_16_" gradientUnits="userSpaceOnUse" x1="259.3632" y1="346.4476" x2="259.3632" y2="322.6091" gradientTransform="matrix(-1 0 0 1 600 0)">
				<stop  offset="0" style="stop-color:#CCCCFF"/>
				<stop  offset="1" style="stop-color:#755CBB"/>
			</linearGradient>
			<polygon class="st19" points="325.34,337.51 335.08,332 355.93,322.61 329.38,340.16 327.8,346.45 			"/>
		</g>
		<path class="st20" d="M298.54,149.65c-0.06,0.43-0.11,0.66-0.11,0.66c0.49,2.04,1.05,3.93,1.66,5.66
			c1.96,5.63,4.4,9.63,6.23,12.12c1.59,2.15,2.72,3.18,2.72,3.18c14.59-4.58,21.78-18.85,24.54-25.95c0.02-0.03,0.03-0.07,0.04-0.11
			c0.53-1.34,0.88-2.42,1.1-3.12c0,0,0,0,0-0.01c0.17-0.56,0.25-0.87,0.25-0.87c-0.06-0.12-0.12-0.25-0.18-0.37l-0.03-0.05
			c-0.24-0.5-0.48-1.01-0.7-1.5c-1.91-4.18-3.18-8.09-4-11.17c-0.71-2.62-1.09-4.64-1.27-5.71c-0.09-0.55-0.13-0.85-0.13-0.85
			l-6.8,3.59l-23.43,12.4c0.35,2.15,0.49,4.17,0.5,5.94c0.02,1.25-0.02,2.37-0.09,3.32c-0.07,1.16-0.19,2.08-0.28,2.68v0.01
			C298.56,149.56,298.55,149.6,298.54,149.65z"/>
		
			<linearGradient id="SVGID_17_" gradientUnits="userSpaceOnUse" x1="283.5421" y1="176.45" x2="283.5421" y2="140.84" gradientTransform="matrix(-1 0 0 1 600 0)">
			<stop  offset="0" style="stop-color:#D5CDF8"/>
			<stop  offset="1" style="stop-color:#F3EDFB"/>
		</linearGradient>
		<path class="st21" d="M305.04,172.84c1.35,1.34,2.94,2.54,4.84,3.54c0.04,0.03,0.08,0.05,0.12,0.07c0,0,0.05-0.03,0.14-0.08
			l0.01-0.01c0.51-0.31,2.25-1.38,4.59-3.14c6.12-4.61,16.34-13.93,19.26-26.49c0.01-0.02,0.01-0.03,0.02-0.05
			c0.34-1.49,0.58-3.01,0.7-4.59c0,0,0,0,0-0.01c0.03-0.41,0.06-0.82,0.07-1.24c0,0-2.03,4.77-5.55,9.92
			c-4.14,6.06-10.35,12.67-17.77,12.71c-6.42,0.04-9.71-4.35-11.38-8.4c-0.71-1.72-1.13-3.37-1.35-4.6
			c-0.01-0.01-0.01-0.02-0.01-0.02c-0.07-0.36-0.12-0.68-0.17-0.95v-0.01c-0.02-0.14-0.04-0.26-0.05-0.37
			c-0.06-0.45-0.08-0.71-0.08-0.71S295.97,163.77,305.04,172.84z"/>
		
			<linearGradient id="SVGID_18_" gradientUnits="userSpaceOnUse" x1="265.21" y1="158.61" x2="301.8742" y2="158.61" gradientTransform="matrix(-1 0 0 1 600 0)">
			<stop  offset="0" style="stop-color:#CCCCFF"/>
			<stop  offset="1" style="stop-color:#755CBB"/>
		</linearGradient>
		<path class="st22" d="M305.04,172.84c1.35,1.34,2.94,2.54,4.84,3.54H310l0.14-0.01l0.01-0.01c0.51-0.31,2.25-1.38,4.59-3.14
			c6.12-4.61,16.34-13.93,19.26-26.49c0.01-0.02,0.01-0.03,0.02-0.05c0.34-1.49,0.58-3.01,0.7-4.59c0,0,0,0,0-0.01
			c0.03-0.41,0.06-0.82,0.07-1.24c0,0-2.03,4.77-5.55,9.92c0,0-4.04,11.1-12.78,16.6c-4.38,2.75-7.7,2.35-10.14,0.73
			c-2.44-1.61-4.02-4.42-4.95-6.54c-0.93-2.13-1.23-4.12-1.28-5.58c-0.01-0.33-0.01-0.63,0-0.9c-0.71-1.72-1.13-3.37-1.35-4.6
			c-0.01-0.01-0.01-0.02-0.01-0.02c-0.07-0.36-0.12-0.68-0.17-0.95v-0.01c-0.02-0.14-0.04-0.26-0.05-0.37
			c-0.06-0.45-0.08-0.71-0.08-0.71S295.97,163.77,305.04,172.84z"/>
		
			<linearGradient id="SVGID_19_" gradientUnits="userSpaceOnUse" x1="273.0582" y1="318.7292" x2="273.0582" y2="139.29" gradientTransform="matrix(-1 0 0 1 600 0)">
			<stop  offset="0" style="stop-color:#9E8CEF"/>
			<stop  offset="1" style="stop-color:#CAAFEE"/>
		</linearGradient>
		<path class="st23" d="M248.88,263.53c0.11,0.05,0.16,0.08,0.16,0.08c0.82,0.1,3.37-0.46,6.71-3.35l0.01-0.01
			c0-0.01,0.01-0.02,0.03-0.03c0.01-0.01,0.02-0.03,0.04-0.04c2.8-2.45,6.16-6.54,9.51-13.24c6.7-13.39,8.62-22.33,8.93-23.89
			l0.04-0.24l3.91,6.2c2.65,7.97,7.67,40.95,7.58,42.37c-0.09,1.42-4.45,8.34-4.36,9.19c0,0,0,0.01,0.01,0.02
			c0.12,0.86,2.08,2.75,2.64,4.81c0.38,1.37-2.28,5.69-4.15,8.92v0.01c-0.97,1.68-1.72,3.06-1.72,3.58c0,1.51,4.74,8.9,4.74,8.9
			v3.98l0.07,0.07l0.22,0.2l0.18,0.15c1.8,1.42,9.43,6.07,33.27,7.35c28.25,1.51,47.07-7.58,47.07-7.58l-1.42-3.89
			c0,0,1.32-1.13,1.42-1.7c0.09-0.57-1.04-1.9-1.04-1.9s2.84-1.51,2.84-3.41c0-1.89-5.69-7.76-5.5-12.79
			c0.19-5.02,4.55-9.47,5.12-12.31s-7.39-9.85-7.39-9.85c6.82-21.6,8.15-50.59,8.15-50.59l1.32-1.52c0,0,8.15,18.57,15.54,27.66
			c0.88,1.08,1.81,2.15,2.77,3.18c2.06,2.23,4.25,4.32,6.36,6.15c5.12,4.46,9.77,7.39,10.95,7.16c1.9-0.38,9.48-15.35,9.13-30.7
			c-0.16-7.3-4.56-15.47-9.13-22.02c-0.49-0.7-0.98-1.39-1.48-2.06c-3.24-4.41-6.35-7.87-7.84-9.45c-0.58-0.62-0.91-0.95-0.91-0.95
			s1.04-3.35,1.75-6.26c0.01-0.07,0.03-0.14,0.05-0.21c0-0.03,0.01-0.07,0.02-0.1c0.01-0.05,0.02-0.07,0.02-0.07
			c0.42-1.79,0.68-3.34,0.44-3.72c-0.63-1.01-4.3-2.15-4.93-2.9c-0.63-0.76-3.28-13.52-5.3-14.91c-1.94-1.33-5.35-2.3-16.72-6.77
			c-0.56-0.22-1.13-0.44-1.73-0.68c-12.75-5.05-25.26-11.18-25.26-11.18l-4.8-5.9h-2.14l0.7,1.5l0.03,0.05
			c-0.34,1.52-0.73,2.98-1.17,4.37c-0.01,0.04-0.02,0.08-0.04,0.11c-6.6,20.82-23.58,27.53-23.58,27.53
			c-11.8-8.71-11.57-22.54-11.57-22.54v-1.9l-2.21,0.66l-1.51,3.6c0,0-2.56,3.98-12.7,8.44c-1.75,0.77-3.63,1.74-5.57,2.85
			c-9.28,5.27-19.6,13.42-20.39,15.15c-0.08,0.18-0.17,0.46-0.27,0.86v0.01c-1.09,4.28-3.33,20.31-5.41,26.03
			c-1.3,3.57-3.35,5.54-4.86,6.56c-0.01,0.01-0.01,0.01-0.02,0.01c-1.12,0.77-1.94,1.01-1.94,1.01c-0.16,0.88-0.31,1.75-0.45,2.61
			C238.75,243.62,247.02,262.23,248.88,263.53z"/>
		
			<linearGradient id="SVGID_20_" gradientUnits="userSpaceOnUse" x1="198.59" y1="206.915" x2="242.29" y2="206.915" gradientTransform="matrix(-1 0 0 1 600 0)">
			<stop  offset="0" style="stop-color:#CCCCFF"/>
			<stop  offset="1" style="stop-color:#755CBB"/>
		</linearGradient>
		<path class="st24" d="M357.71,211.77l8.24,2.77l1.32-1.52c0,0,8.15,18.57,15.54,27.66c0.88,1.08,1.81,2.15,2.77,3.18
			c2.06,2.23,4.25,4.32,6.36,6.15l6.28-27.07l3.19-20.55c-3.24-4.41-6.35-7.87-7.84-9.45c-0.58-0.62-0.91-0.95-0.91-0.95
			s1.04-3.35,1.75-6.26c0.01-0.07,0.03-0.14,0.05-0.21c0-0.03,0.01-0.07,0.02-0.1c0.01-0.05,0.02-0.07,0.02-0.07
			c0.42-1.79,0.68-3.34,0.44-3.72c-0.63-1.01-4.3-2.15-4.93-2.9c-0.63-0.76-3.28-13.52-5.3-14.91c0,0,1.32,12.25-5.69,27.79
			l-3.41,4.8l-9.98,8.02C365.63,204.43,361.84,209.46,357.71,211.77z"/>
		
			<linearGradient id="SVGID_21_" gradientUnits="userSpaceOnUse" x1="197.2384" y1="257.17" x2="197.2384" y2="173.26" gradientTransform="matrix(-1 0 0 1 600 0)">
			<stop  offset="0" style="stop-color:#9E8CEF"/>
			<stop  offset="1" style="stop-color:#DAC7F3"/>
		</linearGradient>
		<path class="st25" d="M381.55,233.93c1.77,13.13,21.34,23.24,21.34,23.24c4.36,0,9.23-7.58,13.65-16.93
			c4.42-9.35,4.69-36.21,4.92-37.87c0.24-1.66,2.7-4.98,2.85-6.4c0.14-1.42-3.98-4.36-3.98-4.36l0.03-0.07l0.03-0.07
			c0.43-0.92,2.85-6.11,2.68-7.06c-0.19-1.04-4.82-3.31-4.82-3.31l-0.29,5.11c0,0-10.78-2.04-14.43-10.39l-0.64-2.56l-1.8,1.2v10.99
			c0,0-0.37,1.71-0.94,1.71s-4.77-2.1-5.65-1.81c-0.89,0.29-1.76,6.17-2.94,6.92c-1.17,0.76-4.3,2.94-4.77,3.98
			c-0.21,0.47-0.23,2.16-0.25,4.15c-0.03,2.44-0.05,5.32-0.41,6.94C385.46,210.27,379.78,220.79,381.55,233.93z"/>
		
			<linearGradient id="SVGID_22_" gradientUnits="userSpaceOnUse" x1="341.5302" y1="232.9861" x2="397.8355" y2="232.9861" gradientTransform="matrix(-1 0 0 1 600 0)">
			<stop  offset="0" style="stop-color:#A999F1"/>
			<stop  offset="1" style="stop-color:#DAC7F3"/>
		</linearGradient>
		<path class="st26" d="M202.56,222.68c0.88,1.39,5.3,4.3,6.44,5.44c1.14,1.13,0,4.87,0,4.87c18.57,19.71,37.93,29.58,39.88,30.54
			c0.11,0.05,0.16,0.08,0.16,0.08c11.66-7.84,10.66-20.75,6.79-31.63c-3.7-10.44-10.04-19.01-10.32-19.38l-0.01-0.01
			c0,0,0,0-0.01-0.01c-0.21-0.08-3.54-1.46-5.92-1.64c-0.79-0.06-1.51,0.25-2.19,0.68c-1.42,0.88-2.62,2.27-3.78,1.69
			c-1.71-0.86-5.53-9.89-8.12-10.14c-1.81-0.17-4.32,1.67-5.99,2.72c-0.73,0.46-1.3,0.77-1.58,0.69c-0.95-0.25-4.17-4.11-4.43-4.21
			c-0.25-0.11-1.72,0.97-1.72,0.97l1.03,1.28c-1.58,9.1-6.76,15.22-6.76,15.22l-3.47-5.08
			C202.56,214.76,201.67,221.29,202.56,222.68z"/>
		<path class="st27" d="M298.49,149.26c0.02,0.13,0.04,0.26,0.05,0.39c0.05,0.27,0.11,0.53,0.19,0.8c0,0,0,0.01,0.01,0.02
			c1.19,4.41,6,8.92,12.07,6.75c6.63-2.37,19.25-29.1,19.25-29.1l-1.27-5.71l-29.95,24.4l-0.33,2.31L298.49,149.26z"/>
		<g>
			<path class="st28" d="M398.22,144.37c0,0,1.83-10.11,1.01-17.56c-0.82-7.45,0.21-15.92,0.21-15.92s1.81-0.76,3.14,0
				c1.33,0.76,4.42,8.46,3.03,14.65c-1.39,6.19-0.32,21.03-0.32,21.03h2.08l4.55-6.25l2.21-0.63c0,0,12.73,12,12.54,19.14
				l-1.66,6.35l-15.67-0.54l-10.23-11.68L398.22,144.37z"/>
			
				<linearGradient id="SVGID_23_" gradientUnits="userSpaceOnUse" x1="178.9231" y1="161.8185" x2="178.9231" y2="139.694" gradientTransform="matrix(-1 0 0 1 600 0)">
				<stop  offset="0.016" style="stop-color:#FFC2A9"/>
				<stop  offset="1" style="stop-color:#FF9595"/>
			</linearGradient>
			<path class="st29" d="M414.14,139.69c0,0-0.33,7.96-2.11,14.78c0,0,0.3,2.79,3.57,2.98l0.81-0.9c0,0,0.57,3.17,3.46,3.41
				l2.75-2.75l-0.71,2.27c0,0,0.99,2.42,3.6,2.32c0,0,4.36-3.41,4.64-7.86l-4.31-3.65v-2.79l-5.12-3.6l-0.09-2.04
				C420.61,141.87,417.61,139.65,414.14,139.69z"/>
			
				<linearGradient id="SVGID_24_" gradientUnits="userSpaceOnUse" x1="192.855" y1="161.2947" x2="192.855" y2="124.6715" gradientTransform="matrix(-1 0 0 1 600 0)">
				<stop  offset="0" style="stop-color:#FFEADB"/>
				<stop  offset="0.9944" style="stop-color:#C27CB6"/>
			</linearGradient>
			<path class="st30" d="M399.05,124.67c0,0,0.77,1.95,1.86,2.71c1.09,0.76,4.25,1.34,4.25,1.34l0.14,17.86h2.08l4.55-6.25
				c0,0-2.31,3.57-2.45,6.25l1.8,0.88l1.56-5.35l0.74,3.85l-0.74,4.79c0,0-2.7-2.32-7.58-2.41l-0.73,1.33c0,0,8.83,7.31,10.86,11.62
				c0,0-4.36-5.54-14.31-11.65l-0.95-2.94l-1.26-7.01C398.89,139.69,400.08,129.59,399.05,124.67z"/>
			
				<linearGradient id="SVGID_25_" gradientUnits="userSpaceOnUse" x1="191.6668" y1="186.21" x2="191.6668" y2="129.75" gradientTransform="matrix(-1 0 0 1 600 0)">
				<stop  offset="0.016" style="stop-color:#FFC2A9"/>
				<stop  offset="1" style="stop-color:#FF9595"/>
			</linearGradient>
			<path class="st31" d="M391.65,155.8c0.82,2.46,9.41,12.69,10.36,14.91c0.95,2.21,1.52,5.11,1.52,5.11
				c4.22,9.13,14.43,10.39,14.43,10.39l0.47-8.24c0,0,5.49-3.16,6.42-4.89l0.01-0.03l0.11-0.29c0.28-1.61,0.04-7.58,0.04-7.58
				l-9.61-3.89c-4.17-5.4-14.31-11.65-14.31-11.65l-0.47-2.83c7.28-3.58,6.06-14.41,4.83-15.74c-1.23-1.32-3.5-1.32-3.5-1.32
				s-2.66,8.71-4.36,12.79C395.88,146.61,390.83,153.34,391.65,155.8z"/>
			<path class="st32" d="M420.61,141.87c0,0-1.07,9.95-4.22,14.68c0,0,3.99-4.96,4.31-12.65L420.61,141.87z"/>
			<path class="st32" d="M425.82,147.51c0,0-1.04,8.01-5.97,12.46c0,0,4.36-2.18,5.97-9.66V147.51z"/>
			
				<linearGradient id="SVGID_26_" gradientUnits="userSpaceOnUse" x1="181.57" y1="177.3993" x2="199.322" y2="177.3993" gradientTransform="matrix(-1 0 0 1 600 0)">
				<stop  offset="0.016" style="stop-color:#D1A1D6"/>
				<stop  offset="0.9944" style="stop-color:#BD89C4"/>
			</linearGradient>
			<path class="st33" d="M400.68,168.59c0,0,10.83,10.52,17.75,9.38l-0.47,8.24c0,0-11.37-0.99-15.07-12.95
				C402.89,173.26,401.56,169.82,400.68,168.59z"/>
		</g>
		<g>
			
				<linearGradient id="SVGID_27_" gradientUnits="userSpaceOnUse" x1="398.9961" y1="220.6" x2="398.9961" y2="145.0987" gradientTransform="matrix(-1 0 0 1 600 0)">
				<stop  offset="0.016" style="stop-color:#FFC2A9"/>
				<stop  offset="1" style="stop-color:#FF9595"/>
			</linearGradient>
			<path class="st34" d="M171.64,182.89c0,0,9.95,18.19,21.6,23.78h3.98l9.19,13.93c0,0,5.94-3.73,6.38-15.98
				c0,0-2.08-2.17-2.59-4.62c0,0,3.28-2.58,4.17-4.47c0.88-1.9,1.2-7.58,1.83-9.92c0.63-2.34,6-7.2,7.2-7.83
				c1.2-0.63,6.63-0.95,6.63-0.95s0.76-1.96,0-2.9c-0.76-0.95-9.22-4.24-13.83-1.08c0,0-0.32,2.4-0.82,3.67
				c-0.51,1.26-4.55,5.74-5.18,5.74c-0.63,0-3.35-2.27-4.55-4.04c-1.15-1.7-7.26-14.87-8.74-19.32c-0.01-0.05-0.02-0.09-0.04-0.13
				c-0.02-0.07-0.05-0.14-0.06-0.2c-0.02-0.05-0.03-0.09-0.04-0.13c-0.01-0.02-0.02-0.03-0.02-0.05
				c-1.14-3.85-7.77-11.24-11.31-13.26c0,0-1.51-0.38-2.33,1.51c0,0,2.84,8.09,5.81,12.89c0.5,0.81,1.04,1.76,1.6,2.78
				c0,0,0,0,0.01,0c2.53,4.65,5.38,10.74,5.79,11.63l0.05,0.11l-1.58,0.81l-4.27-4.05l-4.38-4.15l-10.05,10.61l0.99,1.26l3.14,4.03
				l-1.59,0.29l-3.7-4.09L171.64,182.89z"/>
			
				<linearGradient id="SVGID_28_" gradientUnits="userSpaceOnUse" x1="407.9158" y1="196.41" x2="407.9158" y2="158.9" gradientTransform="matrix(-1 0 0 1 600 0)">
				<stop  offset="0" style="stop-color:#FFEADB"/>
				<stop  offset="0.9944" style="stop-color:#C27CB6"/>
			</linearGradient>
			<path class="st35" d="M173.97,186.76l3.18,4.67c0,0,17.45-13.46,21.24-14.6s5.18-0.38,5.18-0.38l3.91,4.99
				c0,0-7.2,6.38-7.83,14.97c0,0,2.4-10.86,10.55-14.15c-0.63,0-3.35-2.27-4.55-4.04c-1.15-1.7-7.26-14.87-8.74-19.32
				c0.2,0.76,0.46,2.24-0.16,3.41c-0.86,1.59-5.92,0.09-6.22,0c-0.01,0-0.01,0-0.01,0l5.8,11.63l0.05,0.11l-1.58,0.81l-4.27-4.05
				l2.14,4.97l-15.58,2.75l3.14,4.03l-1.59,0.29L173.97,186.76z"/>
			
				<linearGradient id="SVGID_29_" gradientUnits="userSpaceOnUse" x1="415.3158" y1="183.4632" x2="415.3158" y2="166.6482" gradientTransform="matrix(-1 0 0 1 600 0)">
				<stop  offset="0" style="stop-color:#FFB0B0"/>
				<stop  offset="0.984" style="stop-color:#FFC2A9"/>
			</linearGradient>
			<path class="st36" d="M186.14,166.66c0,0-3.03-0.44-4.99,3.47l0.44,1.26c0,0-2.95,0.58-5.81,5.37c0,0,2.53,4.61,8.78,6.69
				c0,0,2.91-0.82,3.41-3.28l-0.57-1.58l2.27,1.71c0,0,2.72,0.82,3.92-3.22L186.14,166.66z"/>
			
				<linearGradient id="SVGID_30_" gradientUnits="userSpaceOnUse" x1="425.0686" y1="186.0526" x2="425.0686" y2="176.8316" gradientTransform="matrix(-1 0 0 1 600 0)">
				<stop  offset="0" style="stop-color:#FFB0B0"/>
				<stop  offset="0.984" style="stop-color:#FFC2A9"/>
			</linearGradient>
			<path class="st37" d="M170.73,181.63c0,0-0.63-2.91,2.46-4.8l6,6.63c0,0-0.18,2.13-2.78,2.59
				C176.41,186.05,172.31,184.66,170.73,181.63z"/>
			
				<linearGradient id="SVGID_31_" gradientUnits="userSpaceOnUse" x1="385.63" y1="204.4312" x2="402.78" y2="204.4312" gradientTransform="matrix(-1 0 0 1 600 0)">
				<stop  offset="0.016" style="stop-color:#D1A1D6"/>
				<stop  offset="0.9944" style="stop-color:#BD89C4"/>
			</linearGradient>
			<path class="st38" d="M214.37,195.53c0,0-6.95,7.76-17.15,11.14l4.4,6.66l9.17-11.65L210.2,200
				C210.2,200,213.87,197.24,214.37,195.53z"/>
			<path class="st32" d="M181.59,171.4c0,0,2.91,4.8,5.81,7.2l0.57,1.58c0,0-5.64-3.81-7.71-8.2
				C180.25,171.98,180.93,171.49,181.59,171.4z"/>
		</g>
		
			<linearGradient id="SVGID_32_" gradientUnits="userSpaceOnUse" x1="361.7628" y1="263.6212" x2="361.7628" y2="179.11" gradientTransform="matrix(-1 0 0 1 600 0)">
			<stop  offset="0" style="stop-color:#CCCCFF"/>
			<stop  offset="1" style="stop-color:#755CBB"/>
		</linearGradient>
		<path class="st39" d="M202.56,222.68c0.88,1.39,5.3,4.3,6.44,5.44c1.14,1.13,0,4.87,0,4.87c18.57,19.71,37.93,29.58,39.88,30.54
			c0.11,0.05,0.16,0.08,0.16,0.08c1.52,0.19,8.91-1.89,16.3-16.67c6.7-13.39,8.62-22.33,8.93-23.89l0.04-0.24l-1.63-2.21
			l-2.42-27.28l-1.7,5.49c-6.44-7.77-12.51-19.7-12.51-19.7l-0.27,0.86v0.01c-1.09,4.28-3.33,20.31-5.41,26.03
			c-1.3,3.57-3.35,5.54-4.86,6.56l-0.01,0.02l0.01,0.01c5.93,5.41,8.87,13.19,10.32,19.38c1.33,5.68,1.42,10.03,1.42,10.03
			s-1.64-7.7-6.82-16.96c-1.88-3.37-4.62-6.38-7.33-8.85c-2.04-1.86-4.07-3.42-5.72-4.58c-1.42,0.88-2.62,2.27-3.78,1.69
			c7.8,11.71,7.61,34.89,0.28,30.47c-7.32-4.42-9-13.8-9-13.8c1.73-11.43,1.21-24.32-0.18-26.77c-1.69,0.06-6.52,3.45-6.8,3.37
			c0.44,13.45-5.88,22.43-5.88,22.43l-4.17-6.45c6.07-10.23,5.62-20.19,5.62-20.19c-0.25-0.11-1.72,0.97-1.72,0.97l1.03,1.28
			c-1.58,9.1-6.76,15.22-6.76,15.22l-3.47-5.08C202.56,214.76,201.67,221.29,202.56,222.68z"/>
		
			<linearGradient id="SVGID_33_" gradientUnits="userSpaceOnUse" x1="175.69" y1="246.5946" x2="317.04" y2="246.5946" gradientTransform="matrix(-1 0 0 1 600 0)">
			<stop  offset="0" style="stop-color:#CCCCFF"/>
			<stop  offset="1" style="stop-color:#755CBB"/>
		</linearGradient>
		<path class="st40" d="M282.96,306.81v3.98l0.07,0.07l0.22,0.2l0.18,0.15c1.8,1.42,9.43,6.07,33.27,7.35
			c28.25,1.51,47.07-7.58,47.07-7.58l-1.42-3.89c0,0,1.32-1.13,1.42-1.7c0.09-0.57-1.04-1.9-1.04-1.9s2.84-1.51,2.84-3.41
			c0-1.71-4.64-6.66-5.39-11.31c-0.09-0.5-0.13-0.99-0.11-1.48c0.19-5,4.51-9.43,5.11-12.27c0.01-0.03,0.01-0.04,0.01-0.04
			c0.57-2.84-7.39-9.85-7.39-9.85c6.82-21.6,8.15-50.59,8.15-50.59l1.32-1.52c0,0,8.15,18.57,15.54,27.66
			c7.39,9.1,18.19,16.87,20.08,16.49c4.36,0,9.23-7.58,13.65-16.93c4.42-9.35,4.69-36.21,4.92-37.87c0.24-1.66,2.7-4.98,2.85-6.4
			c-4.74,8.15-12.29,5.75-12.29,5.75c5.47,0.12,8.31-10.11,8.31-10.11l0.03-0.07l0.03-0.07l2.67-7.05
			c-0.3,0.34-6.55,7.33-12.59,3.02c-6.19-4.42-9.38-12.98-9.38-12.98v10.99c0,0-0.37,1.71-0.94,1.71
			c0.37,5.06,1.44,11.22,2.74,17.29c2.81,13.13,6.66,25.81,6.66,25.81s-10.44-5.68-14.11-20.08c-1.75-6.89-2.04-12.88-1.87-17.24
			c0.15-3.73,0.64-6.28,0.84-7.21c0.01-0.07,0.03-0.14,0.05-0.21c0-0.03,0.01-0.07,0.02-0.1c0-0.02,0.01-0.04,0.01-0.05l-1.01,2.14
			l-1.92,4.76c-2.23,18.48,2.37,46.33,2.37,46.33c-6.7-8.34-8.09-26.78-7.8-31.26c0.13-2.14,0.3-4.78,0.41-6.94
			c0.15-2.36,0.25-4.15,0.25-4.15l-13.71,8.18l2.53-8.02l-9.98,8.02c0,0-8.97,10.8-18.19,12.06c-9.22,1.27-43.07,0.51-43.07,0.51
			s29.43,1.89,38.02,4.42c8.59,2.53,10.23,5.43,10.23,5.43c-6.21,31.59-40.58,42.24-41.65,42.56c31.18-4.68,45.69-31.19,45.69-31.19
			s0.51,14.91-1.89,20.59c-2.4,5.68-16.55,19.58-34.74,22.48c-1.53,0.24-3.04,0.39-4.53,0.46c-15.34,0.72-28.04-7.12-29.34-7.96
			c-0.07-0.05-0.11-0.07-0.11-0.07s0.01,0.02,0.03,0.05c0.49,0.75,6.78,9.59,32.18,10.56c1.54,0.06,3.04,0.05,4.5-0.01
			c0.01,0,0.02,0,0.02,0c23.54-0.99,35.53-16.67,35.53-16.67s8.71,4.68,3.15,11.62c-0.06,0.07-0.12,0.15-0.18,0.22
			c-1.64,1.89-5.25,4.2-9.52,6.58c-0.12,0.07-0.24,0.14-0.35,0.2c-5.16,2.85-11.21,5.79-15.89,8.22c-0.03,0.01-0.05,0.02-0.07,0.03
			c-2.86,1.49-5.21,2.77-6.52,3.73c-0.01,0-0.01,0.01-0.01,0.01c-1.32,0.96-1.59,1.58-0.3,1.73c6.57,0.76,31.45-4.67,32.46-3.16
			c1.01,1.52-1.23,5.43-1.23,5.43c-22.84,11.32-71.71,5.74-73.25,5.57c40.9,10.47,74.36-2.79,74.36-2.79l-1.11,3.92
			c0,0-18.22,6.31-39.69,6.82c-21.48,0.5-34.87-4.99-34.87-4.99L282.96,306.81z"/>
		
			<linearGradient id="SVGID_34_" gradientUnits="userSpaceOnUse" x1="300.3053" y1="222.9415" x2="327.3233" y2="222.9415" gradientTransform="matrix(-1 0 0 1 600 0)">
			<stop  offset="0" style="stop-color:#CCEDFF"/>
			<stop  offset="1" style="stop-color:#755CBB"/>
		</linearGradient>
		<path class="st41" d="M299.69,216.87c0,0-16.27,0.88-27.02,3.73l5.54,8.41C278.22,229.01,286.56,221.67,299.69,216.87z"/>
		
			<linearGradient id="SVGID_35_" gradientUnits="userSpaceOnUse" x1="275.8" y1="270.358" x2="315.5061" y2="270.358" gradientTransform="matrix(-1 0 0 1 600 0)">
			<stop  offset="0" style="stop-color:#CCEDFF"/>
			<stop  offset="1" style="stop-color:#755CBB"/>
		</linearGradient>
		<path class="st42" d="M284.49,261.71c0,0,10.15,8.47,20.13,12.38c9.98,3.92,19.58,4.29,19.58,4.29s-5.74,1.71-19.85-0.57
			c-14.12-2.27-18.95-9.92-18.95-9.92L284.49,261.71z"/>
		
			<linearGradient id="SVGID_36_" gradientUnits="userSpaceOnUse" x1="277.6388" y1="288.3118" x2="320.06" y2="288.3118" gradientTransform="matrix(-1 0 0 1 600 0)">
			<stop  offset="0" style="stop-color:#CCEDFF"/>
			<stop  offset="1" style="stop-color:#755CBB"/>
		</linearGradient>
		<path class="st43" d="M279.94,294.32L279.94,294.32c18.78,4.86,42.62-2.1,42.42-2.95c-0.2-0.85-6.53,0.38-21.21-2.56
			c-14.23-2.85-19.39-7.91-19.7-8.22c0.12,0.86,2.08,2.75,2.64,4.81C284.47,286.77,281.81,291.09,279.94,294.32z"/>
		
			<linearGradient id="SVGID_37_" gradientUnits="userSpaceOnUse" x1="241.13" y1="243.86" x2="241.13" y2="196.25" gradientTransform="matrix(-1 0 0 1 600 0)">
			<stop  offset="0" style="stop-color:#CCEDFF"/>
			<stop  offset="1" style="stop-color:#755CBB"/>
		</linearGradient>
		<path class="st44" d="M330.95,219.42c16.04,1.63,20.36,6.1,20.36,6.1c4.51,0.57,14.64-10.98,14.64-10.98l1.32-1.52
			c0,0,8.15,18.57,15.54,27.66c0.88,1.08,1.81,2.15,2.77,3.18l-1.05-2.36c0,0-1.72-0.82-2.22-9.85c-0.51-9.02,3.79-22.48,3.82-24.31
			s0.66-11.09,0.66-11.09l-13.71,8.18l2.53-8.02l-9.98,8.02c0,0-3.91,5.88-13.78,10.78C342.54,219.84,332.1,219.47,330.95,219.42z"
			/>
		
			<linearGradient id="SVGID_38_" gradientUnits="userSpaceOnUse" x1="244.9629" y1="247.8622" x2="244.9629" y2="211.7722" gradientTransform="matrix(-1 0 0 1 600 0)">
			<stop  offset="0" style="stop-color:#CCEDFF"/>
			<stop  offset="1" style="stop-color:#755CBB"/>
		</linearGradient>
		<path class="st45" d="M367.27,213.02l-9.56-1.25c0,0-3.82,2.53-11.49,5.65l6.39,9.43c0,0-2.54,13.44-9.82,21.01
			c0,0,19.32-10.73,22.04-19.75L367.27,213.02z"/>
		
			<linearGradient id="SVGID_39_" gradientUnits="userSpaceOnUse" x1="187.925" y1="201.7273" x2="187.925" y2="174.46" gradientTransform="matrix(-1 0 0 1 600 0)">
			<stop  offset="0" style="stop-color:#CCEDFF"/>
			<stop  offset="1" style="stop-color:#755CBB"/>
		</linearGradient>
		<path class="st46" d="M423.06,184.42l-2.73,7.19c0,0-2.78,9.7-8.31,10.11c-5.53,0.41-10.93-16.27-10.93-16.27v-10.99
			c0,0,5.88,12.6,12.23,14.02C419.66,189.91,423.06,184.42,423.06,184.42z"/>
		
			<linearGradient id="SVGID_40_" gradientUnits="userSpaceOnUse" x1="209.99" y1="177.7153" x2="220.9789" y2="177.7153" gradientTransform="matrix(-1 0 0 1 600 0)">
			<stop  offset="0" style="stop-color:#CCEDFF"/>
			<stop  offset="1" style="stop-color:#755CBB"/>
		</linearGradient>
		<path class="st47" d="M390.01,178.73c0,0-4.93,9.85-10.99,12.88c0,0,7.21-17.5,5.69-27.79
			C384.71,163.82,387.36,165.47,390.01,178.73z"/>
		
			<linearGradient id="SVGID_41_" gradientUnits="userSpaceOnUse" x1="329.4473" y1="243.86" x2="329.4473" y2="193.32" gradientTransform="matrix(-1 0 0 1 600 0)">
			<stop  offset="0" style="stop-color:#CCCCFF"/>
			<stop  offset="1" style="stop-color:#755CBB"/>
		</linearGradient>
		<path class="st48" d="M270.26,193.32l-1.7,5.49l-1.72,45.05c0,0,4.37-8.57,7.43-20.81l-1.59-2.45
			C272.68,220.6,270,203.62,270.26,193.32z"/>
		
			<linearGradient id="SVGID_42_" gradientUnits="userSpaceOnUse" x1="386.2679" y1="232.99" x2="386.2679" y2="206.58" gradientTransform="matrix(-1 0 0 1 600 0)">
			<stop  offset="0" style="stop-color:#CCCCFF"/>
			<stop  offset="1" style="stop-color:#755CBB"/>
		</linearGradient>
		<path class="st49" d="M217.91,206.58c0,0,0.96,22.13-8.44,24.04l-0.47,2.37C209,232.99,221.17,232.54,217.91,206.58z"/>
		
			<linearGradient id="SVGID_43_" gradientUnits="userSpaceOnUse" x1="356.3158" y1="231.81" x2="356.3158" y2="211.62" gradientTransform="matrix(-1 0 0 1 600 0)">
			<stop  offset="0" style="stop-color:#CCCCFF"/>
			<stop  offset="1" style="stop-color:#755CBB"/>
		</linearGradient>
		<path class="st50" d="M233.6,213.31c0,0,0.36,0.79,3.78-1.69c0,0,11.83,8.38,16.39,20.19c0,0-7.29-10.85-11.17-12.02
			c-3.88-1.17-4.82,3.16-4.82,3.16S236.24,216.84,233.6,213.31z"/>
		
			<linearGradient id="SVGID_44_" gradientUnits="userSpaceOnUse" x1="182.2174" y1="203.4679" x2="182.2174" y2="195.97" gradientTransform="matrix(-1 0 0 1 600 0)">
			<stop  offset="0" style="stop-color:#CCEDFF"/>
			<stop  offset="1" style="stop-color:#755CBB"/>
		</linearGradient>
		<path class="st51" d="M424.31,195.97c0,0-4.55,8.39-13.08,5.76c0,0,5.11,3.44,10.23,0.64
			C421.46,202.37,424.64,196.92,424.31,195.97z"/>
		
			<linearGradient id="SVGID_45_" gradientUnits="userSpaceOnUse" x1="202.2462" y1="226.3269" x2="202.2462" y2="185.35" gradientTransform="matrix(-1 0 0 1 600 0)">
			<stop  offset="0" style="stop-color:#CCCCFF"/>
			<stop  offset="1" style="stop-color:#755CBB"/>
		</linearGradient>
		<path class="st52" d="M394.5,185.35c0,0-6.26,23.4,10.07,40.98c0,0-10.6-5.44-13.01-18.04
			C389.16,195.68,394.5,185.35,394.5,185.35z"/>
		
			<linearGradient id="SVGID_46_" gradientUnits="userSpaceOnUse" x1="307.6695" y1="197.4842" x2="307.6695" y2="166.6482" gradientTransform="matrix(-1 0 0 1 600 0)">
			<stop  offset="0" style="stop-color:#CCEDFF"/>
			<stop  offset="1" style="stop-color:#755CBB"/>
		</linearGradient>
		<path class="st53" d="M282.36,166.65c0,0,0.7,10.56,5.77,18.14c5.06,7.58,15.1,12.69,15.1,12.69s-12.6-4.64-18.38-11.18
			C279.07,179.77,282.36,166.65,282.36,166.65z"/>
		
			<linearGradient id="SVGID_47_" gradientUnits="userSpaceOnUse" x1="267.2717" y1="193.3158" x2="267.2717" y2="150.7562" gradientTransform="matrix(-1 0 0 1 600 0)">
			<stop  offset="0" style="stop-color:#CCEDFF"/>
			<stop  offset="1" style="stop-color:#755CBB"/>
		</linearGradient>
		<path class="st54" d="M346.81,150.76c0,0,0,8.83-2.84,17.83c-2.84,9-27.51,24.73-27.51,24.73s25.43-10.56,30.35-20.06
			C351.74,163.76,346.81,150.76,346.81,150.76z"/>
		
			<linearGradient id="SVGID_48_" gradientUnits="userSpaceOnUse" x1="252.901" y1="201.0999" x2="323.9855" y2="201.0999" gradientTransform="matrix(-1 0 0 1 600 0)">
			<stop  offset="0" style="stop-color:#8642A0"/>
			<stop  offset="1" style="stop-color:#6456C0"/>
		</linearGradient>
		<path class="st55" d="M347.1,192.82v14.38c0,0-33.11-0.27-70.24,2.19l-0.85-12.95C276.01,196.45,308.29,192.62,347.1,192.82z"/>
		<g>
			<path class="st56" d="M341.22,204.67l-2.53,0.08l-0.06-2.09l-0.1,0l-0.75,2.11l-3.61,0.11c-0.66,0.02-1.23-0.05-1.7-0.2
				c-0.47-0.15-0.86-0.38-1.15-0.68c-0.3-0.3-0.52-0.67-0.66-1.1c-0.14-0.43-0.22-0.92-0.24-1.46l-0.06-1.84
				c-0.02-0.54,0.03-1.03,0.15-1.47c0.12-0.44,0.31-0.82,0.59-1.14s0.65-0.57,1.11-0.75c0.46-0.18,1.02-0.28,1.69-0.3l6.71-0.2
				c0.23-0.01,0.35,0.11,0.35,0.36L341.22,204.67z M338.49,198.22c0-0.05-0.02-0.09-0.05-0.13c-0.03-0.04-0.08-0.05-0.14-0.05
				l-4.1,0.13c-0.48,0.01-0.82,0.13-1.02,0.33c-0.2,0.21-0.29,0.59-0.27,1.15l0.05,1.5c0.02,0.54,0.13,0.91,0.34,1.12
				c0.21,0.21,0.56,0.3,1.04,0.29l4.29-0.13L338.49,198.22z"/>
			<path class="st56" d="M326.18,201.53l-3.5,0.11l-0.06-1.82l4.18-0.13l-0.03-1.12c0-0.04-0.01-0.08-0.03-0.12
				c-0.02-0.04-0.07-0.05-0.13-0.05l-5.07,0.15c-0.08,0-0.12,0.05-0.12,0.14l0.04,1.19l-0.1,0l-2.37-0.8l-0.07-2.32
				c-0.01-0.25,0.11-0.37,0.36-0.38l9.61-0.29c0.24-0.01,0.36,0.11,0.37,0.36l0.25,8.21c0.01,0.25-0.11,0.37-0.35,0.38l-9.89,0.3
				l-0.07-2.32l7.54-0.23c0.12,0,0.17-0.06,0.17-0.18l-0.08-2.68l-0.09,0L326.18,201.53z"/>
			<path class="st56" d="M307.59,198.98l-0.06-1.84c-0.01-0.26,0.12-0.4,0.37-0.4l7.95-0.24c0.8-0.02,1.38,0.14,1.74,0.48
				c0.36,0.35,0.54,0.84,0.56,1.49l0.02,0.63c0.01,0.33-0.02,0.61-0.08,0.85c-0.07,0.24-0.18,0.44-0.34,0.61
				c-0.16,0.17-0.37,0.31-0.62,0.41c-0.25,0.11-0.56,0.19-0.92,0.25l-5.34,0.84c-0.15,0.02-0.26,0.06-0.31,0.13
				c-0.05,0.06-0.07,0.17-0.07,0.33l0.01,0.25c0.01,0.2,0.04,0.33,0.12,0.41c0.07,0.08,0.22,0.11,0.43,0.1l7.14-0.22l0.07,2.32
				l-7.96,0.24c-0.49,0.01-0.91-0.02-1.24-0.11c-0.34-0.09-0.61-0.22-0.82-0.41c-0.21-0.19-0.37-0.42-0.46-0.7
				c-0.1-0.28-0.15-0.6-0.17-0.97l-0.02-0.71c-0.01-0.34,0.01-0.63,0.07-0.88c0.06-0.25,0.16-0.46,0.31-0.63
				c0.15-0.17,0.35-0.31,0.59-0.42c0.24-0.11,0.54-0.19,0.89-0.25l5.53-0.94c0.16-0.03,0.27-0.07,0.33-0.12
				c0.06-0.05,0.08-0.16,0.08-0.33l-0.01-0.22c0-0.14-0.04-0.24-0.11-0.32c-0.07-0.07-0.19-0.1-0.36-0.1l-4.72,0.14
				c-0.1,0-0.15,0.05-0.14,0.15l0.03,0.98l-0.1,0L307.59,198.98z"/>
			<path class="st56" d="M304.07,205.8l-0.27-8.94l2.53-0.08l0.27,8.94L304.07,205.8z"/>
			<path class="st56" d="M294.72,203.61c0,0.1,0.05,0.15,0.14,0.14l4.24-0.13c0.48-0.01,0.82-0.13,1.02-0.35
				c0.2-0.22,0.29-0.6,0.27-1.14l-0.05-1.57c-0.01-0.27-0.04-0.5-0.1-0.68c-0.05-0.18-0.14-0.33-0.25-0.44
				c-0.11-0.11-0.25-0.18-0.42-0.22c-0.17-0.04-0.38-0.06-0.62-0.05l-4.27,0.13c-0.07,0-0.11,0.04-0.11,0.13l0.03,0.86l-0.1,0
				l-2.37-0.79l-0.06-1.93c-0.01-0.25,0.11-0.37,0.35-0.38l6.69-0.2c0.66-0.02,1.23,0.05,1.7,0.2c0.47,0.15,0.86,0.38,1.15,0.68
				c0.3,0.3,0.52,0.66,0.66,1.1c0.14,0.43,0.22,0.92,0.24,1.46l0.06,1.84c0.02,0.54-0.03,1.03-0.15,1.47
				c-0.12,0.44-0.32,0.82-0.59,1.14c-0.28,0.32-0.65,0.57-1.11,0.75c-0.46,0.18-1.02,0.28-1.69,0.3l-6.73,0.2
				c-0.2,0.01-0.31-0.11-0.32-0.33l-0.13-4.39l2.51-0.08l0,0.11c-0.01,0.11-0.02,0.23-0.03,0.38c-0.01,0.14-0.01,0.28-0.01,0.41
				L294.72,203.61z"/>
			<path class="st56" d="M290.62,197.26c0.23-0.01,0.35,0.11,0.35,0.36l0.26,8.58l-2.3,0.07l-0.2-6.72c0-0.13-0.07-0.19-0.2-0.19
				l-0.12,0c-0.11,0-0.18,0.05-0.23,0.15l-3.32,6.52c-0.07,0.14-0.15,0.24-0.23,0.29c-0.08,0.05-0.21,0.08-0.38,0.09l-3.64,0.11
				c-0.23,0.01-0.35-0.11-0.35-0.34l-0.26-8.59l2.3-0.07l0.2,6.73c0,0.13,0.07,0.2,0.2,0.19l0.13,0c0.1,0,0.17-0.05,0.23-0.15
				l3.2-6.53c0.06-0.12,0.13-0.22,0.21-0.28c0.08-0.06,0.21-0.09,0.4-0.1L290.62,197.26z"/>
		</g>
		
			<linearGradient id="SVGID_49_" gradientUnits="userSpaceOnUse" x1="259.03" y1="160.08" x2="305.29" y2="160.08" gradientTransform="matrix(-1 0 0 1 600 0)">
			<stop  offset="0" style="stop-color:#CCCCFF"/>
			<stop  offset="1" style="stop-color:#755CBB"/>
		</linearGradient>
		<path class="st57" d="M294.71,152.67c0.78,9.3,3.61,15.78,6.63,20.15c4.16,6,8.66,8.05,8.66,8.05c4.5-1.96,8.4-4.4,11.76-7.09
			c14.26-11.4,18.86-27.2,19.21-28.5c-6.02,14.54-14.86,23.35-21.56,28.31c-5.4,4.01-9.41,5.52-9.41,5.52v-4.65
			c1.07-0.4,2.11-0.86,3.1-1.36c11.8-5.95,18-18.35,20.9-26.37c0.01-0.02,0.01-0.03,0.02-0.05c1.57-4.34,2.18-7.39,2.18-7.39h-2.14
			l0.7,1.5l0.03,0.05c-0.34,1.52-0.73,2.98-1.17,4.37c-0.01,0.04-0.02,0.08-0.04,0.11c-6.6,20.82-23.58,27.53-23.58,27.53
			c-11.8-8.71-11.57-22.54-11.57-22.54v-1.9l-2.21,0.66L294.71,152.67z"/>
		
			<linearGradient id="SVGID_50_" gradientUnits="userSpaceOnUse" x1="377.9513" y1="229.9789" x2="377.9513" y2="203.2074" gradientTransform="matrix(-1 0 0 1 600 0)">
			<stop  offset="0" style="stop-color:#CCCCFF"/>
			<stop  offset="1" style="stop-color:#755CBB"/>
		</linearGradient>
		<path class="st58" d="M224.71,203.21c0,0,3.21,10.48,0.18,26.77c0,0-1.52-20.65-2.65-22.45c-1.14-1.8-4.32-0.95-4.32-0.95
			S222.92,203.81,224.71,203.21z"/>
		
			<linearGradient id="SVGID_51_" gradientUnits="userSpaceOnUse" x1="340.11" y1="260.18" x2="340.11" y2="179.11" gradientTransform="matrix(-1 0 0 1 600 0)">
			<stop  offset="0" style="stop-color:#CCCCFF"/>
			<stop  offset="1" style="stop-color:#755CBB"/>
		</linearGradient>
		<path class="st59" d="M255.83,260.18c2.8-2.45,6.16-6.54,9.51-13.24c6.7-13.39,8.62-22.33,8.93-23.89l-1.59-2.45l-2.13-20.6
			l-1.99-1.19c0,0-7.11-7.85-12.51-19.7c-0.08,0.18-0.17,0.46-0.27,0.86v0.01c-1.09,4.28-3.33,20.31-5.41,26.03
			c-1.3,3.57-3.35,5.54-4.86,6.56c0,0,12.31,18.26,12.91,31.29C258.95,255.72,256.31,259.58,255.83,260.18z"/>
		
			<linearGradient id="SVGID_52_" gradientUnits="userSpaceOnUse" x1="252.95" y1="298.26" x2="252.95" y2="275.02" gradientTransform="matrix(-1 0 0 1 600 0)">
			<stop  offset="0" style="stop-color:#CCCCFF"/>
			<stop  offset="1" style="stop-color:#755CBB"/>
		</linearGradient>
		<path class="st60" d="M328.92,298.26c0,0,22.19-3.64,31.25-9.48c0,0,0.01,0,0.01-0.01c-0.09-0.5-0.13-0.99-0.11-1.48
			c0.19-5,4.51-9.43,5.11-12.27c-0.1,0.27-0.75,1.77-3.9,4.47c-1.99,1.71-5,3.91-9.52,6.58c-0.12,0.07-0.24,0.14-0.35,0.2
			c-6.4,3.78-11.91,6.34-15.89,8.22c-0.03,0.01-0.05,0.02-0.07,0.03c-3.58,1.68-5.9,2.79-6.52,3.73
			C328.92,298.25,328.92,298.26,328.92,298.26z"/>
		
			<linearGradient id="SVGID_53_" gradientUnits="userSpaceOnUse" x1="298.095" y1="291.8761" x2="298.095" y2="280.59" gradientTransform="matrix(-1 0 0 1 600 0)">
			<stop  offset="0" style="stop-color:#CCCCFF"/>
			<stop  offset="1" style="stop-color:#755CBB"/>
		</linearGradient>
		<path class="st61" d="M281.45,280.59c0.12,0.86,2.08,2.75,2.64,4.81c0,0,8.14,8.62,38.27,5.97c-0.2-0.85-6.53,0.38-21.21-2.56
			C286.92,285.96,281.76,280.9,281.45,280.59z"/>
		<path class="st62" d="M276.44,163.96l19.26,6.24l5.64,2.62l0.03,0.01l3.67,0.01l4.96,0.01l3.1,0.25l1.64,0.12l4.67,0.37l2.35,0.19
			l23.1-8.36l4.13-1.49l19-6.88c-0.56-0.22-1.13-0.44-1.73-0.68c-12.75-5.05-25.26-11.18-25.26-11.18l-4.8-5.9h-2.14
			c-1.91-4.18-3.18-8.09-4-11.17l-1.27-5.71c-0.09-0.55-0.13-0.85-0.13-0.85l-6.8,3.59l-22.93,18.34c0.02,1.25-0.02,2.37-0.09,3.32
			l-0.33,2.31c-0.06-0.45-0.08-0.71-0.08-0.71l-2.21,0.66l-1.51,3.6c0,0-2.56,3.98-12.7,8.44
			C280.26,161.88,278.38,162.85,276.44,163.96z"/>
		<g>
			
				<linearGradient id="SVGID_54_" gradientUnits="userSpaceOnUse" x1="297.5975" y1="146.8119" x2="297.5975" y2="69.6049" gradientTransform="matrix(-1 0 0 1 600 0)">
				<stop  offset="0.016" style="stop-color:#FFC2A9"/>
				<stop  offset="1" style="stop-color:#FF9595"/>
			</linearGradient>
			<path class="st63" d="M291.11,146.39c0,0,8.98,2.02,18.89-2.78s18.24-18.95,18.75-22.48c0.5-3.54-3.79-12.76-3.79-19.96
				c0-7.2,3.53-19.58-2.4-26.28c-5.94-6.69-33.22-7.7-42.07,0.89c0,0-2.74,6.88-2.74,10.77c0,0.94,0.17,2.32,0.42,3.91
				c0.08,0.59,0.19,1.22,0.29,1.87c0.79,4.71,1.88,10.46,1.37,12.98c-0.18,0.88-0.46,1.69-0.79,2.46v0.01
				c-1.09,2.52-2.71,4.53-3,6.71C275.66,117.34,279.48,137.55,291.11,146.39z"/>
			
				<linearGradient id="SVGID_55_" gradientUnits="userSpaceOnUse" x1="268.8155" y1="115.6572" x2="268.8155" y2="92.8947" gradientTransform="matrix(-1 0 0 1 600 0)">
				<stop  offset="0.016" style="stop-color:#FFC2A9"/>
				<stop  offset="1" style="stop-color:#FF9595"/>
			</linearGradient>
			<path class="st64" d="M325.03,99.14c0,0,2.45-6.15,8.61-6.24c0,0,3.6,1.42,4.17,4.17c0,0-1.33,9.95-2.84,14.59
				c-1.52,4.64-7.07,3.97-7.07,3.97S323.06,108.22,325.03,99.14z"/>
			
				<linearGradient id="SVGID_56_" gradientUnits="userSpaceOnUse" x1="308.3286" y1="124.2652" x2="309.283" y2="119.296" gradientTransform="matrix(-1 0 0 1 600 0)">
				<stop  offset="0" style="stop-color:#E1616A"/>
				<stop  offset="1" style="stop-color:#FF8883"/>
			</linearGradient>
			<path class="st65" d="M301.37,119.39c0,0-2.05-0.16-2.93,0.5c-0.88,0.66-4.11,3.79-8.18,4.64c-4.07,0.85-6.81-2.62-7.67-2.79
				c-0.87-0.18-1.82,1.05-1.82,1.05s0.37-1.42,2.5-2.06c0,0,0.86,3.27,6.76,2.15c5.9-1.12,8.42-3.74,8.42-3.74l0.3-0.54
				C298.73,118.6,300.4,118.95,301.37,119.39z"/>
			
				<linearGradient id="SVGID_57_" gradientUnits="userSpaceOnUse" x1="299.7135" y1="120.4631" x2="299.7135" y2="70.7263" gradientTransform="matrix(-1 0 0 1 600 0)">
				<stop  offset="0" style="stop-color:#FFEADB"/>
				<stop  offset="0.9944" style="stop-color:#C27CB6"/>
			</linearGradient>
			<path class="st66" d="M310.08,88.8L310,88.17c0,0-5.89-10.34-17.54-10.62c-11.65-0.28-14.28,7.02-14.28,7.02l-2.16-3.28
				l4.92-9.99l34.24-0.57l8.34,6.73l1.05,16.47l-3.71,21.74l-9.02,4.81l-2.55-2.26c0.94-7.28,6.35-13.93,6.35-13.93l-3.95-2.74
				c0,0-10.14,4.91-15.99,3.44c0,0-4.41-12.86-4.15-22.38C291.55,82.59,306.56,84.81,310.08,88.8z"/>
			<path class="st67" d="M310.6,89.56c0,0-0.57-3.72-6.85-5.21c-7-1.66-12.69-3.06-12.69-3.06s1.24,4.08,3.57,5.61
				c0,0,7.41-0.27,11.15,0.58C309.54,88.34,310.6,89.56,310.6,89.56z"/>
			<path class="st67" d="M278.17,84.57c0,0,3.55,2.74,5.97,9.28c0,0-2.32-3.03-4.45-2.98c-1.46,0.03-1.23,1.48-1.23,1.48
				S277.01,88.43,278.17,84.57z"/>
			
				<linearGradient id="SVGID_58_" gradientUnits="userSpaceOnUse" x1="297.2895" y1="100.0947" x2="297.2895" y2="90.2421" gradientTransform="matrix(-1 0 0 1 600 0)">
				<stop  offset="0" style="stop-color:#CF6074"/>
				<stop  offset="1" style="stop-color:#F37270"/>
			</linearGradient>
			<path class="st68" d="M308.25,100.09c0,0-0.38-7.86-8.05-9.85c0,0-2.75,3.55-3.03,7.58C297.17,97.82,301.24,97.06,308.25,100.09z
				"/>
			
				<linearGradient id="SVGID_59_" gradientUnits="userSpaceOnUse" x1="316.9416" y1="103.2211" x2="316.9416" y2="94.6474" gradientTransform="matrix(-1 0 0 1 600 0)">
				<stop  offset="0" style="stop-color:#CF6074"/>
				<stop  offset="1" style="stop-color:#FF817F"/>
			</linearGradient>
			<path class="st69" d="M286.27,103.22c0,0-0.62-6.26-4.22-8.57c0,0-2.45,1.84-2.2,7.08C279.86,101.72,282.01,100.95,286.27,103.22
				z"/>
			<path class="st70" d="M308.25,100.09c0,0-2.49,3.06-9.47,3.66c0,0-1.33-2.02-1.2-5.99C297.58,97.77,303.99,97.16,308.25,100.09z"
				/>
			<path class="st70" d="M286.27,103.22v0.92c0,0-1.07,2.24-4.93,2.62c0,0-1.24-1.93-1.35-5.07
				C280,101.69,282.45,101.07,286.27,103.22z"/>
			<path class="st71" d="M300.79,97.61c0,0,1.77,2.15,1.61,5.55c0,0-2.32,0.55-3.62,0.6c0,0-1.53-2.13-1.2-5.99
				C297.58,97.77,299.61,97.34,300.79,97.61z"/>
			<path class="st71" d="M282.62,101.79c0,0,1,1.07,1.19,4.36c0,0-1.37,0.6-2.46,0.6c0,0-1.4-1.99-1.35-5.07
				C280,101.69,280.98,101.31,282.62,101.79z"/>
			<path class="st67" d="M301.37,103.39c0,0,0.63-4.25-1.8-5.87l-1.99,0.25c0,0-0.66,3.36,1.2,5.99
				C298.78,103.76,300.76,103.53,301.37,103.39z"/>
			<path class="st67" d="M281.74,101.61c0,0,0.9,1.89,1.32,4.83c0,0-0.69,0.28-1.71,0.32c0,0-1.36-1.67-1.35-5.07
				C280,101.69,281.04,101.41,281.74,101.61z"/>
			<path class="st72" d="M308.25,100.09c0,0-4.64-2.7-12.55-1.16l1.47-1.11C297.17,97.82,302.81,96.07,308.25,100.09z"/>
			<path class="st72" d="M286.27,103.22c0,0-3.72-1.98-8.06-0.93l1.79-1.32C280,100.97,282.91,100.52,286.27,103.22z"/>
			<path class="st11" d="M303.23,100.09c0,0-1.26-0.28-2.4,0.87C300.83,100.97,302.39,101.42,303.23,100.09z"/>
			<path class="st11" d="M284.57,103.76c0,0-1.98-0.38-2.66,0.52C281.9,104.28,282.96,105,284.57,103.76z"/>
			<path class="st73" d="M307.79,100.55c0,0-3.61,3.57-9.39,4.42l-0.15-2.1l0.53,0.89C298.78,103.76,304.33,103.43,307.79,100.55z"
				/>
			<path class="st73" d="M286.27,104.14c0,0-0.64,2.31-5.34,3.35l0.15-1.13l0.26,0.4C281.35,106.76,284.69,106.33,286.27,104.14z"/>
			<path class="st74" d="M295.7,113.36c0,0-1.75-0.38-4.97,0c-3.22,0.38-6.84,1.26-8.82,0c0,0,2.63,2.63,4.91,3.03
				c2.28,0.4,5.75-1.6,5.75-1.6l1.52,0.03C294.07,114.82,295.24,114.24,295.7,113.36z"/>
			<path class="st75" d="M293.85,114.81c0,0-0.79-0.51-1.45-0.38c-0.66,0.13-1.34,1.09-1.34,1.09S292.46,114.78,293.85,114.81z"/>
			<path class="st76" d="M281.9,113.36c-0.84-0.82,3.52-8.58,5.6-8.87c2.08-0.29,4.04,8.7,4.04,8.7s-2.9,0.41-5.71,0.78
				C283.03,114.35,281.9,113.36,281.9,113.36z"/>
			
				<linearGradient id="SVGID_60_" gradientUnits="userSpaceOnUse" x1="317.7484" y1="108.21" x2="317.7484" y2="88.9167" gradientTransform="matrix(-1 0 0 1 600 0)">
				<stop  offset="0" style="stop-color:#FFEADB"/>
				<stop  offset="0.9944" style="stop-color:#C27CB6"/>
			</linearGradient>
			<path class="st77" d="M278.79,88.92c1.18-0.15,5.35,4.92,5.35,4.92s2.65,8.21,2.13,10.64c-0.52,2.44-6.96,3.73-6.96,3.73
				l-0.27-0.43v-0.01c0.33-0.77,0.61-1.58,0.79-2.46c0.51-2.52-0.58-8.27-1.37-12.98c0,0-0.26-0.97-0.29-1.87
				C278.14,89.7,278.25,88.98,278.79,88.92z"/>
			
				<linearGradient id="SVGID_61_" gradientUnits="userSpaceOnUse" x1="298.6336" y1="147.7828" x2="298.6336" y2="54.15" gradientTransform="matrix(-1 0 0 1 600 0)">
				<stop  offset="0" style="stop-color:#2E33A0"/>
				<stop  offset="1" style="stop-color:#0665A5"/>
			</linearGradient>
			<path class="st78" d="M276.73,120.05c0.14,0.94,3.35,21.16,12.72,27.27c0.01,0.01,0.01,0.01,0.01,0.01s8.47,2.09,21.35-2.71
				c0,0,14.48-8.29,17.98-22.21c0,0,0.81-3.28-0.9-6.79c0,0-2.43-1.04-3.54-7.41c-1.25-7.11,2.52-11.97,2.52-11.97
				s-0.52-3.85,0.61-8.21c1.14-4.36,3.29-8.59,2.34-11.68c-0.95-3.1-8.87-5.06-12.47-7.99c-0.63-0.52-1.15-1.01-1.59-1.49
				c0,0-0.01-0.01-0.03-0.03c-0.01-0.01-0.04-0.03-0.06-0.06c-0.47-0.5-0.86-0.99-1.24-1.47l-0.39-0.47l-0.37-0.44
				c-1.07-1.24-2.37-2.43-5.13-3.72c-5.48-2.54-9.35-2.93-13.31-6.48c-0.03-0.03-0.05-0.05-0.05-0.05s-0.19,3.6,1.14,6.72
				c0,0-12.13-2.74-14.97-2.74s-3.79,9.09-3.79,9.09l-0.01,0.01c-0.21,0.29-3.6,4.84-4.82,7.96c-0.67,1.69,5.2,13.63,5.2,13.63
				s-0.66-5.68,2.94-10.89l1.33,1.23c0,0,0.05-0.12,0.16-0.32c0.55-1.02,2.5-4.21,5.9-5.08c0,0,0,0.66,10.71-0.48
				c10.7-1.13,15.06-1.7,17.62,0.76c2.56,2.47,1.61,8.24-0.76,10.23c0,0,6.54,6.92,6.35,16.68c-0.18,9.39-7.27,16.36-10.28,17.53
				c-0.11,0.05-0.23,0.09-0.33,0.12c-2.78,0.76-4.18-4.23-20.53-2.08c-11.55,1.51-10.73,2.96-12.06,5.74
				C278.63,123,276.89,120.3,276.73,120.05z M279.99,126.18c-0.08-4.3,2.97-5.69,3.54-5.43c0.56,0.25,2.27,1.12,7.01,0.81
				c4.73-0.31,7.89-2.96,7.89-2.96s6.11,0.63,7.85,5.56c1.75,4.92-6.33,8.21-7.85,8.08c-1.51-0.12-5.3-4.42-5.3-4.42
				s-4.11-0.31-4.87,0.44c-0.75,0.76-1.23,6.51-3.5,6.89C282.48,135.53,280.04,129.17,279.99,126.18z"/>
			<path class="st79" d="M285.35,106.21c0,0-4.08,5.07-3.69,6.98c0.43,2.09,5.16,3.2,5.16,3.2s-3.79-1.31-4.57-3.2
				C282.24,113.19,283.22,109.35,285.35,106.21z"/>
			
				<linearGradient id="SVGID_62_" gradientUnits="userSpaceOnUse" x1="323.2267" y1="88.82" x2="323.2267" y2="67.22" gradientTransform="matrix(-1 0 0 1 600 0)">
				<stop  offset="0" style="stop-color:#FFEADB"/>
				<stop  offset="0.9944" style="stop-color:#8860C7"/>
			</linearGradient>
			<path class="st80" d="M277.93,88.82c0,0-0.66-5.68,2.94-10.89c-2.89-5.16-3.31-10.71-3.31-10.71l-0.01,0.01
				c-0.98,2.41-1.54,7.1-1.54,7.1l-3.28,0.86C272.06,76.88,277.93,88.82,277.93,88.82z"/>
			
				<linearGradient id="SVGID_63_" gradientUnits="userSpaceOnUse" x1="293.792" y1="147.7828" x2="293.792" y2="54.15" gradientTransform="matrix(-1 0 0 1 600 0)">
				<stop  offset="0" style="stop-color:#CCC2DB"/>
				<stop  offset="0.9944" style="stop-color:#8860C7"/>
			</linearGradient>
			<path class="st81" d="M282.36,78.84c0.55-1.02,2.5-4.21,5.9-5.08c0,0,0,0.66,10.71-0.48c10.7-1.13,15.06-1.7,17.62,0.76
				c2.56,2.47,1.61,8.24-0.76,10.23c0,0,6.54,6.92,6.35,16.68c-0.18,9.39-7.27,16.36-10.28,17.53l0.14,1.04
				c0,0-0.53,21.5-5.76,23.21c-5.22,1.7-16.06,0.82-17.07,1.83c-0.96,0.96,0.14,2.61,0.24,2.76c0.01,0.01,0.01,0.01,0.01,0.01
				s8.47,2.09,21.35-2.71c0,0,14.48-8.29,17.98-22.21c0,0,0.81-3.28-0.9-6.79c0,0-2.43-1.04-3.54-7.41
				c-1.25-7.11,2.52-11.97,2.52-11.97s-0.52-3.85,0.61-8.21c1.14-4.36,3.29-8.59,2.34-11.68c-6.06,0.95-10.04-2.21-10.04-2.21
				s-1.06-1.47-5.75-2.23c-4.69-0.76-23.54,1.14-23.54,1.14s1.89-1.57,5.87-2.61c3.76-0.99,16.6,0.16,17.98,0.27
				c-1.47-0.26-16.03-2.76-17.69-2.26c-1.76,0.52-8.06,3.41-8.06,3.41c0.57-2.89,6.21-9.85,6.21-9.85s7.96,0.14,13.17,1.23
				c4.65,0.97,7.2,3.1,7.7,3.54l-1.24-1.47l-0.39-0.47l-0.37-0.44l-1.82-0.31l-9.14-3.69c-3.07-1.64-7-5.7-7.48-6.2
				c-0.03-0.03-0.05-0.05-0.05-0.05s-0.19,3.6,1.14,6.72c-7.72-0.95-10.33-0.47-10.33-0.47C282.48,65.37,282.36,78.84,282.36,78.84z
				"/>
			
				<linearGradient id="SVGID_64_" gradientUnits="userSpaceOnUse" x1="300.0704" y1="147.7607" x2="300.0704" y2="143.7378" gradientTransform="matrix(-1 0 0 1 600 0)">
				<stop  offset="0" style="stop-color:#776D7E"/>
				<stop  offset="1" style="stop-color:#9D68C2"/>
			</linearGradient>
			<path class="st82" d="M310.81,144.62c0,0-4.73-1.12-11.87-0.83c-7.14,0.29-11.25,0.32-9.48,3.54
				C289.46,147.33,298.43,149.36,310.81,144.62z"/>
			
				<linearGradient id="SVGID_65_" gradientUnits="userSpaceOnUse" x1="311.8728" y1="60.87" x2="311.8728" y2="57.8813" gradientTransform="matrix(-1 0 0 1 600 0)">
				<stop  offset="0" style="stop-color:#1F77D1"/>
				<stop  offset="1" style="stop-color:#0686C9"/>
			</linearGradient>
			<path class="st83" d="M285.99,60.4c0,0-4.34-1.69-6.06-1.42c0,0,0.68-0.91,1.39-1.1c0.71-0.19,15,2.98,15,2.98
				S287.41,59.83,285.99,60.4z"/>
			
				<linearGradient id="SVGID_66_" gradientUnits="userSpaceOnUse" x1="292.8336" y1="70.71" x2="292.8336" y2="61.8734" gradientTransform="matrix(-1 0 0 1 600 0)">
				<stop  offset="0" style="stop-color:#1F77D1"/>
				<stop  offset="1" style="stop-color:#0686C9"/>
			</linearGradient>
			<path class="st84" d="M294.8,62.01c0,0,0.34,4.73,1.85,6.44l17.69,2.26l5.19-0.92c0,0-2.01-0.86-4.22-3.43
				C313.11,63.78,301.57,61.25,294.8,62.01z"/>
			
				<linearGradient id="SVGID_67_" gradientUnits="userSpaceOnUse" x1="324.855" y1="75.19" x2="324.855" y2="67.22" gradientTransform="matrix(-1 0 0 1 600 0)">
				<stop  offset="0" style="stop-color:#1F77D1"/>
				<stop  offset="1" style="stop-color:#0686C9"/>
			</linearGradient>
			<path class="st85" d="M277.56,67.22c0,0-1.44,4.65-1.55,7.11l-3.28,0.86C272.73,75.19,273.73,71.67,277.56,67.22z"/>
			
				<linearGradient id="SVGID_68_" gradientUnits="userSpaceOnUse" x1="272.1304" y1="110.2623" x2="261.9347" y2="97.7712" gradientTransform="matrix(-1 0 0 1 600 0)">
				<stop  offset="0" style="stop-color:#FFEADB"/>
				<stop  offset="0.9944" style="stop-color:#B060F4"/>
			</linearGradient>
			<path class="st86" d="M325.76,107.48c0,0,1.24-5.97,4.29-8.92c3.05-2.95,6.52-2.01,6.52-2.01s-0.95,11.07-1.94,13.77
				c-0.99,2.7-2.51,3.41-2.51,3.41s2.13-1.87,2.42-5.53c0.28-3.66,0.38-8.82-0.43-9.44c-0.81-0.62-4.06,1.79-4.06,1.79
				s1.03,1.26,1.64,4.52c0.62,3.26-1.66,5.63-2.51,5.58c-0.85-0.05,0.05-3.77-0.09-4.85C328.95,104.74,327.06,104.97,325.76,107.48z
				"/>
			
				<linearGradient id="SVGID_69_" gradientUnits="userSpaceOnUse" x1="273.1978" y1="108.6533" x2="268.1812" y2="102.5073" gradientTransform="matrix(-1 0 0 1 600 0)">
				<stop  offset="0" style="stop-color:#FFEADB"/>
				<stop  offset="0.9944" style="stop-color:#B060F4"/>
			</linearGradient>
			<path class="st87" d="M328.81,100.07c0,0,3.33,2.19,2.97,6.67c-0.36,4.49-2.92,4.29-2.93,3.35c-0.01-0.94,0.49-3.37,0.23-4.74
				c-0.26-1.37-2.47-0.75-2.47-0.75S328.05,101.04,328.81,100.07z"/>
			<path class="st88" d="M276.73,120.05c0,0,4.14,18.87,12.73,27.28C289.46,147.33,279.66,143.48,276.73,120.05z"/>
			<path class="st88" d="M281.32,57.89c0,0-2.18,1.7-2.6,7.59c-0.41,5.9,2.14,12.45,2.14,12.45s-3.28-4.9-3.6-10.27
				C276.96,62.29,279.59,58.57,281.32,57.89z"/>
		</g>
		
			<linearGradient id="SVGID_70_" gradientUnits="userSpaceOnUse" x1="292.2432" y1="71.5004" x2="309.51" y2="71.5004" gradientTransform="matrix(-1 0 0 1 600 0)">
			<stop  offset="0" style="stop-color:#1F77D1"/>
			<stop  offset="1" style="stop-color:#0686C9"/>
		</linearGradient>
		<path class="st89" d="M307.76,70.24c0,0-5.05,1.72-10.59,2.21s-6.68,0.6-6.68,0.6s2.23-2.16,6.97-2.81
			C302.2,69.59,307.76,70.24,307.76,70.24z"/>
		
			<linearGradient id="SVGID_71_" gradientUnits="userSpaceOnUse" x1="316.5974" y1="123.1387" x2="321.8345" y2="123.1387" gradientTransform="matrix(-1 0 0 1 600 0)">
			<stop  offset="0" style="stop-color:#1F77D1"/>
			<stop  offset="1" style="stop-color:#0686C9"/>
		</linearGradient>
		<path class="st90" d="M283.36,120.46c0,0-2.42,0-3.37,3.03c-0.76,2.42-0.97,4.5-0.97,4.5l-0.86-3.32c0,0,1.12-4.21,2.28-5.16
			c0.84-0.68,2.28-1.37,2.96-1.21L283.36,120.46z"/>
		
			<linearGradient id="SVGID_72_" gradientUnits="userSpaceOnUse" x1="310.1316" y1="119.2445" x2="315.7802" y2="119.2445" gradientTransform="matrix(-1 0 0 1 600 0)">
			<stop  offset="0" style="stop-color:#1F77D1"/>
			<stop  offset="1" style="stop-color:#0686C9"/>
		</linearGradient>
		<path class="st91" d="M289.87,117.43l-0.41,3.6c0,0-2.94,0.24-4.89-0.57l-0.35-2.18C284.22,118.28,287.97,117.34,289.87,117.43z"
			/>
		<path class="st88" d="M276.44,163.96c0,0-17.23,12.58-19.46,16.91c-2.24,4.33-3.14,17.9-6.16,23.78c0,0,2.07-9.61,3.52-17.14
			c1.45-7.53,1.1-7.64,1.91-9.49C257.04,176.17,269.91,167.24,276.44,163.96z"/>
		<path class="st88" d="M279.53,234c0,0,8.3,35.54,7.93,37.94c-0.38,2.4-5.75,7.3-6,8.64c0,0,4.11,5.5,3.92,6.72
			s-7.2,8.92-7.01,11.31c0.05,0.69,4.6,8.19,4.6,8.19s-5.14-7.37-5.39-8.55c-0.25-1.18,6.3-11.03,6.49-12.03
			c0.5-2.59-3.27-4.5-3.39-6.2c-0.13-1.71,5.09-5.87,5.14-8.65C285.84,268.6,279.53,234,279.53,234z"/>
		<path class="st88" d="M277.84,318.73c0,0-17.95,40.63-24.07,81.27C253.77,400,254.79,360.34,277.84,318.73z"/>
		<path class="st76" d="M391.65,155.8c0,0,4.64-0.99,6.57-5.04c1.93-4.05,0.67-9.92,0.67-9.92s-3.64,6.98-5.45,9.36
			C391.63,152.58,391.14,155.29,391.65,155.8z"/>
	</g>
	<g class="st1">
		<path class="st92" d="M71.26,134.62l3.22,91.8c0.13,3.64,3.12,6.53,6.76,6.53h158.13c3.67,0,6.67-2.93,6.76-6.6l2.21-92.87
			c0.09-3.82-2.99-6.95-6.81-6.93l-163.56,1.07C74.16,127.64,71.12,130.81,71.26,134.62z"/>
		<g>
			<path class="st93" d="M239.37,233.19H81.24c-3.8,0-6.88-2.97-7.01-6.77l-3.22-91.8c-0.07-1.91,0.63-3.72,1.95-5.1
				c1.32-1.38,3.1-2.15,5.02-2.16l163.57-1.07c1.9,0.01,3.71,0.73,5.05,2.1c1.34,1.37,2.06,3.17,2.01,5.08l-2.21,92.87
				C246.29,230.18,243.21,233.19,239.37,233.19z M241.58,126.79c-0.01,0-0.03,0-0.04,0l-163.57,1.07c-1.78,0.01-3.43,0.72-4.66,2
				c-1.23,1.28-1.87,2.96-1.81,4.74l3.22,91.8c0.12,3.53,2.98,6.29,6.51,6.29h158.13c3.51,0,6.43-2.85,6.51-6.36l2.21-92.87
				c0.04-1.78-0.62-3.45-1.87-4.72C244.99,127.48,243.34,126.79,241.58,126.79z"/>
		</g>
		
			<linearGradient id="SVGID_73_" gradientUnits="userSpaceOnUse" x1="351.7959" y1="132.9462" x2="528.8544" y2="132.9462" gradientTransform="matrix(1 0 0 1 -280.4009 0)">
			<stop  offset="0" style="stop-color:#9D68C2"/>
			<stop  offset="1" style="stop-color:#AEC2FF"/>
		</linearGradient>
		<path class="st94" d="M71.49,139.29h176.66l0.28-4.84c0.25-4.28-3.17-7.88-7.46-7.85l-163.5,1.29c-3.41,0.03-6.15,2.84-6.08,6.25
			L71.49,139.29z"/>
		
			<linearGradient id="SVGID_74_" gradientUnits="userSpaceOnUse" x1="387.814" y1="199.8196" x2="387.814" y2="146.4174" gradientTransform="matrix(1 0 0 1 -280.4009 0)">
			<stop  offset="0" style="stop-color:#CCEDFF"/>
			<stop  offset="1" style="stop-color:#9D68C2"/>
		</linearGradient>
		<polygon class="st95" points="80.38,146.7 80.38,199.82 134.45,199.82 134.45,146.42 		"/>
		
			<linearGradient id="SVGID_75_" gradientUnits="userSpaceOnUse" x1="478.8728" y1="173.7835" x2="478.8728" y2="150.2609" gradientTransform="matrix(1 0 0 1 -280.4009 0)">
			<stop  offset="0" style="stop-color:#CCEDFF"/>
			<stop  offset="1" style="stop-color:#9D68C2"/>
		</linearGradient>
		<rect x="186.71" y="150.26" class="st96" width="23.52" height="23.52"/>
		
			<linearGradient id="SVGID_76_" gradientUnits="userSpaceOnUse" x1="506.6263" y1="173.7835" x2="506.6263" y2="150.2609" gradientTransform="matrix(1 0 0 1 -280.4009 0)">
			<stop  offset="0" style="stop-color:#CCEDFF"/>
			<stop  offset="1" style="stop-color:#9D68C2"/>
		</linearGradient>
		<rect x="214.46" y="150.26" class="st97" width="23.52" height="23.52"/>
		
			<linearGradient id="SVGID_77_" gradientUnits="userSpaceOnUse" x1="450.6556" y1="173.7835" x2="450.6556" y2="150.2609" gradientTransform="matrix(1 0 0 1 -280.4009 0)">
			<stop  offset="0" style="stop-color:#CCEDFF"/>
			<stop  offset="1" style="stop-color:#9D68C2"/>
		</linearGradient>
		<rect x="158.49" y="150.26" class="st98" width="23.52" height="23.52"/>
		<rect x="177.83" y="187.5" class="st99" width="60.15" height="5.63"/>
		<rect x="162.79" y="196.07" class="st99" width="75.2" height="1.74"/>
		<rect x="163.5" y="176.78" class="st99" width="14.39" height="1.74"/>
		<rect x="191.28" y="176.78" class="st99" width="14.39" height="1.74"/>
		<rect x="219.03" y="176.78" class="st99" width="14.39" height="1.74"/>
		<rect x="158.49" y="198.91" class="st99" width="24.19" height="1.74"/>
		<rect x="162.79" y="201.71" class="st99" width="75.2" height="1.74"/>
		<rect x="158.49" y="204.51" class="st99" width="79.49" height="1.74"/>
		<rect x="158.49" y="207.31" class="st99" width="79.49" height="1.74"/>
		<rect x="162.79" y="218.63" class="st99" width="75.2" height="1.74"/>
		<rect x="158.49" y="221.43" class="st99" width="79.49" height="1.74"/>
		<rect x="158.49" y="224.23" class="st99" width="79.49" height="1.74"/>
		<rect x="158.49" y="210.11" class="st99" width="76.3" height="1.74"/>
		<rect x="162.79" y="212.91" class="st99" width="75.2" height="1.74"/>
		<rect x="158.49" y="215.71" class="st99" width="64.41" height="1.74"/>
		<g>
			<path class="st100" d="M95.53,189.17c-8.48,0-15.38-6.9-15.38-15.38c0-8.48,6.9-15.38,15.38-15.38c8.48,0,15.38,6.9,15.38,15.38
				C110.91,182.27,104.01,189.17,95.53,189.17z M95.53,159.4c-7.93,0-14.38,6.45-14.38,14.38c0,7.93,6.45,14.38,14.38,14.38
				c7.93,0,14.38-6.45,14.38-14.38C109.91,165.85,103.46,159.4,95.53,159.4z"/>
		</g>
		<circle class="st11" cx="95.53" cy="173.78" r="8.36"/>
		<g>
			<path class="st100" d="M134.45,161.8c-8.48,0-15.38-6.9-15.38-15.38c0-8.48,6.9-15.38,15.38-15.38c8.48,0,15.38,6.9,15.38,15.38
				C149.83,154.9,142.93,161.8,134.45,161.8z M134.45,132.03c-7.93,0-14.38,6.45-14.38,14.38c0,7.93,6.45,14.38,14.38,14.38
				c7.93,0,14.38-6.45,14.38-14.38C148.83,138.49,142.38,132.03,134.45,132.03z"/>
		</g>
		
			<ellipse transform="matrix(0.1554 -0.9878 0.9878 0.1554 -31.086 256.4747)" class="st11" cx="134.45" cy="146.42" rx="7.87" ry="7.87"/>
		<g>
			<polygon class="st11" points="77.68,132.08 78.81,130.38 84.89,135.7 83.95,137 			"/>
			<polygon class="st11" points="85.04,132.08 83.92,130.38 77.84,135.7 78.77,137 			"/>
		</g>
		<rect x="189.44" y="131.53" class="st11" width="54.44" height="2.73"/>
	</g>
	<g class="st1">
		
			<linearGradient id="SVGID_78_" gradientUnits="userSpaceOnUse" x1="197.668" y1="115.9874" x2="197.668" y2="91.3654" gradientTransform="matrix(-1 0 0 1 600 0)">
			<stop  offset="0" style="stop-color:#D93DE3"/>
			<stop  offset="1" style="stop-color:#FF6DBA"/>
		</linearGradient>
		<polygon class="st101" points="416.65,92.12 416.65,115.75 388.39,115.99 388.01,91.37 		"/>
		
			<linearGradient id="SVGID_79_" gradientUnits="userSpaceOnUse" x1="212.7179" y1="115.9874" x2="212.7179" y2="91.3654" gradientTransform="matrix(-1 0 0 1 600 0)">
			<stop  offset="0" style="stop-color:#A242EA"/>
			<stop  offset="1" style="stop-color:#FE117E"/>
		</linearGradient>
		<polygon class="st102" points="388.01,91.37 386.17,94.47 387.09,115.96 388.39,115.99 		"/>
		<polygon class="st11" points="411.61,100.1 408.99,96.31 394.89,108.15 397.05,111.04 		"/>
		<polygon class="st11" points="394.52,100.1 397.13,96.31 411.24,108.15 409.08,111.04 		"/>
	</g>
	<g class="st1">
		
			<linearGradient id="SVGID_80_" gradientUnits="userSpaceOnUse" x1="193.3956" y1="375.37" x2="206.7105" y2="269.3559" gradientTransform="matrix(1 0 0 1 197.7797 0)">
			<stop  offset="0" style="stop-color:#067EFF"/>
			<stop  offset="1" style="stop-color:#3E37A0"/>
		</linearGradient>
		<path class="st103" d="M447.05,370.18h-96.69c-4.3,0-7.82-3.44-7.92-7.74l-1.81-79.31c-0.1-4.44,3.47-8.1,7.92-8.1h100.67
			c4.46,0,8.04,3.68,7.92,8.14l-2.17,79.31C454.85,366.77,451.34,370.18,447.05,370.18z"/>
		<g>
			<path class="st104" d="M447.05,370.43h-96.69c-4.4,0-8.07-3.58-8.17-7.98l-1.81-79.31c-0.05-2.22,0.78-4.31,2.33-5.9
				c1.55-1.58,3.62-2.46,5.84-2.46h100.67c2.22,0,4.3,0.88,5.86,2.47c1.55,1.59,2.37,3.7,2.31,5.92l-2.18,79.31
				C455.09,366.94,451.51,370.43,447.05,370.43z M348.56,275.29c-2.08,0-4.03,0.82-5.48,2.31c-1.46,1.49-2.23,3.46-2.18,5.54
				l1.81,79.31c0.09,4.13,3.53,7.49,7.67,7.49h96.69c4.18,0,7.55-3.28,7.67-7.46l2.18-79.31c0.06-2.09-0.71-4.06-2.17-5.56
				c-1.46-1.5-3.41-2.32-5.5-2.32H348.56z"/>
		</g>
		<g>
			<rect x="366.7" y="291.26" class="st11" width="50.85" height="2.18"/>
			<rect x="366.7" y="296.55" class="st11" width="25.42" height="2.18"/>
			<rect x="366.7" y="300.98" class="st11" width="25.42" height="2.18"/>
			<rect x="394.98" y="300.98" class="st11" width="20.23" height="2.18"/>
			<rect x="366.7" y="305.4" class="st11" width="40.99" height="2.18"/>
			<rect x="366.7" y="309.82" class="st11" width="14.59" height="2.18"/>
			<rect x="384.29" y="323.08" class="st11" width="25.23" height="2.18"/>
			<rect x="366.7" y="314.24" class="st11" width="45.73" height="2.18"/>
			<rect x="366.7" y="318.66" class="st11" width="35.18" height="2.18"/>
			<rect x="366.7" y="323.08" class="st11" width="16.55" height="2.18"/>
			<rect x="366.7" y="327.5" class="st11" width="25.42" height="2.18"/>
			<rect x="366.7" y="331.92" class="st11" width="7.29" height="2.18"/>
			<rect x="377" y="331.92" class="st11" width="26.46" height="2.18"/>
			<rect x="384.29" y="336.21" class="st11" width="25.23" height="2.18"/>
			<rect x="366.7" y="336.21" class="st11" width="16.55" height="2.18"/>
			<rect x="366.7" y="340.63" class="st11" width="25.42" height="2.18"/>
			<rect x="366.7" y="345.05" class="st11" width="7.29" height="2.18"/>
			<rect x="377" y="345.05" class="st11" width="26.46" height="2.18"/>
		</g>
	</g>
	
		<linearGradient id="SVGID_81_" gradientUnits="userSpaceOnUse" x1="504.249" y1="113.3083" x2="504.249" y2="104.3711" gradientTransform="matrix(-1 0 0 1 600 0)">
		<stop  offset="0" style="stop-color:#459FFF"/>
		<stop  offset="1" style="stop-color:#A96DFF"/>
	</linearGradient>
	<path class="st105" d="M91.28,108.84c0,2.47,2,4.47,4.47,4.47c2.47,0,4.47-2,4.47-4.47s-2-4.47-4.47-4.47
		C93.28,104.37,91.28,106.37,91.28,108.84z"/>
	
		<linearGradient id="SVGID_82_" gradientUnits="userSpaceOnUse" x1="84.2557" y1="218.0383" x2="84.2557" y2="206.915" gradientTransform="matrix(-1 0 0 1 600 0)">
		<stop  offset="0" style="stop-color:#459FFF"/>
		<stop  offset="1" style="stop-color:#A96DFF"/>
	</linearGradient>
	<path class="st106" d="M510.18,212.48c0,3.07,2.49,5.56,5.56,5.56s5.56-2.49,5.56-5.56s-2.49-5.56-5.56-5.56
		S510.18,209.41,510.18,212.48z"/>
	
		<linearGradient id="SVGID_83_" gradientUnits="userSpaceOnUse" x1="517.3742" y1="113.3083" x2="517.3742" y2="104.3711" gradientTransform="matrix(-1 0 0 1 600 0)">
		<stop  offset="0" style="stop-color:#B31A8F"/>
		<stop  offset="1" style="stop-color:#FE117E"/>
	</linearGradient>
	<circle class="st107" cx="82.63" cy="108.84" r="4.47"/>
	
		<linearGradient id="SVGID_84_" gradientUnits="userSpaceOnUse" x1="229.2033" y1="142.7256" x2="229.2033" y2="136.406" gradientTransform="matrix(-1 0 0 1 600 0)">
		<stop  offset="0" style="stop-color:#B31A8F"/>
		<stop  offset="1" style="stop-color:#FE117E"/>
	</linearGradient>
	<circle class="st108" cx="370.8" cy="139.57" r="3.16"/>
	
		<linearGradient id="SVGID_85_" gradientUnits="userSpaceOnUse" x1="440.8599" y1="282.1632" x2="440.8599" y2="275.8436" gradientTransform="matrix(-1 0 0 1 600 0)">
		<stop  offset="0" style="stop-color:#8642A0"/>
		<stop  offset="1" style="stop-color:#6456C0"/>
	</linearGradient>
	<circle class="st109" cx="159.14" cy="279" r="3.16"/>
	
		<linearGradient id="SVGID_86_" gradientUnits="userSpaceOnUse" x1="112.3383" y1="313.3327" x2="112.3383" y2="307.6831" gradientTransform="matrix(-1 0 0 1 600 0)">
		<stop  offset="0" style="stop-color:#8642A0"/>
		<stop  offset="1" style="stop-color:#6456C0"/>
	</linearGradient>
	<circle class="st110" cx="487.66" cy="310.51" r="2.82"/>
	<g class="st1">
		
			<linearGradient id="SVGID_87_" gradientUnits="userSpaceOnUse" x1="136.0431" y1="282.7714" x2="136.0431" y2="236.1088" gradientTransform="matrix(1 0 0 1 327.9139 0)">
			<stop  offset="0" style="stop-color:#D906E3"/>
			<stop  offset="1" style="stop-color:#FF6DF9"/>
		</linearGradient>
		<path class="st111" d="M488.41,282.77h-48.8c-3.93,0-7.15-3.11-7.28-7.04l-1.08-32.1c-0.14-4.12,3.16-7.53,7.28-7.53h50.86
			c4.11,0,7.41,3.4,7.28,7.51l-0.98,32.1C495.57,279.64,492.34,282.77,488.41,282.77z"/>
		<g>
			<path class="st112" d="M488.41,283.02h-48.8c-4.08,0-7.39-3.2-7.53-7.28l-1.08-32.1c-0.07-2.06,0.68-4.01,2.11-5.49
				c1.43-1.48,3.36-2.3,5.42-2.3h50.86c2.06,0,3.98,0.81,5.41,2.29c1.43,1.48,2.19,3.42,2.12,5.48l-0.98,32.1
				C495.81,279.81,492.5,283.02,488.41,283.02z M438.53,236.36c-1.92,0-3.72,0.76-5.06,2.14s-2.04,3.2-1.97,5.13l1.08,32.1
				c0.13,3.81,3.22,6.8,7.03,6.8h48.8c3.82,0,6.91-3,7.03-6.82l0.98-32.1c0.06-1.92-0.64-3.73-1.98-5.11
				c-1.34-1.38-3.13-2.14-5.05-2.14H438.53z"/>
		</g>
		<g>
			<polygon class="st11" points="452.62,247.64 440.59,261.59 452.84,271.99 452.84,266.62 445.75,260.48 452.33,253.04 			"/>
		</g>
		<g>
			<polygon class="st11" points="473.77,248.27 485.8,262.21 473.55,272.61 473.55,267.25 480.64,261.11 472.75,252.76 			"/>
		</g>
		<g>
			<polygon class="st11" points="455.24,271.99 465.72,248.89 470.65,248.89 458.78,271.99 			"/>
		</g>
	</g>
	<g class="st1">
		
			<linearGradient id="SVGID_88_" gradientUnits="userSpaceOnUse" x1="458.2341" y1="348.8215" x2="458.2341" y2="290.4473" gradientTransform="matrix(1 0 0 1 -316.4687 0)">
			<stop  offset="0" style="stop-color:#D906E3"/>
			<stop  offset="1" style="stop-color:#FF6DF9"/>
		</linearGradient>
		<path class="st113" d="M172.35,348.82h-61.05c-4.91,0-8.94-3.89-9.11-8.8l-1.36-40.15c-0.17-5.15,3.95-9.42,9.11-9.42h63.63
			c5.14,0,9.26,4.25,9.11,9.39l-1.23,40.15C181.31,344.91,177.28,348.82,172.35,348.82z"/>
		<g>
			<path class="st112" d="M172.35,349.07h-61.05c-5.08,0-9.18-3.97-9.36-9.04l-1.36-40.15c-0.09-2.56,0.85-4.98,2.63-6.82
				c1.78-1.84,4.17-2.85,6.73-2.85h63.63c2.55,0,4.94,1.01,6.72,2.84c1.78,1.83,2.72,4.25,2.64,6.8L181.71,340
				C181.55,345.08,177.44,349.07,172.35,349.07z M109.95,290.7c-2.42,0-4.69,0.96-6.37,2.7c-1.68,1.74-2.57,4.04-2.49,6.46
				l1.36,40.15c0.16,4.8,4.05,8.56,8.86,8.56h61.05c4.82,0,8.71-3.77,8.86-8.59l1.23-40.15c0.07-2.42-0.81-4.71-2.5-6.44
				c-1.68-1.74-3.94-2.69-6.36-2.69H109.95z"/>
		</g>
		<rect x="113.08" y="296.91" class="st99" width="55.91" height="33.21"/>
		<polygon class="st11" points="136.08,305.15 136.08,321.88 150.37,312.75 		"/>
		<rect x="113.08" y="336.24" class="st99" width="55.91" height="3.04"/>
		<rect x="113.08" y="336.24" class="st11" width="14.47" height="3.04"/>
	</g>
	<g class="st1">
		<g>
			
				<linearGradient id="SVGID_89_" gradientUnits="userSpaceOnUse" x1="404.3205" y1="275.2039" x2="399.3466" y2="232.5129" gradientTransform="matrix(-0.9656 0.26 0.26 0.9656 536.3667 -54.681)">
				<stop  offset="0" style="stop-color:#1852A0"/>
				<stop  offset="1" style="stop-color:#067ED3"/>
			</linearGradient>
			<path class="st114" d="M214.33,294.76l-2.92-8.35C210.4,287.16,212.72,290.15,214.33,294.76z M217.26,303.11l-2.92-8.35
				C215.95,299.38,216.52,302.89,217.26,303.11z M214.33,294.76l-2.92-8.35C210.4,287.16,212.72,290.15,214.33,294.76z
				 M217.26,303.11l-2.92-8.35C215.95,299.38,216.52,302.89,217.26,303.11z M206.47,302.98c0.7,1.18,1.48,2.25,2.32,3.2l-1.36,3.92
				l5.89,4.46l0.58-4.42c1.21,0.54,2.43,0.84,3.63,0.84l0.55,2.02l0.81,2.96l5.26-2.05l-2.01-4.65c0.91-0.78,1.66-1.79,2.25-3
				l3.29,3.14l1.56-7.36l-3.43-2.15c0.05-1.62-0.09-3.33-0.43-5.09l3.28-0.55l-3.06-8.35l-2.84,1.6c-0.84-1.57-1.81-2.97-2.87-4.18
				l1.36-3.92l-5.89-4.46l-0.59,4.42c-1.21-0.54-2.42-0.84-3.62-0.85l-1.28-4.68l0,0l-5.35,1.74l2.01,4.64
				c-0.2,0.17-0.39,0.36-0.57,0.55c-0.66,0.69-1.22,1.51-1.68,2.45l-3.29-3.14l-1.56,7.36l3.43,2.15c-0.04,1.33,0.04,2.73,0.28,4.16
				c0.04,0.31,0.1,0.62,0.16,0.93l-3.28,0.55l3.06,8.35l2.83-1.61C206.09,302.33,206.27,302.66,206.47,302.98z M211.42,286.42
				c2.93-1.02,6.61,1.88,8.22,6.49c1.62,4.6,0.55,9.17-2.38,10.2c-2.93,1.02-1.31-3.73-2.92-8.35
				C212.72,290.15,208.48,287.44,211.42,286.42z M214.33,294.76l-2.92-8.35C210.4,287.16,212.72,290.15,214.33,294.76z
				 M217.26,303.11l-2.92-8.35C215.95,299.38,216.52,302.89,217.26,303.11z"/>
		</g>
		
			<linearGradient id="SVGID_90_" gradientUnits="userSpaceOnUse" x1="399.4991" y1="275.3656" x2="399.4991" y2="231.6211" gradientTransform="matrix(-0.9656 0.26 0.26 0.9656 536.3667 -54.681)">
			<stop  offset="0" style="stop-color:#1852A0"/>
			<stop  offset="1" style="stop-color:#067ED3"/>
		</linearGradient>
		<path class="st115" d="M206.47,302.98l4.6,2.83l-3.64,4.29l5.89,4.46l4.76-1.55l2.79-0.91l-0.76,1.45l-1.21,2.42l7.54-2.46
			l5.27-2.05l-1.7-3.93l5.23-0.57l-2.72-9.91l-5.51-15.26l1.79-4.82l-5.89-4.46l-4.59,2.18l-0.98-3.6l-5.27,2.05l-2.2,0.72
			l-5.35,1.74l2.63,5.36l1.39-3.31l-7.55,2.46l-1.14,7.14l3.46,1.69l0.33,4.6l-0.5,0.24l-3.12,1.48l3.06,8.35L206.47,302.98z
			 M217.26,303.11l-2.92-8.35l-2.92-8.35c2.93-1.02,6.61,1.88,8.22,6.49C221.26,297.51,220.19,302.08,217.26,303.11z"/>
		<g>
			
				<linearGradient id="SVGID_91_" gradientUnits="userSpaceOnUse" x1="361.9373" y1="289.2716" x2="358.72" y2="261.6577" gradientTransform="matrix(-0.9438 0.3306 0.5202 1.4851 418.6641 -235.9143)">
				<stop  offset="0" style="stop-color:#188DC1"/>
				<stop  offset="1" style="stop-color:#06BFE7"/>
			</linearGradient>
			<path class="st116" d="M213.46,299.54c0.84,1.57,1.81,2.98,2.87,4.19l-1.36,3.92l5.89,4.45l0.58-4.42
				c1.21,0.54,2.43,0.84,3.62,0.84l1.36,4.99l5.27-2.05l-2.01-4.64c0.91-0.78,1.67-1.8,2.25-3l3.29,3.14l1.56-7.36l-3.43-2.15
				c0.05-1.62-0.09-3.33-0.44-5.08l3.28-0.55l-3.06-8.35l-2.84,1.6c-0.84-1.57-1.81-2.98-2.87-4.19l1.36-3.92l-5.89-4.45l-0.58,4.42
				c-1.21-0.54-2.43-0.84-3.62-0.84l-1.36-4.99l-5.27,2.05l2.01,4.64c-0.91,0.78-1.67,1.8-2.25,3l-3.29-3.14l-1.56,7.36l3.43,2.15
				c-0.05,1.62,0.09,3.33,0.44,5.08l-3.28,0.55l3.06,8.35L213.46,299.54z M216.58,294.16c-1.61-4.61-0.55-9.18,2.38-10.2
				c2.93-1.03,6.61,1.88,8.23,6.49c1.61,4.61,0.55,9.18-2.38,10.2C221.88,301.67,218.19,298.77,216.58,294.16z"/>
		</g>
		<polygon class="st117" points="199.43,287.46 206.97,285.01 210.4,287.16 202.86,289.61 		"/>
		<polygon class="st118" points="207.42,310.1 214.97,307.64 216.33,303.73 208.78,306.19 		"/>
		<polygon class="st117" points="214.08,277.79 209.94,278.99 208.54,277.65 205.79,278.54 204.52,275.6 212.06,273.15 		"/>
		<path class="st117" d="M225.07,308.53l-3.95,1.64l0.33-2.49C221.44,307.68,223.57,308.81,225.07,308.53z"/>
		<path class="st117" d="M224.46,285.9l-6.65,3.52c0,0-0.96-1.29-1.71-1.81C216.09,287.61,217.83,280.27,224.46,285.9z"/>
	</g>
	<polygon class="st119" points="377.21,36.96 370.8,49.81 375.08,51.76 381.08,39.96 	"/>
	<polygon class="st120" points="521.66,336.3 515.72,342.82 513.39,340.13 519,333.96 	"/>
	<polygon class="st121" points="219.89,115.37 225.87,119 228.26,114.45 221.72,110.64 	"/>
	<polygon class="st121" points="190.44,345.08 199.01,351.17 201.41,346.63 193.09,341.77 	"/>
	<g class="st1">
		
			<linearGradient id="SVGID_92_" gradientUnits="userSpaceOnUse" x1="412.3512" y1="88.0975" x2="423.6827" y2="46.0142" gradientTransform="matrix(-1 0 0 1 600 0)">
			<stop  offset="0" style="stop-color:#188DC1"/>
			<stop  offset="1" style="stop-color:#06BFE7"/>
		</linearGradient>
		<polygon class="st122" points="201.76,84.3 203.21,50.64 159.14,50.64 160.95,84.2 		"/>
		
			<linearGradient id="SVGID_93_" gradientUnits="userSpaceOnUse" x1="392.8735" y1="83.2426" x2="401.3237" y2="51.8603" gradientTransform="matrix(-1 0 0 1 600 0)">
			<stop  offset="0" style="stop-color:#1852A0"/>
			<stop  offset="1" style="stop-color:#067ED3"/>
		</linearGradient>
		<polygon class="st123" points="203.21,50.64 204.53,52.62 203.21,84.3 201.76,84.3 		"/>
		<polygon class="st11" points="188.58,57.36 195.49,56.62 194.55,79.68 188.58,79.1 188.58,76.71 192.04,76.79 192.43,59.01 
			188.58,59.12 		"/>
		<polygon class="st11" points="174.41,57.36 167.5,56.62 168.45,79.68 174.41,79.1 174.41,76.71 170.96,76.79 170.56,59.01 
			174.41,59.12 		"/>
	</g>
	<g class="st1">
		
			<linearGradient id="SVGID_94_" gradientUnits="userSpaceOnUse" x1="121.9244" y1="160.5708" x2="129.6494" y2="131.8817" gradientTransform="matrix(1 0 0 1 393.3441 0)">
			<stop  offset="0" style="stop-color:#188DC1"/>
			<stop  offset="1" style="stop-color:#06BFE7"/>
		</linearGradient>
		<polygon class="st124" points="505.65,157.98 504.66,135.03 534.7,135.03 533.47,157.91 		"/>
		
			<linearGradient id="SVGID_95_" gradientUnits="userSpaceOnUse" x1="108.646" y1="157.2612" x2="114.4067" y2="135.8671" gradientTransform="matrix(1 0 0 1 393.3441 0)">
			<stop  offset="0" style="stop-color:#1852A0"/>
			<stop  offset="1" style="stop-color:#067ED3"/>
		</linearGradient>
		<polygon class="st125" points="504.66,135.03 503.76,136.39 504.66,157.98 505.65,157.98 		"/>
		<path class="st11" d="M516.23,139.65c0,0-3.29-0.13-3.88,0.14c-0.58,0.27,0.15,5.64,0.15,5.64l-1.31,1.21l1.23,1.19
			c0,0-0.06,5.44,0.71,5.89c0.77,0.45,3.42,0,3.42,0v-1.36c0,0-2.16,0.14-2.52-0.15s-0.32-5.04-0.32-5.04l-0.58-0.64l0.58-0.69
			c0,0-0.11-3.39-0.04-4.32c0.04-0.62,2.56-0.65,2.56-0.65V139.65z"/>
		<path class="st11" d="M523.78,139.65c0,0,3.29-0.13,3.88,0.14c0.58,0.27-0.15,5.64-0.15,5.64l1.31,1.21l-1.23,1.19
			c0,0,0.06,5.44-0.71,5.89c-0.77,0.45-3.42,0-3.42,0v-1.36c0,0,2.16,0.14,2.52-0.15c0.36-0.29,0.32-5.04,0.32-5.04l0.58-0.64
			l-0.58-0.69c0,0,0.11-3.39,0.04-4.32c-0.04-0.62-2.56-0.65-2.56-0.65V139.65z"/>
	</g>
	<g class="st1">
		<g>
			<path class="st93" d="M240.41,72.05l19.09-3.99l-7.36,19.27L240.41,72.05z M241.29,72.38l10.7,13.94l6.72-17.58L241.29,72.38z"/>
		</g>
		<g>
			
				<rect x="196.09" y="350.49" transform="matrix(0.8065 -0.5912 0.5912 0.8065 -172.4568 184.9452)" class="st93" width="0.5" height="10.94"/>
		</g>
		<g>
			<polygon class="st93" points="260.08,279.16 267.03,270.51 266.64,270.2 259.69,278.85 			"/>
		</g>
		<g>
			<polygon class="st93" points="474.41,339.88 488.28,329.82 487.99,329.42 474.12,339.48 			"/>
		</g>
		<g>
			
				<rect x="480.95" y="326.08" transform="matrix(0.7955 -0.606 0.606 0.7955 -104.3757 360.0336)" class="st93" width="0.5" height="17.13"/>
		</g>
		<g>
			
				<rect x="496.09" y="189.54" transform="matrix(0.8852 -0.4651 0.4651 0.8852 -30.7658 254.8864)" class="st93" width="10.14" height="0.5"/>
		</g>
		<g>
			<polygon class="st93" points="151.95,71.37 152.32,71.04 141.95,59.21 141.58,59.54 			"/>
		</g>
		<g>
			
				<rect x="346.11" y="104.5" transform="matrix(0.4454 -0.8953 0.8953 0.4454 101.0523 372.6422)" class="st93" width="10.41" height="0.5"/>
		</g>
		<g>
			
				<rect x="420.85" y="254.21" transform="matrix(0.6416 -0.767 0.767 0.6416 -50.0331 416.8832)" class="st93" width="0.5" height="15.54"/>
		</g>
	</g>
</g>
</svg>
