<?xml version="1.0" encoding="utf-8"?>
<!-- Generator: Adobe Illustrator 24.0.1, SVG Export Plug-In . SVG Version: 6.00 Build 0)  -->
<svg version="1.1" id="Camada_1" xmlns="http://www.w3.org/2000/svg" xmlns:xlink="http://www.w3.org/1999/xlink" x="0px" y="0px"
	 viewBox="0 0 400 400" style="enable-background:new 0 0 400 400;" xml:space="preserve">
<style type="text/css">
	.st0{display:none;clip-path:url(#SVGID_1_);fill:#FFFFFF;}
	.st1{clip-path:url(#SVGID_2_);}
	.st2{fill:#F1F1F4;}
	.st3{display:none;clip-path:url(#SVGID_3_);fill:#E0F3FF;}
	.st4{clip-path:url(#SVGID_4_);}
	.st5{fill:url(#SVGID_5_);}
	.st6{fill:url(#SVGID_6_);}
	.st7{fill:#E5E2FF;}
	.st8{fill:url(#SVGID_7_);}
	.st9{opacity:0.62;fill:url(#SVGID_8_);enable-background:new    ;}
	.st10{opacity:0.62;fill:url(#SVGID_9_);enable-background:new    ;}
	.st11{opacity:0.5;fill:url(#SVGID_10_);enable-background:new    ;}
	.st12{fill:#FFFFFF;}
	.st13{clip-path:url(#SVGID_11_);}
	.st14{fill:url(#SVGID_12_);}
	.st15{opacity:0.5;fill:url(#SVGID_13_);enable-background:new    ;}
	.st16{opacity:0.5;fill:url(#SVGID_14_);enable-background:new    ;}
	.st17{fill:url(#SVGID_15_);}
	.st18{fill:url(#SVGID_16_);}
	.st19{opacity:0.76;fill:url(#SVGID_17_);enable-background:new    ;}
	.st20{opacity:0.76;fill:url(#SVGID_18_);enable-background:new    ;}
	.st21{opacity:0.76;fill:url(#SVGID_19_);enable-background:new    ;}
	.st22{fill:#FE9083;}
	.st23{fill:url(#SVGID_20_);}
	.st24{opacity:0.5;fill:url(#SVGID_21_);enable-background:new    ;}
	.st25{fill:url(#SVGID_22_);}
	.st26{opacity:0.5;fill:url(#SVGID_23_);enable-background:new    ;}
	.st27{fill:url(#SVGID_24_);}
	.st28{fill:url(#SVGID_25_);}
	.st29{fill:#CB4D7A;}
	.st30{fill:#EE8183;}
	.st31{fill:url(#SVGID_26_);}
	.st32{opacity:0.6;fill:url(#SVGID_27_);enable-background:new    ;}
	.st33{fill:url(#SVGID_28_);}
	.st34{fill:#E28183;}
	.st35{opacity:0.91;fill:url(#SVGID_29_);enable-background:new    ;}
	.st36{fill:url(#SVGID_30_);}
	.st37{opacity:0.6;fill:url(#SVGID_31_);enable-background:new    ;}
	.st38{fill:url(#SVGID_32_);}
	.st39{fill:url(#SVGID_33_);}
	.st40{opacity:0.91;fill:url(#SVGID_34_);enable-background:new    ;}
	.st41{opacity:0.5;fill:url(#SVGID_35_);enable-background:new    ;}
	.st42{opacity:0.5;fill:url(#SVGID_36_);enable-background:new    ;}
	.st43{opacity:0.5;fill:url(#SVGID_37_);enable-background:new    ;}
	.st44{opacity:0.5;fill:url(#SVGID_38_);enable-background:new    ;}
	.st45{opacity:0.5;fill:url(#SVGID_39_);enable-background:new    ;}
	.st46{opacity:0.5;fill:url(#SVGID_40_);enable-background:new    ;}
	.st47{opacity:0.5;fill:url(#SVGID_41_);enable-background:new    ;}
	.st48{opacity:0.5;fill:url(#SVGID_42_);enable-background:new    ;}
	.st49{opacity:0.5;fill:url(#SVGID_43_);enable-background:new    ;}
	.st50{opacity:0.76;fill:url(#SVGID_44_);enable-background:new    ;}
	.st51{opacity:0.5;fill:url(#SVGID_45_);enable-background:new    ;}
	.st52{opacity:0.3;fill:url(#SVGID_46_);enable-background:new    ;}
	.st53{opacity:0.5;fill:url(#SVGID_47_);enable-background:new    ;}
	.st54{opacity:0.5;fill:url(#SVGID_48_);enable-background:new    ;}
	.st55{opacity:0.5;fill:url(#SVGID_49_);enable-background:new    ;}
	.st56{opacity:0.5;fill:url(#SVGID_50_);enable-background:new    ;}
	.st57{fill:url(#SVGID_51_);}
	.st58{fill:#EBEFFF;}
	.st59{opacity:0.5;fill:url(#SVGID_52_);enable-background:new    ;}
	.st60{opacity:0.3;fill:url(#SVGID_53_);enable-background:new    ;}
	.st61{opacity:0.5;fill:url(#SVGID_54_);enable-background:new    ;}
	.st62{opacity:0.5;fill:url(#SVGID_55_);enable-background:new    ;}
	.st63{opacity:0.5;fill:url(#SVGID_56_);enable-background:new    ;}
	.st64{opacity:0.5;fill:#7A4AC0;enable-background:new    ;}
	.st65{fill:url(#SVGID_57_);}
	.st66{fill:url(#SVGID_58_);}
	.st67{fill:url(#SVGID_59_);}
	.st68{opacity:0.6;fill:url(#SVGID_60_);enable-background:new    ;}
	.st69{fill:#38368E;}
	.st70{fill:url(#SVGID_61_);}
	.st71{fill:url(#SVGID_62_);}
	.st72{fill:#FFEBED;}
	.st73{fill:#7F9EC9;}
	.st74{fill:#131163;}
	.st75{fill:#C6659C;}
	.st76{fill:#CB5F7D;}
	.st77{fill:#9F4A8B;}
	.st78{fill:#FFBCAF;}
	.st79{opacity:0.6;fill:url(#SVGID_63_);enable-background:new    ;}
	.st80{fill:url(#SVGID_64_);}
	.st81{fill:#D2726C;}
	.st82{opacity:0.6;fill:url(#SVGID_65_);enable-background:new    ;}
	.st83{opacity:0.6;fill:url(#SVGID_66_);enable-background:new    ;}
	.st84{opacity:0.5;fill:url(#SVGID_67_);enable-background:new    ;}
	.st85{fill:url(#SVGID_68_);}
	.st86{fill:url(#SVGID_69_);}
	.st87{fill:url(#SVGID_70_);}
	.st88{opacity:0.8;fill:url(#SVGID_71_);enable-background:new    ;}
	.st89{opacity:0.8;fill:url(#SVGID_72_);enable-background:new    ;}
	.st90{fill:#34C7FF;}
	.st91{fill:url(#SVGID_73_);}
	.st92{fill:url(#SVGID_74_);}
	.st93{fill:url(#SVGID_75_);}
	.st94{clip-path:url(#SVGID_76_);}
	.st95{opacity:0.6;fill:#36D1F7;enable-background:new    ;}
	.st96{fill:#744CA2;}
	.st97{opacity:0.6;fill:url(#SVGID_77_);enable-background:new    ;}
	.st98{opacity:0.3;fill:url(#SVGID_78_);enable-background:new    ;}
	.st99{opacity:0.3;fill:url(#SVGID_79_);enable-background:new    ;}
	.st100{opacity:0.3;fill:url(#SVGID_80_);enable-background:new    ;}
	.st101{opacity:0.3;fill:url(#SVGID_81_);enable-background:new    ;}
	.st102{fill:#D1D4FB;}
	.st103{fill:#E0FFFF;}
	.st104{clip-path:url(#SVGID_82_);}
	.st105{fill:url(#SVGID_83_);}
	.st106{fill:url(#SVGID_84_);}
	.st107{clip-path:url(#SVGID_85_);}
	.st108{opacity:0.81;fill:url(#SVGID_86_);enable-background:new    ;}
	.st109{fill:#473DA2;}
	.st110{clip-path:url(#SVGID_87_);fill:url(#SVGID_88_);}
	.st111{clip-path:url(#SVGID_89_);fill:url(#SVGID_90_);}
	.st112{clip-path:url(#SVGID_91_);fill:url(#SVGID_92_);}
	.st113{clip-path:url(#SVGID_93_);fill:url(#SVGID_94_);}
	.st114{clip-path:url(#SVGID_95_);fill:url(#SVGID_96_);}
	.st115{clip-path:url(#SVGID_97_);fill:url(#SVGID_98_);}
	.st116{clip-path:url(#SVGID_99_);}
	.st117{opacity:0.73;fill:url(#SVGID_100_);enable-background:new    ;}
	.st118{fill:#953DA2;}
	.st119{clip-path:url(#SVGID_101_);}
	.st120{opacity:0.73;fill:url(#SVGID_102_);enable-background:new    ;}
	.st121{clip-path:url(#SVGID_103_);}
	.st122{fill-rule:evenodd;clip-rule:evenodd;fill:url(#SVGID_104_);}
	.st123{fill-rule:evenodd;clip-rule:evenodd;fill:url(#SVGID_105_);}
	.st124{fill-rule:evenodd;clip-rule:evenodd;fill:url(#SVGID_106_);}
	.st125{opacity:0.5;fill-rule:evenodd;clip-rule:evenodd;fill:#601734;enable-background:new    ;}
	.st126{fill-rule:evenodd;clip-rule:evenodd;fill:#B3D9FF;}
	.st127{clip-path:url(#SVGID_107_);fill:#FF1D9C;}
	.st128{clip-path:url(#SVGID_108_);fill:#6877FF;}
	.st129{clip-path:url(#SVGID_109_);fill:#4F31E0;}
	.st130{clip-path:url(#SVGID_110_);fill:#4F31E0;}
	.st131{clip-path:url(#SVGID_111_);}
	.st132{fill-rule:evenodd;clip-rule:evenodd;fill:url(#SVGID_112_);}
	.st133{fill-rule:evenodd;clip-rule:evenodd;fill:url(#SVGID_113_);}
	.st134{clip-path:url(#SVGID_114_);}
	.st135{fill-rule:evenodd;clip-rule:evenodd;fill:url(#SVGID_115_);}
	.st136{fill-rule:evenodd;clip-rule:evenodd;fill:url(#SVGID_116_);}
	.st137{clip-path:url(#SVGID_117_);}
</style>
<g>
	<g>
		<defs>
			<rect id="SVGID_142_" x="3.8" y="52.5" width="393.3" height="276"/>
		</defs>
		<clipPath id="SVGID_1_">
			<use xlink:href="#SVGID_142_"  style="overflow:visible;"/>
		</clipPath>
		<rect x="3.8" y="52.5" class="st0" width="393.3" height="276"/>
	</g>
	<g>
		<defs>
			<rect id="SVGID_144_" x="3.8" y="52.5" width="393.3" height="276"/>
		</defs>
		<clipPath id="SVGID_2_">
			<use xlink:href="#SVGID_144_"  style="overflow:visible;"/>
		</clipPath>
		<g class="st1">
			<path class="st2" d="M300.1,193.7l-1.7,0.1l0-1.4h-0.1l-0.5,1.5l-2.4,0.1c-0.4,0-0.8,0-1.1-0.1c-0.3-0.1-0.6-0.3-0.8-0.5
				c-0.2-0.2-0.3-0.5-0.4-0.8c-0.1-0.3-0.1-0.6-0.2-1l0-1.3c0-0.4,0-0.7,0.1-1c0.1-0.3,0.2-0.6,0.4-0.8c0.2-0.2,0.4-0.4,0.7-0.5
				c0.3-0.1,0.7-0.2,1.1-0.2l4.4-0.1c0.2,0,0.2,0.1,0.2,0.2L300.1,193.7z M298.3,189.3C298.3,189.2,298.3,189.2,298.3,189.3
				c-0.1-0.1-0.1-0.1-0.1-0.1l-2.7,0.1c-0.3,0-0.5,0.1-0.7,0.2c-0.1,0.1-0.2,0.4-0.2,0.8l0,1c0,0.4,0.1,0.6,0.2,0.8
				c0.1,0.1,0.4,0.2,0.7,0.2l2.8-0.1L298.3,189.3z"/>
			<path class="st2" d="M290.2,191.6l-2.3,0.1l0-1.3l2.7-0.1l0-0.8c0,0,0-0.1,0-0.1c0,0,0,0-0.1,0l-3.3,0.1c-0.1,0-0.1,0-0.1,0.1
				l0,0.8h-0.1l-1.6-0.6l0-1.6c0-0.2,0.1-0.3,0.2-0.3l6.3-0.2c0.2,0,0.2,0.1,0.2,0.2l0.2,5.7c0,0.2-0.1,0.3-0.2,0.3l-6.5,0.2l0-1.6
				l4.9-0.2c0.1,0,0.1,0,0.1-0.1l-0.1-1.8h-0.1L290.2,191.6z"/>
			<path class="st2" d="M278,189.8l0-1.3c0-0.2,0.1-0.3,0.2-0.3l5.2-0.2c0.5,0,0.9,0.1,1.1,0.3c0.2,0.2,0.4,0.6,0.4,1l0,0.4
				c0,0.2,0,0.4-0.1,0.6c0,0.2-0.1,0.3-0.2,0.4c-0.1,0.1-0.2,0.2-0.4,0.3c-0.2,0.1-0.4,0.1-0.6,0.2l-3.5,0.6c-0.1,0-0.2,0-0.2,0.1
				c0,0,0,0.1,0,0.2l0,0.2c0,0.1,0,0.2,0.1,0.3c0,0.1,0.1,0.1,0.3,0.1l4.7-0.2l0,1.6l-5.2,0.2c-0.3,0-0.6,0-0.8-0.1
				c-0.2-0.1-0.4-0.2-0.5-0.3c-0.1-0.1-0.2-0.3-0.3-0.5c-0.1-0.2-0.1-0.4-0.1-0.7l0-0.5c0-0.2,0-0.4,0-0.6c0-0.2,0.1-0.3,0.2-0.4
				c0.1-0.1,0.2-0.2,0.4-0.3c0.2-0.1,0.4-0.1,0.6-0.2l3.6-0.6c0.1,0,0.2,0,0.2-0.1c0,0,0.1-0.1,0.1-0.2l0-0.2c0-0.1,0-0.2-0.1-0.2
				c0,0-0.1-0.1-0.2-0.1l-3.1,0.1c-0.1,0-0.1,0-0.1,0.1l0,0.7h-0.1L278,189.8z"/>
			<path class="st2" d="M275.7,194.5l-0.2-6.2l1.7-0.1l0.2,6.2L275.7,194.5z"/>
			<path class="st2" d="M269.6,193C269.6,193.1,269.6,193.1,269.6,193l2.9,0c0.3,0,0.5-0.1,0.7-0.2c0.1-0.2,0.2-0.4,0.2-0.8l0-1.1
				c0-0.2,0-0.3-0.1-0.5c0-0.1-0.1-0.2-0.2-0.3c-0.1-0.1-0.2-0.1-0.3-0.2c-0.1,0-0.2,0-0.4,0l-2.8,0.1c0,0-0.1,0-0.1,0.1l0,0.6h-0.1
				l-1.6-0.5l0-1.3c0-0.2,0.1-0.3,0.2-0.3l4.4-0.1c0.4,0,0.8,0,1.1,0.1c0.3,0.1,0.6,0.3,0.8,0.5c0.2,0.2,0.3,0.5,0.4,0.8
				c0.1,0.3,0.1,0.6,0.2,1l0,1.3c0,0.4,0,0.7-0.1,1s-0.2,0.6-0.4,0.8c-0.2,0.2-0.4,0.4-0.7,0.5c-0.3,0.1-0.7,0.2-1.1,0.2l-4.4,0.1
				c-0.1,0-0.2-0.1-0.2-0.2l-0.1-3l1.6-0.1v0.1c0,0.1,0,0.2,0,0.3c0,0.1,0,0.2,0,0.3L269.6,193z"/>
			<path class="st2" d="M266.9,188.6c0.2,0,0.2,0.1,0.2,0.2l0.2,5.9l-1.5,0l-0.1-4.6c0-0.1,0-0.1-0.1-0.1h-0.1c-0.1,0-0.1,0-0.2,0.1
				l-2.2,4.5c0,0.1-0.1,0.2-0.2,0.2c-0.1,0-0.1,0.1-0.2,0.1l-2.4,0.1c-0.2,0-0.2-0.1-0.2-0.2l-0.2-5.9l1.5,0l0.1,4.6
				c0,0.1,0,0.1,0.1,0.1h0.1c0.1,0,0.1,0,0.2-0.1l2.1-4.5c0-0.1,0.1-0.2,0.1-0.2c0.1,0,0.1-0.1,0.3-0.1L266.9,188.6z"/>
		</g>
	</g>
	<g>
		<defs>
			<polygon id="SVGID_146_" points="440.2,155.9 162.1,448.7 -23.3,253.5 254.8,-39.3 			"/>
		</defs>
		<clipPath id="SVGID_3_">
			<use xlink:href="#SVGID_146_"  style="overflow:visible;"/>
		</clipPath>
		<ellipse class="st3" cx="220.7" cy="187.4" rx="101.6" ry="107"/>
	</g>
	<g>
		<defs>
			<rect id="SVGID_148_" x="3.8" y="52.5" width="393.3" height="276"/>
		</defs>
		<clipPath id="SVGID_4_">
			<use xlink:href="#SVGID_148_"  style="overflow:visible;"/>
		</clipPath>
		<g class="st4">
			
				<linearGradient id="SVGID_5_" gradientUnits="userSpaceOnUse" x1="-298.241" y1="215.1548" x2="-298.241" y2="263.9121" gradientTransform="matrix(-0.906 -0.4233 0.4233 -0.906 -75.1108 289.1464)">
				<stop  offset="0" style="stop-color:#DBCCFF"/>
				<stop  offset="1" style="stop-color:#D1BBFF"/>
			</linearGradient>
			<path class="st5" d="M294.6,182.3c-0.2,1,0.3,2.9,2.4,5.2l-8.7,22.3c-1.7,0.3-3.3,1.5-4.1,3.3c-1.3,2.9-0.1,6.4,2.7,7.8
				c2.8,1.4,6.1,0.1,7.4-2.8c0.8-1.8,0.6-3.8-0.2-5.4l10.6-21.3c3.1,0.2,4.7-0.7,5.3-1.4c0.1-0.1,0.8-1.7,0.8-1.7
				c1.7-4.9,0.2-9.7,0.2-9.7l-1.5-0.8l-2.6,7.1c-2.1,1.3-4.2,0.8-4.2,0.8l0,0c0,0-1.7-1.4-2.1-3.9l3.5-6.6l-1.5-0.8
				c0,0-4.4,1.9-6.9,6.4C295.4,180.6,294.7,182.1,294.6,182.3z M286.4,214.1l2.5-1.9l2.8,1.4l0.3,3.3l-2.5,1.9l-2.8-1.4L286.4,214.1
				z"/>
			
				<linearGradient id="SVGID_6_" gradientUnits="userSpaceOnUse" x1="-298.2464" y1="213.252" x2="-298.2464" y2="262.0065" gradientTransform="matrix(-0.906 -0.4233 0.4233 -0.906 -75.1108 289.1464)">
				<stop  offset="0" style="stop-color:#B5A6E7"/>
				<stop  offset="1" style="stop-color:#7760BF"/>
			</linearGradient>
			<path class="st6" d="M296.2,189.2l-8.7,22.3c-1.7,0.3-3.3,1.5-4.1,3.3c-1.3,2.9-0.1,6.4,2.7,7.8c2.8,1.4,6.1,0.1,7.4-2.8
				c0.8-1.8,0.6-3.8-0.2-5.4l10.6-21.3c3.7,0.2,6-3.2,6-3.2c1.7-4.9,0.2-9.7,0.2-9.7l-1.5-0.8l-2.6,7.1c-2.1,1.3-4.2,0.8-4.2,0.8
				l0,0c0,0-1.7-1.4-2.1-3.9l3.5-6.6l-1.5-0.8c0,0-4.4,1.9-6.9,6.4C294.6,182.3,293.7,186.4,296.2,189.2z M285.6,215.8l2.5-1.9
				l2.8,1.4l0.3,3.3l-2.5,1.9l-2.8-1.4L285.6,215.8z"/>
			<polygon class="st7" points="308.6,179.4 309.4,177.6 310.9,178.4 310.1,180.1 			"/>
			<polygon class="st7" points="301.5,175.9 302.3,174.2 303.9,174.9 303.1,176.7 			"/>
			<polygon class="st7" points="285.9,219.1 286.7,217.4 289.5,218.7 288.7,220.5 			"/>
			<g>
				
					<linearGradient id="SVGID_7_" gradientUnits="userSpaceOnUse" x1="-298.4126" y1="225.3563" x2="-298.4126" y2="245.8816" gradientTransform="matrix(-0.906 -0.4233 0.4233 -0.906 -75.1108 289.1464)">
					<stop  offset="0" style="stop-color:#B5A6E7"/>
					<stop  offset="1" style="stop-color:#7760BF"/>
				</linearGradient>
				<path class="st8" d="M296.5,192.1l-7,18.1c0,0,1.2,1.8,3.5,1.7l8.6-17.4C301.6,194.5,299.7,191.9,296.5,192.1z M296.9,192.4
					c0.7,0.1,1.4,0.3,2.1,0.7c0.9,0.5,1.6,1,2.1,1.4l-8.6,17c-0.4-0.1-0.8-0.2-1.2-0.4c-0.5-0.2-0.9-0.5-1.1-0.8L296.9,192.4z"/>
				<path class="st7" d="M290.2,210.3l-0.7-0.1c0,0,1,1.8,3.5,1.7l-0.5-0.4C292.5,211.5,291.3,211.3,290.2,210.3z"/>
				
					<linearGradient id="SVGID_8_" gradientUnits="userSpaceOnUse" x1="-301.2319" y1="245.4469" x2="-295.6021" y2="245.4469" gradientTransform="matrix(-0.906 -0.4233 0.4233 -0.906 -75.1108 289.1464)">
					<stop  offset="0" style="stop-color:#8B8BE0"/>
					<stop  offset="1" style="stop-color:#A177B7"/>
				</linearGradient>
				<path class="st9" d="M301.6,194.5l-0.5-0.1c0,0-1.5-1.6-4.2-2.1l-0.4-0.3c0,0,1.1-0.2,2.8,0.6
					C301,193.5,301.6,194.5,301.6,194.5z"/>
			</g>
			
				<linearGradient id="SVGID_9_" gradientUnits="userSpaceOnUse" x1="-298.3657" y1="244.0343" x2="-298.3657" y2="247.7149" gradientTransform="matrix(-0.906 -0.4233 0.4233 -0.906 -75.1108 289.1464)">
				<stop  offset="0" style="stop-color:#FFFFFF"/>
				<stop  offset="1" style="stop-color:#A177B7"/>
			</linearGradient>
			<path class="st10" d="M303.9,193c0,0-4.1-0.8-7.6-3.7l-1.1,2.8c0,0,1.3-1.3,4-0.1c3.2,1.4,3.1,4.1,3.1,4.1L303.9,193z"/>
			
				<linearGradient id="SVGID_10_" gradientUnits="userSpaceOnUse" x1="-295.6537" y1="223.2951" x2="-295.6537" y2="245.9401" gradientTransform="matrix(-0.906 -0.4233 0.4233 -0.906 -75.1108 289.1464)">
				<stop  offset="0" style="stop-color:#000000"/>
				<stop  offset="1" style="stop-color:#FFFFFF"/>
			</linearGradient>
			<path class="st11" d="M295.1,192.1c0.8-0.6,1.7-0.6,1.7-0.6l-8.3,21.1l-1-1.1L295.1,192.1z"/>
			<path class="st12" d="M295.1,192.1c0,0,0.9,2.8-1.6,4.2L295.1,192.1z"/>
		</g>
	</g>
	<g>
		<defs>
			<rect id="SVGID_156_" x="3.8" y="52.5" width="393.3" height="276"/>
		</defs>
		<clipPath id="SVGID_11_">
			<use xlink:href="#SVGID_156_"  style="overflow:visible;"/>
		</clipPath>
		<g class="st13">
			<g>
				
					<linearGradient id="SVGID_12_" gradientUnits="userSpaceOnUse" x1="-111.3342" y1="73.4925" x2="-111.3342" y2="135.0504" gradientTransform="matrix(-1 0 0 -1 102 402)">
					<stop  offset="0" style="stop-color:#6456C0"/>
					<stop  offset="1" style="stop-color:#5F2C95"/>
				</linearGradient>
				<path class="st14" d="M170.1,328.5h30.8c3.2-18.9,10.7-43.4,10.7-43.4c1.8-1.1,5.4,0.3,5.4,0.3l11.3,43.1h28.1
					c1.5-26.6-12.3-56.8-12.3-56.8l0,0c0-0.1,0.5-1,0.4-1.6c0-0.3-0.5-0.8-1-1.3c-0.8-0.7-1.7-1.5-1.7-1.5l-52.5-0.3
					c0,0-0.5,0.3-1.2,0.7h0c-1.1,0.7-2.7,1.9-2.7,2.7c0,1.1,0.4,1.9,0.5,2l0,0C174.6,294.8,170.1,328.5,170.1,328.5z"/>
				
					<radialGradient id="SVGID_13_" cx="-135.2271" cy="131.6391" r="27.0268" gradientTransform="matrix(-0.4235 0.1029 -0.2525 -1.1521 217.7632 471.9463)" gradientUnits="userSpaceOnUse">
					<stop  offset="0" style="stop-color:#4B474B"/>
					<stop  offset="1" style="stop-color:#000000"/>
				</radialGradient>
				<path class="st15" d="M230.4,309.2c3.8,17.2,11.9,29.9,18.3,28.4c6.3-1.5,8.4-16.7,4.6-33.9c-3.8-17.2-11.9-29.9-18.3-28.4
					C228.7,276.8,226.6,291.9,230.4,309.2z"/>
				
					<radialGradient id="SVGID_14_" cx="-188.5175" cy="187.9703" r="27.0281" gradientTransform="matrix(-0.4186 -0.1235 0.303 -1.1385 51.4113 496.774)" gradientUnits="userSpaceOnUse">
					<stop  offset="0" style="stop-color:#4B474B"/>
					<stop  offset="1" style="stop-color:#000000"/>
				</radialGradient>
				<path class="st16" d="M176,302.7c-4.5,17-3.1,32.3,3.1,34.1c6.2,1.8,15-10.4,19.5-27.4c4.5-17,3.1-32.3-3.1-34.1
					C189.2,273.4,180.5,285.7,176,302.7z"/>
				<g>
					
						<linearGradient id="SVGID_15_" gradientUnits="userSpaceOnUse" x1="-130.2558" y1="95.1009" x2="-114.9186" y2="95.1009" gradientTransform="matrix(-1 0 0 -1 102 402)">
						<stop  offset="0" style="stop-color:#9E8CEF"/>
						<stop  offset="1" style="stop-color:#CAAFEE"/>
					</linearGradient>
					<path class="st17" d="M231.9,328.5l0.3-0.1c-3.6-22.2-12.7-40.9-12.8-41l0,0l-2.3-2.1l-0.2,0.3l2.3,2.1
						C219.6,288.5,228.4,306.8,231.9,328.5z"/>
				</g>
				<g>
					
						<linearGradient id="SVGID_16_" gradientUnits="userSpaceOnUse" x1="244.0518" y1="95.1044" x2="259.389" y2="95.1044" gradientTransform="matrix(1 0 0 -1 -47.6286 402)">
						<stop  offset="0" style="stop-color:#9E8CEF"/>
						<stop  offset="1" style="stop-color:#CAAFEE"/>
					</linearGradient>
					<path class="st18" d="M196.7,328.5c3.5-21.8,12.6-40.3,13-41.1l2.1-1.9l-0.2-0.3l-2.1,2c-0.1,0.2-9.4,19-13,41.2L196.7,328.5z"
						/>
				</g>
				
					<linearGradient id="SVGID_17_" gradientUnits="userSpaceOnUse" x1="-113.3915" y1="73.4925" x2="-113.3915" y2="135.0504" gradientTransform="matrix(-1 0 0 -1 102 402)">
					<stop  offset="0" style="stop-color:#CCCCFF"/>
					<stop  offset="1" style="stop-color:#755CBB"/>
				</linearGradient>
				<path class="st19" d="M185.3,270.4c0,1.1,0.4,1.9,0.5,2l0,0c10.9,2.6,19.3,13.3,19.3,13.3c-6,12-15.9,42.7-15.9,42.7h11.7
					c3.2-18.9,10.7-43.4,10.7-43.4c1.8-1.1,5.4,0.3,5.4,0.3l11.3,43.1h7.3c-2.6-18.1-10.3-40.1-10.3-40.1
					c7.6-9.3,18.8-16.7,18.8-16.7l0,0l1.3-0.9l-1-0.8c-4.9,4.9-20.6,11.3-21.1,11.5l20-12.8c-0.8-0.7-1.7-1.5-1.7-1.5l-52.5-0.3
					c0,0-0.5,0.3-1.2,0.7l14.3,8.3L185.3,270.4z"/>
				
					<linearGradient id="SVGID_18_" gradientUnits="userSpaceOnUse" x1="-106.5848" y1="104.2749" x2="-106.5848" y2="121.0634" gradientTransform="matrix(-1 0 0 -1 102 402)">
					<stop  offset="0" style="stop-color:#CCCCFF"/>
					<stop  offset="1" style="stop-color:#755CBB"/>
				</linearGradient>
				<polygon class="st20" points="211.6,285.1 205.5,280.9 207,285.1 208,297.7 				"/>
				
					<linearGradient id="SVGID_19_" gradientUnits="userSpaceOnUse" x1="-125.0549" y1="110.4438" x2="-125.0549" y2="126.8942" gradientTransform="matrix(-1 0 0 -1 102 402)">
					<stop  offset="0" style="stop-color:#CCCCFF"/>
					<stop  offset="1" style="stop-color:#755CBB"/>
				</linearGradient>
				<polygon class="st21" points="217,285.4 223.4,281.6 237.1,275.1 219.7,287.2 218.6,291.6 				"/>
			</g>
			<path class="st22" d="M199.5,155.8c0,0.3-0.1,0.5-0.1,0.5c0.3,1.4,0.7,2.7,1.1,3.9c1.3,3.9,2.9,6.6,4.1,8.4
				c1,1.5,1.8,2.2,1.8,2.2c9.6-3.2,14.3-13,16.1-17.9c0,0,0,0,0-0.1c0.3-0.9,0.6-1.7,0.7-2.2c0,0,0,0,0,0c0.1-0.4,0.2-0.6,0.2-0.6
				c0-0.1-0.1-0.2-0.1-0.3l0,0c-0.2-0.3-0.3-0.7-0.5-1c-1.3-2.9-2.1-5.6-2.6-7.7c-0.5-1.8-0.7-3.2-0.8-3.9c-0.1-0.4-0.1-0.6-0.1-0.6
				l-4.5,2.5l-15.4,8.6c0.2,1.5,0.3,2.9,0.3,4.1c0,0.9,0,1.6-0.1,2.3c0,0.8-0.1,1.4-0.2,1.8v0C199.5,155.7,199.5,155.7,199.5,155.8z
				"/>
			
				<linearGradient id="SVGID_20_" gradientUnits="userSpaceOnUse" x1="-109.2084" y1="227.7496" x2="-109.2084" y2="252.3217" gradientTransform="matrix(-1 0 0 -1 102 402)">
				<stop  offset="0" style="stop-color:#D5CDF8"/>
				<stop  offset="1" style="stop-color:#F3EDFB"/>
			</linearGradient>
			<path class="st23" d="M203.7,171.8c0.9,0.9,1.9,1.8,3.2,2.4c0,0,0.1,0,0.1,0c0,0,0,0,0.1-0.1l0,0c0.3-0.2,1.5-1,3-2.2
				c4-3.2,10.7-9.6,12.6-18.3c0,0,0,0,0,0c0.2-1,0.4-2.1,0.5-3.2c0,0,0,0,0,0c0-0.3,0-0.6,0-0.9c0,0-1.3,3.3-3.6,6.8
				c-2.7,4.2-6.8,8.7-11.6,8.8c-4.2,0-6.4-3-7.5-5.8c-0.5-1.2-0.7-2.3-0.9-3.2c0,0,0,0,0,0c0-0.2-0.1-0.5-0.1-0.7v0
				c0-0.1,0-0.2,0-0.3c0-0.3-0.1-0.5-0.1-0.5S197.8,165.5,203.7,171.8z"/>
			
				<linearGradient id="SVGID_21_" gradientUnits="userSpaceOnUse" x1="-121.2239" y1="240.0598" x2="-97.1929" y2="240.0598" gradientTransform="matrix(-1 0 0 -1 102 402)">
				<stop  offset="0" style="stop-color:#CCCCFF"/>
				<stop  offset="1" style="stop-color:#755CBB"/>
			</linearGradient>
			<path class="st24" d="M203.7,171.8c0.9,0.9,1.9,1.8,3.2,2.4h0.1l0.1,0l0,0c0.3-0.2,1.5-1,3-2.2c4-3.2,10.7-9.6,12.6-18.3
				c0,0,0,0,0,0c0.2-1,0.4-2.1,0.5-3.2c0,0,0,0,0,0c0-0.3,0-0.6,0-0.9c0,0-1.3,3.3-3.6,6.8c0,0-2.6,7.7-8.4,11.5
				c-2.9,1.9-5,1.6-6.6,0.5c-1.6-1.1-2.6-3-3.2-4.5c-0.6-1.5-0.8-2.8-0.8-3.9c0-0.2,0-0.4,0-0.6c-0.5-1.2-0.7-2.3-0.9-3.2
				c0,0,0,0,0,0c0-0.2-0.1-0.5-0.1-0.7v0c0-0.1,0-0.2,0-0.3c0-0.3-0.1-0.5-0.1-0.5S197.8,165.5,203.7,171.8z"/>
			
				<linearGradient id="SVGID_22_" gradientUnits="userSpaceOnUse" x1="-116.0799" y1="129.5721" x2="-116.0799" y2="253.3913" gradientTransform="matrix(-1 0 0 -1 102 402)">
				<stop  offset="0" style="stop-color:#9E8CEF"/>
				<stop  offset="1" style="stop-color:#CAAFEE"/>
			</linearGradient>
			<path class="st25" d="M166.9,234.3c0.1,0,0.1,0.1,0.1,0.1c0.5,0.1,2.2-0.3,4.4-2.3l0,0c0,0,0,0,0,0c0,0,0,0,0,0
				c1.8-1.7,4-4.5,6.2-9.1c4.4-9.2,5.6-15.4,5.9-16.5l0-0.2l2.6,4.3c1.7,5.5,5,28.3,5,29.2c-0.1,1-2.9,5.8-2.9,6.3c0,0,0,0,0,0
				c0.1,0.6,1.4,1.9,1.7,3.3c0.2,0.9-1.5,3.9-2.7,6.2v0c-0.6,1.2-1.1,2.1-1.1,2.5c0,1,3.1,6.1,3.1,6.1v2.7l0,0l0.1,0.1l0.1,0.1
				c1.2,1,6.2,4.2,21.8,5.1c18.5,1,30.9-5.2,30.9-5.2l-0.9-2.7c0,0,0.9-0.8,0.9-1.2c0.1-0.4-0.7-1.3-0.7-1.3s1.9-1,1.9-2.4
				c0-1.3-3.7-5.4-3.6-8.8c0.1-3.5,3-6.5,3.4-8.5c0.4-2-4.8-6.8-4.8-6.8c4.5-14.9,5.3-34.9,5.3-34.9l0.9-1c0,0,5.3,12.8,10.2,19.1
				c0.6,0.7,1.2,1.5,1.8,2.2c1.4,1.5,2.8,3,4.2,4.2c3.4,3.1,6.4,5.1,7.2,4.9c1.2-0.3,6.2-10.6,6-21.2c-0.1-5-3-10.7-6-15.2
				c-0.3-0.5-0.6-1-1-1.4c-2.1-3-4.2-5.4-5.1-6.5c-0.4-0.4-0.6-0.7-0.6-0.7s0.7-2.3,1.1-4.3c0,0,0-0.1,0-0.1c0,0,0,0,0-0.1
				c0,0,0,0,0,0c0.3-1.2,0.4-2.3,0.3-2.6c-0.4-0.7-2.8-1.5-3.2-2c-0.4-0.5-2.1-9.3-3.5-10.3c-1.3-0.9-3.5-1.6-11-4.7
				c-0.4-0.2-0.7-0.3-1.1-0.5c-8.4-3.5-16.6-7.7-16.6-7.7l-3.1-4.1h-1.4l0.5,1l0,0c-0.2,1-0.5,2.1-0.8,3c0,0,0,0.1,0,0.1
				c-4.3,14.4-15.5,19-15.5,19c-7.7-6-7.6-15.6-7.6-15.6v-1.3l-1.4,0.5l-1,2.5c0,0-1.7,2.7-8.3,5.8c-1.1,0.5-2.4,1.2-3.7,2
				c-6.1,3.6-12.8,9.3-13.4,10.5c-0.1,0.1-0.1,0.3-0.2,0.6v0c-0.7,3-2.2,14-3.5,18c-0.9,2.5-2.2,3.8-3.2,4.5c0,0,0,0,0,0
				c-0.7,0.5-1.3,0.7-1.3,0.7c-0.1,0.6-0.2,1.2-0.3,1.8C160.3,220.6,165.7,233.4,166.9,234.3z"/>
			
				<linearGradient id="SVGID_23_" gradientUnits="userSpaceOnUse" x1="-164.8888" y1="206.7277" x2="-136.2464" y2="206.7277" gradientTransform="matrix(-1 0 0 -1 102 402)">
				<stop  offset="0" style="stop-color:#CCCCFF"/>
				<stop  offset="1" style="stop-color:#755CBB"/>
			</linearGradient>
			<path class="st26" d="M238.2,198.6l5.4,1.9l0.9-1c0,0,5.3,12.8,10.2,19.1c0.6,0.7,1.2,1.5,1.8,2.2c1.4,1.5,2.8,3,4.2,4.2
				l4.1-18.7l2.1-14.2c-2.1-3-4.2-5.4-5.1-6.5c-0.4-0.4-0.6-0.7-0.6-0.7s0.7-2.3,1.1-4.3c0,0,0-0.1,0-0.1c0,0,0,0,0-0.1c0,0,0,0,0,0
				c0.3-1.2,0.4-2.3,0.3-2.6c-0.4-0.7-2.8-1.5-3.2-2c-0.4-0.5-2.1-9.3-3.5-10.3c0,0,0.9,8.5-3.7,19.2L250,188l-6.5,5.5
				C243.4,193.6,241,197,238.2,198.6z"/>
			
				<linearGradient id="SVGID_24_" gradientUnits="userSpaceOnUse" x1="-165.7747" y1="172.05" x2="-165.7747" y2="229.9508" gradientTransform="matrix(-1 0 0 -1 102 402)">
				<stop  offset="0" style="stop-color:#9E8CEF"/>
				<stop  offset="1" style="stop-color:#DAC7F3"/>
			</linearGradient>
			<path class="st27" d="M253.9,213.9c1.2,9.1,14,16,14,16c2.9,0,6-5.2,8.9-11.7c2.9-6.5,3.1-25,3.2-26.1c0.2-1.1,1.8-3.4,1.9-4.4
				c0.1-1-2.6-3-2.6-3l0,0l0,0c0.3-0.6,1.9-4.2,1.8-4.9c-0.1-0.7-3.2-2.3-3.2-2.3l-0.2,3.5c0,0-7.1-1.4-9.5-7.2l-0.4-1.8l-1.2,0.8
				v7.6c0,0-0.2,1.2-0.6,1.2c-0.4,0-3.1-1.4-3.7-1.2c-0.6,0.2-1.2,4.3-1.9,4.8c-0.8,0.5-2.8,2-3.1,2.7c-0.1,0.3-0.2,1.5-0.2,2.9
				c0,1.7,0,3.7-0.3,4.8C256.4,197.6,252.7,204.8,253.9,213.9z"/>
			
				<linearGradient id="SVGID_25_" gradientUnits="userSpaceOnUse" x1="-71.2011" y1="188.7378" x2="-34.2967" y2="188.7378" gradientTransform="matrix(-1 0 0 -1 102 402)">
				<stop  offset="0" style="stop-color:#A999F1"/>
				<stop  offset="1" style="stop-color:#DAC7F3"/>
			</linearGradient>
			<path class="st28" d="M136.6,206.2c0.6,1,3.5,3,4.2,3.8c0.7,0.8,0,3.4,0,3.4c12.2,13.6,24.9,20.4,26.1,21.1
				c0.1,0,0.1,0.1,0.1,0.1c7.6-5.4,7-14.3,4.5-21.8c-2.4-7.2-6.6-13.1-6.8-13.4l0,0c0,0,0,0,0,0c-0.1-0.1-2.3-1-3.9-1.1
				c-0.5,0-1,0.2-1.4,0.5c-0.9,0.6-1.7,1.6-2.5,1.2c-1.1-0.6-3.6-6.8-5.3-7c-1.2-0.1-2.8,1.2-3.9,1.9c-0.5,0.3-0.9,0.5-1,0.5
				c-0.6-0.2-2.7-2.8-2.9-2.9c-0.2-0.1-1.1,0.7-1.1,0.7l0.7,0.9c-1,6.3-4.4,10.5-4.4,10.5l-2.3-3.5
				C136.6,200.7,136,205.2,136.6,206.2z"/>
			<path class="st29" d="M199.4,155.5c0,0.1,0,0.2,0,0.3c0,0.2,0.1,0.4,0.1,0.6c0,0,0,0,0,0c0.8,3,3.9,6.2,7.9,4.7
				c4.3-1.6,12.6-20.1,12.6-20.1l-0.8-3.9l-19.6,16.8L199.4,155.5L199.4,155.5z"/>
			<g>
				<path class="st30" d="M264.8,152.1c0,0,1.2-7,0.7-12.1c-0.5-5.1,0.1-11,0.1-11s1.2-0.5,2.1,0c0.9,0.5,2.9,5.8,2,10.1
					c-0.9,4.3-0.2,14.5-0.2,14.5h1.4l3-4.3l1.4-0.4c0,0,8.3,8.3,8.2,13.2l-1.1,4.4l-10.3-0.4l-6.7-8.1L264.8,152.1z"/>
				
					<linearGradient id="SVGID_26_" gradientUnits="userSpaceOnUse" x1="-177.7878" y1="237.8565" x2="-177.7878" y2="253.1156" gradientTransform="matrix(-1 0 0 -1 102 402)">
					<stop  offset="1.600000e-02" style="stop-color:#FFC2A9"/>
					<stop  offset="1" style="stop-color:#FF9595"/>
				</linearGradient>
				<path class="st31" d="M275.2,148.9c0,0-0.2,5.5-1.4,10.2c0,0,0.2,1.9,2.3,2.1l0.5-0.6c0,0,0.4,2.2,2.3,2.4l1.8-1.9l-0.5,1.6
					c0,0,0.6,1.7,2.4,1.6c0,0,2.9-2.4,3-5.4l-2.8-2.5v-1.9l-3.4-2.5l-0.1-1.4C279.5,150.4,277.5,148.9,275.2,148.9z"/>
				
					<linearGradient id="SVGID_27_" gradientUnits="userSpaceOnUse" x1="-168.6379" y1="238.2105" x2="-168.6379" y2="263.4795" gradientTransform="matrix(-1 0 0 -1 102 402)">
					<stop  offset="0" style="stop-color:#FFEADB"/>
					<stop  offset="0.9944" style="stop-color:#C27CB6"/>
				</linearGradient>
				<path class="st32" d="M265.3,138.5c0,0,0.5,1.3,1.2,1.9c0.7,0.5,2.8,0.9,2.8,0.9l0.1,12.3h1.4l3-4.3c0,0-1.5,2.5-1.6,4.3
					l1.2,0.6l1-3.7l0.5,2.7l-0.5,3.3c0,0-1.8-1.6-5-1.7l-0.5,0.9c0,0,5.8,5,7.1,8c0,0-2.9-3.8-9.4-8l-0.6-2l-0.8-4.8
					C265.2,148.9,266,141.9,265.3,138.5z"/>
				
					<linearGradient id="SVGID_28_" gradientUnits="userSpaceOnUse" x1="-169.4265" y1="221.0148" x2="-169.4265" y2="259.9742" gradientTransform="matrix(-1 0 0 -1 102 402)">
					<stop  offset="1.600000e-02" style="stop-color:#FFC2A9"/>
					<stop  offset="1" style="stop-color:#FF9595"/>
				</linearGradient>
				<path class="st33" d="M260.5,160c0.5,1.7,6.2,8.8,6.8,10.3c0.6,1.5,1,3.5,1,3.5c2.8,6.3,9.5,7.2,9.5,7.2l0.3-5.7
					c0,0,3.6-2.2,4.2-3.4l0,0l0.1-0.2c0.2-1.1,0-5.2,0-5.2l-6.3-2.7c-2.7-3.7-9.4-8-9.4-8l-0.3-2c4.8-2.5,4-9.9,3.2-10.9
					c-0.8-0.9-2.3-0.9-2.3-0.9s-1.7,6-2.9,8.8C263.3,153.7,260,158.3,260.5,160z"/>
				<path class="st34" d="M279.5,150.4c0,0-0.7,6.9-2.8,10.1c0,0,2.6-3.4,2.8-8.7L279.5,150.4z"/>
				<path class="st34" d="M282.9,154.3c0,0-0.7,5.5-3.9,8.6c0,0,2.9-1.5,3.9-6.7V154.3z"/>
				
					<linearGradient id="SVGID_29_" gradientUnits="userSpaceOnUse" x1="-176.0443" y1="227.094" x2="-164.4104" y2="227.094" gradientTransform="matrix(-1 0 0 -1 102 402)">
					<stop  offset="1.600000e-02" style="stop-color:#D1A1D6"/>
					<stop  offset="0.9944" style="stop-color:#BD89C4"/>
				</linearGradient>
				<path class="st35" d="M266.4,168.8c0,0,7.1,7.3,11.6,6.5l-0.3,5.7c0,0-7.5-0.7-9.9-8.9C267.9,172,267,169.7,266.4,168.8z"/>
			</g>
			<g>
				
					<linearGradient id="SVGID_30_" gradientUnits="userSpaceOnUse" x1="-33.5361" y1="197.2846" x2="-33.5361" y2="249.383" gradientTransform="matrix(-1 0 0 -1 102 402)">
					<stop  offset="1.600000e-02" style="stop-color:#FFC2A9"/>
					<stop  offset="1" style="stop-color:#FF9595"/>
				</linearGradient>
				<path class="st36" d="M116.3,178.7c0,0,6.5,12.6,14.2,16.4h2.6l6,9.6c0,0,3.9-2.6,4.2-11c0,0-1.4-1.5-1.7-3.2
					c0,0,2.1-1.8,2.7-3.1c0.6-1.3,0.8-5.2,1.2-6.8c0.4-1.6,3.9-5,4.7-5.4s4.3-0.7,4.3-0.7s0.5-1.4,0-2c-0.5-0.7-6-2.9-9.1-0.7
					c0,0-0.2,1.7-0.5,2.5c-0.3,0.9-3,4-3.4,4s-2.2-1.6-3-2.8c-0.8-1.2-4.8-10.3-5.7-13.3c0,0,0-0.1,0-0.1c0,0,0-0.1,0-0.1
					c0,0,0-0.1,0-0.1c0,0,0,0,0,0c-0.7-2.7-5.1-7.8-7.4-9.1c0,0-1-0.3-1.5,1c0,0,1.9,5.6,3.8,8.9c0.3,0.6,0.7,1.2,1,1.9c0,0,0,0,0,0
					c1.7,3.2,3.5,7.4,3.8,8l0,0.1l-1,0.6l-2.8-2.8l-2.9-2.9l-6.6,7.3l0.6,0.9l2.1,2.8l-1,0.2l-2.4-2.8L116.3,178.7z"/>
				
					<linearGradient id="SVGID_31_" gradientUnits="userSpaceOnUse" x1="-27.6903" y1="213.9765" x2="-27.6903" y2="239.8597" gradientTransform="matrix(-1 0 0 -1 102 402)">
					<stop  offset="0" style="stop-color:#FFEADB"/>
					<stop  offset="0.9944" style="stop-color:#C27CB6"/>
				</linearGradient>
				<path class="st37" d="M117.8,181.4l2.1,3.2c0,0,11.4-9.3,13.9-10.1c2.5-0.8,3.4-0.3,3.4-0.3l2.6,3.4c0,0-4.7,4.4-5.1,10.3
					c0,0,1.6-7.5,6.9-9.8c-0.4,0-2.2-1.6-3-2.8c-0.8-1.2-4.8-10.3-5.7-13.3c0.1,0.5,0.3,1.5-0.1,2.4c-0.6,1.1-3.9,0.1-4.1,0
					c0,0,0,0,0,0l3.8,8l0,0.1l-1,0.6l-2.8-2.8l1.4,3.4l-10.2,1.9l2.1,2.8l-1,0.2L117.8,181.4z"/>
				
					<linearGradient id="SVGID_32_" gradientUnits="userSpaceOnUse" x1="-22.8401" y1="222.9193" x2="-22.8401" y2="234.5153" gradientTransform="matrix(-1 0 0 -1 102 402)">
					<stop  offset="0" style="stop-color:#FFB0B0"/>
					<stop  offset="0.984" style="stop-color:#FFC2A9"/>
				</linearGradient>
				<path class="st38" d="M125.8,167.5c0,0-2-0.3-3.3,2.4l0.3,0.9c0,0-1.9,0.4-3.8,3.7c0,0,1.7,3.2,5.8,4.6c0,0,1.9-0.6,2.2-2.3
					l-0.4-1.1l1.5,1.2c0,0,1.8,0.6,2.6-2.2L125.8,167.5z"/>
				
					<linearGradient id="SVGID_33_" gradientUnits="userSpaceOnUse" x1="-16.4487" y1="221.1252" x2="-16.4487" y2="227.4874" gradientTransform="matrix(-1 0 0 -1 102 402)">
					<stop  offset="0" style="stop-color:#FFB0B0"/>
					<stop  offset="0.984" style="stop-color:#FFC2A9"/>
				</linearGradient>
				<path class="st39" d="M115.7,177.8c0,0-0.4-2,1.6-3.3l3.9,4.6c0,0-0.1,1.5-1.8,1.8C119.4,180.9,116.7,179.9,115.7,177.8z"/>
				
					<linearGradient id="SVGID_34_" gradientUnits="userSpaceOnUse" x1="-42.2966" y1="208.4424" x2="-31.056" y2="208.4424" gradientTransform="matrix(-1 0 0 -1 102 402)">
					<stop  offset="1.600000e-02" style="stop-color:#D1A1D6"/>
					<stop  offset="0.9944" style="stop-color:#BD89C4"/>
				</linearGradient>
				<path class="st40" d="M144.3,187.4c0,0-4.6,5.4-11.2,7.7l2.9,4.6l6-8l-0.4-1.2C141.6,190.5,144,188.6,144.3,187.4z"/>
				<path class="st34" d="M122.8,170.8c0,0,1.9,3.3,3.8,5l0.4,1.1c0,0-3.7-2.6-5.1-5.7C121.9,171.2,122.4,170.8,122.8,170.8z"/>
			</g>
			
				<linearGradient id="SVGID_35_" gradientUnits="userSpaceOnUse" x1="-57.9399" y1="167.5985" x2="-57.9399" y2="225.9141" gradientTransform="matrix(-1 0 0 -1 102 402)">
				<stop  offset="0" style="stop-color:#CCCCFF"/>
				<stop  offset="1" style="stop-color:#755CBB"/>
			</linearGradient>
			<path class="st41" d="M136.6,206.2c0.6,1,3.5,3,4.2,3.8c0.7,0.8,0,3.4,0,3.4c12.2,13.6,24.9,20.4,26.1,21.1
				c0.1,0,0.1,0.1,0.1,0.1c1,0.1,5.8-1.3,10.7-11.5c4.4-9.2,5.6-15.4,5.9-16.5l0-0.2l-1.1-1.5l-1.6-18.8l-1.1,3.8
				c-4.2-5.4-8.2-13.6-8.2-13.6l-0.2,0.6v0c-0.7,3-2.2,14-3.5,18c-0.9,2.5-2.2,3.8-3.2,4.5l0,0l0,0c3.9,3.7,5.8,9.1,6.8,13.4
				c0.9,3.9,0.9,6.9,0.9,6.9s-1.1-5.3-4.5-11.7c-1.2-2.3-3-4.4-4.8-6.1c-1.3-1.3-2.7-2.4-3.7-3.2c-0.9,0.6-1.7,1.6-2.5,1.2
				c5.1,8.1,5,24.1,0.2,21c-4.8-3-5.9-9.5-5.9-9.5c1.1-7.9,0.8-16.8-0.1-18.5c-1.1,0-4.3,2.4-4.5,2.3c0.3,9.3-3.9,15.5-3.9,15.5
				l-2.7-4.5c4-7.1,3.7-13.9,3.7-13.9c-0.2-0.1-1.1,0.7-1.1,0.7l0.7,0.9c-1,6.3-4.4,10.5-4.4,10.5l-2.3-3.5
				C136.6,200.7,136,205.2,136.6,206.2z"/>
			
				<linearGradient id="SVGID_36_" gradientUnits="userSpaceOnUse" x1="-179.8982" y1="179.3474" x2="-87.2528" y2="179.3474" gradientTransform="matrix(-1 0 0 -1 102 402)">
				<stop  offset="0" style="stop-color:#CCCCFF"/>
				<stop  offset="1" style="stop-color:#755CBB"/>
			</linearGradient>
			<path class="st42" d="M189.3,264.2v2.7l0,0l0.1,0.1l0.1,0.1c1.2,1,6.2,4.2,21.8,5.1c18.5,1,30.9-5.2,30.9-5.2l-0.9-2.7
				c0,0,0.9-0.8,0.9-1.2c0.1-0.4-0.7-1.3-0.7-1.3s1.9-1,1.9-2.4c0-1.2-3-4.6-3.5-7.8c-0.1-0.3-0.1-0.7-0.1-1c0.1-3.5,3-6.5,3.3-8.5
				c0,0,0,0,0,0c0.4-2-4.8-6.8-4.8-6.8c4.5-14.9,5.3-34.9,5.3-34.9l0.9-1c0,0,5.3,12.8,10.2,19.1c4.8,6.3,11.9,11.6,13.2,11.4
				c2.9,0,6-5.2,8.9-11.7c2.9-6.5,3.1-25,3.2-26.1c0.2-1.1,1.8-3.4,1.9-4.4c-3.1,5.6-8.1,4-8.1,4c3.6,0.1,5.4-7,5.4-7l0,0l0,0
				l1.8-4.9c-0.2,0.2-4.3,5.1-8.3,2.1c-4.1-3-6.1-9-6.1-9v7.6c0,0-0.2,1.2-0.6,1.2c0.2,3.5,0.9,7.7,1.8,11.9
				c1.8,9.1,4.4,17.8,4.4,17.8s-6.8-3.9-9.2-13.9c-1.1-4.8-1.3-8.9-1.2-11.9c0.1-2.6,0.4-4.3,0.6-5c0,0,0-0.1,0-0.1c0,0,0,0,0-0.1
				c0,0,0,0,0,0l-0.7,1.5l-1.3,3.3c-1.5,12.8,1.6,32,1.6,32c-4.4-5.8-5.3-18.5-5.1-21.6c0.1-1.5,0.2-3.3,0.3-4.8
				c0.1-1.6,0.2-2.9,0.2-2.9l-9,5.6l1.7-5.5l-6.5,5.5c0,0-5.9,7.5-11.9,8.3c-6,0.9-28.2,0.4-28.2,0.4s19.3,1.3,24.9,3
				c5.6,1.7,6.7,3.7,6.7,3.7c-4.1,21.8-26.6,29.1-27.3,29.4c20.4-3.2,29.9-21.5,29.9-21.5s0.3,10.3-1.2,14.2
				c-1.6,3.9-10.8,13.5-22.8,15.5c-1,0.2-2,0.3-3,0.3c-10.1,0.5-18.4-4.9-19.2-5.5c0,0-0.1,0-0.1,0s0,0,0,0
				c0.3,0.5,4.4,6.6,21.1,7.3c1,0,2,0,2.9,0c0,0,0,0,0,0c15.4-0.7,23.3-11.5,23.3-11.5s5.7,3.2,2.1,8c0,0-0.1,0.1-0.1,0.2
				c-1.1,1.3-3.4,2.9-6.2,4.5c-0.1,0-0.2,0.1-0.2,0.1c-3.4,2-7.3,4-10.4,5.7c0,0,0,0,0,0c-1.9,1-3.4,1.9-4.3,2.6c0,0,0,0,0,0
				c-0.9,0.7-1,1.1-0.2,1.2c4.3,0.5,20.6-3.2,21.3-2.2c0.7,1-0.8,3.7-0.8,3.7c-15,7.8-47,4-48,3.8c26.8,7.2,48.7-1.9,48.7-1.9
				l-0.7,2.7c0,0-11.9,4.4-26,4.7c-14.1,0.3-22.9-3.4-22.9-3.4L189.3,264.2z"/>
			
				<linearGradient id="SVGID_37_" gradientUnits="userSpaceOnUse" x1="-98.2182" y1="195.6699" x2="-80.5084" y2="195.6699" gradientTransform="matrix(-1 0 0 -1 102 402)">
				<stop  offset="0" style="stop-color:#CCEDFF"/>
				<stop  offset="1" style="stop-color:#755CBB"/>
			</linearGradient>
			<path class="st43" d="M200.2,202.1c0,0-10.7,0.6-17.7,2.6l3.6,5.8C186.1,210.5,191.6,205.5,200.2,202.1z"/>
			
				<linearGradient id="SVGID_38_" gradientUnits="userSpaceOnUse" x1="-114.2828" y1="162.9535" x2="-88.2556" y2="162.9535" gradientTransform="matrix(-1 0 0 -1 102 402)">
				<stop  offset="0" style="stop-color:#CCEDFF"/>
				<stop  offset="1" style="stop-color:#755CBB"/>
			</linearGradient>
			<path class="st44" d="M190.3,233.1c0,0,6.7,5.8,13.2,8.5c6.5,2.7,12.8,3,12.8,3s-3.8,1.2-13-0.4c-9.3-1.6-12.4-6.8-12.4-6.8
				L190.3,233.1z"/>
			
				<linearGradient id="SVGID_39_" gradientUnits="userSpaceOnUse" x1="-113.0777" y1="150.5626" x2="-85.2734" y2="150.5626" gradientTransform="matrix(-1 0 0 -1 102 402)">
				<stop  offset="0" style="stop-color:#CCEDFF"/>
				<stop  offset="1" style="stop-color:#755CBB"/>
			</linearGradient>
			<path class="st45" d="M187.3,255.6L187.3,255.6c12.3,3.4,27.9-1.4,27.8-2c-0.1-0.6-4.3,0.3-13.9-1.8c-9.3-2-12.7-5.5-12.9-5.7
				c0.1,0.6,1.4,1.9,1.7,3.3C190.2,250.4,188.5,253.4,187.3,255.6z"/>
			
				<linearGradient id="SVGID_40_" gradientUnits="userSpaceOnUse" x1="-137.0067" y1="181.2344" x2="-137.0067" y2="214.0869" gradientTransform="matrix(-1 0 0 -1 102 402)">
				<stop  offset="0" style="stop-color:#CCEDFF"/>
				<stop  offset="1" style="stop-color:#755CBB"/>
			</linearGradient>
			<path class="st46" d="M220.7,203.9c10.5,1.1,13.3,4.2,13.3,4.2c3,0.4,9.6-7.6,9.6-7.6l0.9-1c0,0,5.3,12.8,10.2,19.1
				c0.6,0.7,1.2,1.5,1.8,2.2l-0.7-1.6c0,0-1.1-0.6-1.5-6.8c-0.3-6.2,2.5-15.5,2.5-16.8c0-1.3,0.4-7.7,0.4-7.7l-9,5.6l1.7-5.5
				l-6.5,5.5c0,0-2.6,4.1-9,7.4C228.3,204.2,221.5,203.9,220.7,203.9z"/>
			
				<linearGradient id="SVGID_41_" gradientUnits="userSpaceOnUse" x1="-134.4899" y1="178.4743" x2="-134.4899" y2="203.3776" gradientTransform="matrix(-1 0 0 -1 102 402)">
				<stop  offset="0" style="stop-color:#CCEDFF"/>
				<stop  offset="1" style="stop-color:#755CBB"/>
			</linearGradient>
			<path class="st47" d="M244.5,199.5l-6.3-0.9c0,0-2.5,1.7-7.5,3.9l4.2,6.5c0,0-1.7,9.3-6.4,14.5c0,0,12.7-7.4,14.4-13.6
				L244.5,199.5z"/>
			
				<linearGradient id="SVGID_42_" gradientUnits="userSpaceOnUse" x1="-171.879" y1="210.3073" x2="-171.879" y2="229.1227" gradientTransform="matrix(-1 0 0 -1 102 402)">
				<stop  offset="0" style="stop-color:#CCEDFF"/>
				<stop  offset="1" style="stop-color:#755CBB"/>
			</linearGradient>
			<path class="st48" d="M281.1,179.8l-1.8,5c0,0-1.8,6.7-5.4,7c-3.6,0.3-7.2-11.2-7.2-11.2v-7.6c0,0,3.9,8.7,8,9.7
				C278.9,183.5,281.1,179.8,281.1,179.8z"/>
			
				<linearGradient id="SVGID_43_" gradientUnits="userSpaceOnUse" x1="-157.4169" y1="226.8767" x2="-150.2137" y2="226.8767" gradientTransform="matrix(-1 0 0 -1 102 402)">
				<stop  offset="0" style="stop-color:#CCEDFF"/>
				<stop  offset="1" style="stop-color:#755CBB"/>
			</linearGradient>
			<path class="st49" d="M259.4,175.8c0,0-3.2,6.8-7.2,8.9c0,0,4.7-12.1,3.7-19.2C255.9,165.5,257.7,166.7,259.4,175.8z"/>
			
				<linearGradient id="SVGID_44_" gradientUnits="userSpaceOnUse" x1="-79.1221" y1="181.2344" x2="-79.1221" y2="216.1087" gradientTransform="matrix(-1 0 0 -1 102 402)">
				<stop  offset="0" style="stop-color:#CCCCFF"/>
				<stop  offset="1" style="stop-color:#755CBB"/>
			</linearGradient>
			<path class="st50" d="M180.9,185.9l-1.1,3.8l-1.1,31.1c0,0,2.9-5.9,4.9-14.4l-1-1.7C182.5,204.7,180.8,193,180.9,185.9z"/>
			
				<linearGradient id="SVGID_45_" gradientUnits="userSpaceOnUse" x1="-41.8788" y1="188.7351" x2="-41.8788" y2="206.9588" gradientTransform="matrix(-1 0 0 -1 102 402)">
				<stop  offset="0" style="stop-color:#CCCCFF"/>
				<stop  offset="1" style="stop-color:#755CBB"/>
			</linearGradient>
			<path class="st51" d="M146.6,195c0,0,0.6,15.3-5.5,16.6l-0.3,1.6C140.8,213.3,148.8,213,146.6,195z"/>
			
				<linearGradient id="SVGID_46_" gradientUnits="userSpaceOnUse" x1="-61.5107" y1="189.5493" x2="-61.5107" y2="203.4811" gradientTransform="matrix(-1 0 0 -1 102 402)">
				<stop  offset="0" style="stop-color:#CCCCFF"/>
				<stop  offset="1" style="stop-color:#755CBB"/>
			</linearGradient>
			<path class="st52" d="M156.9,199.7c0,0,0.2,0.5,2.5-1.2c0,0,7.8,5.8,10.7,13.9c0,0-4.8-7.5-7.3-8.3c-2.5-0.8-3.2,2.2-3.2,2.2
				S158.6,202.1,156.9,199.7z"/>
			
				<linearGradient id="SVGID_47_" gradientUnits="userSpaceOnUse" x1="-175.6196" y1="209.1064" x2="-175.6196" y2="214.2801" gradientTransform="matrix(-1 0 0 -1 102 402)">
				<stop  offset="0" style="stop-color:#CCEDFF"/>
				<stop  offset="1" style="stop-color:#755CBB"/>
			</linearGradient>
			<path class="st53" d="M281.9,187.7c0,0-3,5.8-8.6,4c0,0,3.3,2.4,6.7,0.4C280,192.1,282.1,188.4,281.9,187.7z"/>
			
				<linearGradient id="SVGID_48_" gradientUnits="userSpaceOnUse" x1="-162.4932" y1="193.3307" x2="-162.4932" y2="221.6083" gradientTransform="matrix(-1 0 0 -1 102 402)">
				<stop  offset="0" style="stop-color:#CCCCFF"/>
				<stop  offset="1" style="stop-color:#755CBB"/>
			</linearGradient>
			<path class="st54" d="M262.4,180.4c0,0-4.1,16.1,6.6,28.3c0,0-6.9-3.8-8.5-12.4C258.9,187.5,262.4,180.4,262.4,180.4z"/>
			
				<linearGradient id="SVGID_49_" gradientUnits="userSpaceOnUse" x1="-93.3934" y1="213.2382" x2="-93.3934" y2="234.5119" gradientTransform="matrix(-1 0 0 -1 102 402)">
				<stop  offset="0" style="stop-color:#CCEDFF"/>
				<stop  offset="1" style="stop-color:#755CBB"/>
			</linearGradient>
			<path class="st55" d="M188.9,167.5c0,0,0.5,7.3,3.8,12.5c3.3,5.2,9.9,8.8,9.9,8.8s-8.3-3.2-12-7.7
				C186.7,176.5,188.9,167.5,188.9,167.5z"/>
			
				<linearGradient id="SVGID_50_" gradientUnits="userSpaceOnUse" x1="-119.8741" y1="216.1087" x2="-119.8741" y2="245.4765" gradientTransform="matrix(-1 0 0 -1 102 402)">
				<stop  offset="0" style="stop-color:#CCEDFF"/>
				<stop  offset="1" style="stop-color:#755CBB"/>
			</linearGradient>
			<path class="st56" d="M231.1,156.5c0,0,0,6.1-1.9,12.3c-1.9,6.2-18,17.1-18,17.1s16.7-7.3,19.9-13.8
				C234.3,165.5,231.1,156.5,231.1,156.5z"/>
			
				<linearGradient id="SVGID_51_" gradientUnits="userSpaceOnUse" x1="-129.2923" y1="210.7394" x2="-82.6975" y2="210.7394" gradientTransform="matrix(-1 0 0 -1 102 402)">
				<stop  offset="0" style="stop-color:#8642A0"/>
				<stop  offset="1" style="stop-color:#6456C0"/>
			</linearGradient>
			<path class="st57" d="M231.3,185.5v9.9c0,0-21.7-0.2-46,1.5l-0.6-8.9C184.7,188.1,205.9,185.4,231.3,185.5z"/>
			<g>
				<path class="st58" d="M227.4,193.7l-1.7,0.1l0-1.4h-0.1l-0.5,1.5l-2.4,0.1c-0.4,0-0.8,0-1.1-0.1s-0.6-0.3-0.8-0.5
					c-0.2-0.2-0.3-0.5-0.4-0.8c-0.1-0.3-0.1-0.6-0.2-1l0-1.3c0-0.4,0-0.7,0.1-1c0.1-0.3,0.2-0.6,0.4-0.8c0.2-0.2,0.4-0.4,0.7-0.5
					c0.3-0.1,0.7-0.2,1.1-0.2l4.4-0.1c0.2,0,0.2,0.1,0.2,0.2L227.4,193.7z M225.6,189.3C225.6,189.2,225.6,189.2,225.6,189.3
					c-0.1-0.1-0.1-0.1-0.1-0.1l-2.7,0.1c-0.3,0-0.5,0.1-0.7,0.2c-0.1,0.1-0.2,0.4-0.2,0.8l0,1c0,0.4,0.1,0.6,0.2,0.8
					c0.1,0.1,0.4,0.2,0.7,0.2l2.8-0.1L225.6,189.3z"/>
				<path class="st58" d="M217.6,191.6l-2.3,0.1l0-1.3l2.7-0.1l0-0.8c0,0,0-0.1,0-0.1c0,0,0,0-0.1,0l-3.3,0.1c-0.1,0-0.1,0-0.1,0.1
					l0,0.8h-0.1l-1.6-0.6l0-1.6c0-0.2,0.1-0.3,0.2-0.3l6.3-0.2c0.2,0,0.2,0.1,0.2,0.2l0.2,5.7c0,0.2-0.1,0.3-0.2,0.3l-6.5,0.2l0-1.6
					l4.9-0.2c0.1,0,0.1,0,0.1-0.1l-0.1-1.8h-0.1L217.6,191.6z"/>
				<path class="st58" d="M205.4,189.8l0-1.3c0-0.2,0.1-0.3,0.2-0.3l5.2-0.2c0.5,0,0.9,0.1,1.1,0.3c0.2,0.2,0.4,0.6,0.4,1l0,0.4
					c0,0.2,0,0.4-0.1,0.6c0,0.2-0.1,0.3-0.2,0.4c-0.1,0.1-0.2,0.2-0.4,0.3c-0.2,0.1-0.4,0.1-0.6,0.2l-3.5,0.6c-0.1,0-0.2,0-0.2,0.1
					c0,0,0,0.1,0,0.2l0,0.2c0,0.1,0,0.2,0.1,0.3c0,0.1,0.1,0.1,0.3,0.1l4.7-0.2l0,1.6l-5.2,0.2c-0.3,0-0.6,0-0.8-0.1
					c-0.2-0.1-0.4-0.2-0.5-0.3c-0.1-0.1-0.2-0.3-0.3-0.5c-0.1-0.2-0.1-0.4-0.1-0.7l0-0.5c0-0.2,0-0.4,0-0.6c0-0.2,0.1-0.3,0.2-0.4
					s0.2-0.2,0.4-0.3c0.2-0.1,0.4-0.1,0.6-0.2l3.6-0.6c0.1,0,0.2,0,0.2-0.1c0,0,0.1-0.1,0.1-0.2l0-0.2c0-0.1,0-0.2-0.1-0.2
					c0,0-0.1-0.1-0.2-0.1l-3.1,0.1c-0.1,0-0.1,0-0.1,0.1l0,0.7H207L205.4,189.8z"/>
				<path class="st58" d="M203.1,194.5l-0.2-6.2l1.7-0.1l0.2,6.2L203.1,194.5z"/>
				<path class="st58" d="M197,193C197,193.1,197,193.1,197,193l2.9,0c0.3,0,0.5-0.1,0.7-0.2c0.1-0.2,0.2-0.4,0.2-0.8l0-1.1
					c0-0.2,0-0.3-0.1-0.5c0-0.1-0.1-0.2-0.2-0.3c-0.1-0.1-0.2-0.1-0.3-0.2s-0.2,0-0.4,0l-2.8,0.1c0,0-0.1,0-0.1,0.1l0,0.6h-0.1
					l-1.6-0.5l0-1.3c0-0.2,0.1-0.3,0.2-0.3l4.4-0.1c0.4,0,0.8,0,1.1,0.1c0.3,0.1,0.6,0.3,0.8,0.5c0.2,0.2,0.3,0.5,0.4,0.8
					c0.1,0.3,0.1,0.6,0.2,1l0,1.3c0,0.4,0,0.7-0.1,1c-0.1,0.3-0.2,0.6-0.4,0.8c-0.2,0.2-0.4,0.4-0.7,0.5c-0.3,0.1-0.7,0.2-1.1,0.2
					l-4.4,0.1c-0.1,0-0.2-0.1-0.2-0.2l-0.1-3l1.6-0.1v0.1c0,0.1,0,0.2,0,0.3c0,0.1,0,0.2,0,0.3L197,193z"/>
				<path class="st58" d="M194.3,188.6c0.2,0,0.2,0.1,0.2,0.2l0.2,5.9l-1.5,0l-0.1-4.6c0-0.1,0-0.1-0.1-0.1h-0.1
					c-0.1,0-0.1,0-0.2,0.1l-2.2,4.5c0,0.1-0.1,0.2-0.2,0.2c-0.1,0-0.1,0.1-0.2,0.1l-2.4,0.1c-0.2,0-0.2-0.1-0.2-0.2l-0.2-5.9l1.5,0
					l0.1,4.6c0,0.1,0,0.1,0.1,0.1h0.1c0.1,0,0.1,0,0.2-0.1l2.1-4.5c0-0.1,0.1-0.2,0.1-0.2c0.1,0,0.1-0.1,0.3-0.1L194.3,188.6z"/>
			</g>
			
				<linearGradient id="SVGID_52_" gradientUnits="userSpaceOnUse" x1="-125.2745" y1="239.0454" x2="-94.9541" y2="239.0454" gradientTransform="matrix(-1 0 0 -1 102 402)">
				<stop  offset="0" style="stop-color:#CCCCFF"/>
				<stop  offset="1" style="stop-color:#755CBB"/>
			</linearGradient>
			<path class="st59" d="M197,157.8c0.5,6.4,2.4,10.9,4.3,13.9c2.7,4.1,5.7,5.6,5.7,5.6c2.9-1.4,5.5-3,7.7-4.9
				c9.3-7.9,12.4-18.8,12.6-19.7c-3.9,10-9.7,16.1-14.1,19.5c-3.5,2.8-6.2,3.8-6.2,3.8v-3.2c0.7-0.3,1.4-0.6,2-0.9
				c7.7-4.1,11.8-12.7,13.7-18.2c0,0,0,0,0,0c1-3,1.4-5.1,1.4-5.1h-1.4l0.5,1l0,0c-0.2,1-0.5,2.1-0.8,3c0,0,0,0.1,0,0.1
				c-4.3,14.4-15.5,19-15.5,19c-7.7-6-7.6-15.6-7.6-15.6v-1.3l-1.4,0.5L197,157.8z"/>
			
				<linearGradient id="SVGID_53_" gradientUnits="userSpaceOnUse" x1="-47.3342" y1="190.8121" x2="-47.3342" y2="209.2843" gradientTransform="matrix(-1 0 0 -1 102 402)">
				<stop  offset="0" style="stop-color:#CCCCFF"/>
				<stop  offset="1" style="stop-color:#755CBB"/>
			</linearGradient>
			<path class="st60" d="M151.1,192.7c0,0,2.1,7.2,0.1,18.5c0,0-1-14.2-1.7-15.5c-0.7-1.2-2.8-0.7-2.8-0.7S149.9,193.1,151.1,192.7z
				"/>
			
				<linearGradient id="SVGID_54_" gradientUnits="userSpaceOnUse" x1="-72.132" y1="169.973" x2="-72.132" y2="225.9141" gradientTransform="matrix(-1 0 0 -1 102 402)">
				<stop  offset="0" style="stop-color:#CCCCFF"/>
				<stop  offset="1" style="stop-color:#755CBB"/>
			</linearGradient>
			<path class="st61" d="M171.5,232c1.8-1.7,4-4.5,6.2-9.1c4.4-9.2,5.6-15.4,5.9-16.5l-1-1.7l-1.4-14.2l-1.3-0.8
				c0,0-4.7-5.4-8.2-13.6c-0.1,0.1-0.1,0.3-0.2,0.6v0c-0.7,3-2.2,14-3.5,18c-0.9,2.5-2.2,3.8-3.2,4.5c0,0,8.1,12.6,8.5,21.6
				C173.5,228.9,171.8,231.6,171.5,232z"/>
			
				<linearGradient id="SVGID_55_" gradientUnits="userSpaceOnUse" x1="-129.2595" y1="143.6965" x2="-129.2595" y2="159.7329" gradientTransform="matrix(-1 0 0 -1 102 402)">
				<stop  offset="0" style="stop-color:#CCCCFF"/>
				<stop  offset="1" style="stop-color:#755CBB"/>
			</linearGradient>
			<path class="st62" d="M219.4,258.3c0,0,14.5-2.5,20.5-6.5c0,0,0,0,0,0c-0.1-0.3-0.1-0.7-0.1-1c0.1-3.5,3-6.5,3.3-8.5
				c-0.1,0.2-0.5,1.2-2.6,3.1c-1.3,1.2-3.3,2.7-6.2,4.5c-0.1,0-0.2,0.1-0.2,0.1c-4.2,2.6-7.8,4.4-10.4,5.7c0,0,0,0,0,0
				C221.3,256.9,219.8,257.6,219.4,258.3C219.4,258.3,219.4,258.3,219.4,258.3z"/>
			
				<linearGradient id="SVGID_56_" gradientUnits="userSpaceOnUse" x1="-99.67" y1="148.1017" x2="-99.67" y2="155.8895" gradientTransform="matrix(-1 0 0 -1 102 402)">
				<stop  offset="0" style="stop-color:#CCCCFF"/>
				<stop  offset="1" style="stop-color:#755CBB"/>
			</linearGradient>
			<path class="st63" d="M188.3,246.1c0.1,0.6,1.4,1.9,1.7,3.3c0,0,5.3,5.9,25.1,4.1c-0.1-0.6-4.3,0.3-13.9-1.8
				C191.8,249.8,188.5,246.3,188.3,246.1z"/>
			<path class="st64" d="M185,165.6l12.6,4.3l3.7,1.8l0,0l2.4,0l3.3,0l2,0.2l1.1,0.1l3.1,0.3l1.5,0.1l15.1-5.8l2.7-1l12.5-4.7
				c-0.4-0.2-0.7-0.3-1.1-0.5c-8.4-3.5-16.6-7.7-16.6-7.7l-3.1-4.1h-1.4c-1.3-2.9-2.1-5.6-2.6-7.7l-0.8-3.9
				c-0.1-0.4-0.1-0.6-0.1-0.6l-4.5,2.5l-15,12.7c0,0.9,0,1.6-0.1,2.3l-0.2,1.6c0-0.3-0.1-0.5-0.1-0.5l-1.4,0.5l-1,2.5
				c0,0-1.7,2.7-8.3,5.8C187.5,164.2,186.3,164.9,185,165.6z"/>
			<g>
				
					<linearGradient id="SVGID_57_" gradientUnits="userSpaceOnUse" x1="-99.9961" y1="248.2009" x2="-99.9961" y2="301.4763" gradientTransform="matrix(-1 0 0 -1 102 402)">
					<stop  offset="1.600000e-02" style="stop-color:#FFC2A9"/>
					<stop  offset="1" style="stop-color:#FF9595"/>
				</linearGradient>
				<path class="st65" d="M194.6,153.5c0,0,5.9,1.4,12.4-1.9s12-13.1,12.3-15.5c0.3-2.4-2.5-8.8-2.5-13.8c0-5,2.3-13.5-1.6-18.1
					c-3.9-4.6-21.8-5.3-27.6,0.6c0,0-1.8,4.7-1.8,7.4c0,0.6,0.1,1.6,0.3,2.7c0.1,0.4,0.1,0.8,0.2,1.3c0.5,3.3,1.2,7.2,0.9,9
					c-0.1,0.6-0.3,1.2-0.5,1.7v0c-0.7,1.7-1.8,3.1-2,4.6C184.5,133.5,187,147.4,194.6,153.5z"/>
				
					<linearGradient id="SVGID_58_" gradientUnits="userSpaceOnUse" x1="-118.8606" y1="269.6942" x2="-118.8606" y2="285.4019" gradientTransform="matrix(-1 0 0 -1 102 402)">
					<stop  offset="1.600000e-02" style="stop-color:#FFC2A9"/>
					<stop  offset="1" style="stop-color:#FF9595"/>
				</linearGradient>
				<path class="st66" d="M216.8,120.9c0,0,1.6-4.2,5.6-4.3c0,0,2.4,1,2.7,2.9c0,0-0.9,6.9-1.9,10.1c-1,3.2-4.6,2.7-4.6,2.7
					S215.5,127.2,216.8,120.9z"/>
				
					<linearGradient id="SVGID_59_" gradientUnits="userSpaceOnUse" x1="-92.9901" y1="263.7539" x2="-92.34" y2="267.1388" gradientTransform="matrix(-1 0 0 -1 102 402)">
					<stop  offset="0" style="stop-color:#E1616A"/>
					<stop  offset="1" style="stop-color:#FF8883"/>
				</linearGradient>
				<path class="st67" d="M201.3,134.9c0,0-1.3-0.1-1.9,0.3s-2.7,2.6-5.4,3.2c-2.7,0.6-4.5-1.8-5-1.9c-0.6-0.1-1.2,0.7-1.2,0.7
					s0.2-1,1.6-1.4c0,0,0.6,2.3,4.4,1.5s5.5-2.6,5.5-2.6l0.2-0.4C199.6,134.3,200.7,134.6,201.3,134.9z"/>
				
					<linearGradient id="SVGID_60_" gradientUnits="userSpaceOnUse" x1="-98.6147" y1="266.3708" x2="-98.6147" y2="300.7" gradientTransform="matrix(-1 0 0 -1 102 402)">
					<stop  offset="0" style="stop-color:#FFEADB"/>
					<stop  offset="0.9944" style="stop-color:#C27CB6"/>
				</linearGradient>
				<path class="st68" d="M207,113.8l-0.1-0.4c0,0-3.9-7.1-11.5-7.3c-7.6-0.2-9.4,4.8-9.4,4.8l-1.4-2.3l3.2-6.9l22.4-0.4l5.5,4.6
					l0.7,11.4l-2.4,15l-5.9,3.3l-1.7-1.6c0.6-5,4.2-9.6,4.2-9.6l-2.6-1.9c0,0-6.6,3.4-10.5,2.4c0,0-2.9-8.9-2.7-15.4
					C194.9,109.5,204.7,111,207,113.8z"/>
				<path class="st69" d="M207.4,114.3c0,0-0.4-2.6-4.5-3.6c-4.6-1.1-8.3-2.1-8.3-2.1s0.8,2.8,2.3,3.9c0,0,4.9-0.2,7.3,0.4
					C206.7,113.5,207.4,114.3,207.4,114.3z"/>
				<path class="st69" d="M186.1,110.9c0,0,2.3,1.9,3.9,6.4c0,0-1.5-2.1-2.9-2.1c-1,0-0.8,1-0.8,1S185.4,113.5,186.1,110.9z"/>
				
					<linearGradient id="SVGID_61_" gradientUnits="userSpaceOnUse" x1="-100.1976" y1="280.4406" x2="-100.1976" y2="287.2374" gradientTransform="matrix(-1 0 0 -1 102 402)">
					<stop  offset="0" style="stop-color:#CF6074"/>
					<stop  offset="1" style="stop-color:#F37270"/>
				</linearGradient>
				<path class="st70" d="M205.8,121.6c0,0-0.2-5.4-5.3-6.8c0,0-1.8,2.4-2,5.2C198.6,120,201.2,119.5,205.8,121.6z"/>
				
					<linearGradient id="SVGID_62_" gradientUnits="userSpaceOnUse" x1="-87.3125" y1="278.2808" x2="-87.3125" y2="284.1943" gradientTransform="matrix(-1 0 0 -1 102 402)">
					<stop  offset="0" style="stop-color:#CF6074"/>
					<stop  offset="1" style="stop-color:#FF817F"/>
				</linearGradient>
				<path class="st71" d="M191.4,123.7c0,0-0.4-4.3-2.8-5.9c0,0-1.6,1.3-1.4,4.9C187.2,122.7,188.6,122.2,191.4,123.7z"/>
				<path class="st72" d="M205.8,121.6c0,0-1.6,2.1-6.2,2.5c0,0-0.9-1.4-0.8-4.1C198.8,120,203,119.5,205.8,121.6z"/>
				<path class="st72" d="M191.4,123.7v0.6c0,0-0.7,1.5-3.2,1.8c0,0-0.8-1.3-0.9-3.5C187.3,122.7,188.9,122.2,191.4,123.7z"/>
				<path class="st73" d="M200.9,119.8c0,0,1.2,1.5,1.1,3.8c0,0-1.5,0.4-2.4,0.4c0,0-1-1.5-0.8-4.1
					C198.8,120,200.2,119.7,200.9,119.8z"/>
				<path class="st73" d="M189,122.7c0,0,0.7,0.7,0.8,3c0,0-0.9,0.4-1.6,0.4c0,0-0.9-1.4-0.9-3.5C187.3,122.7,188,122.4,189,122.7z"
					/>
				<path class="st69" d="M201.3,123.8c0,0,0.4-2.9-1.2-4.1l-1.3,0.2c0,0-0.4,2.3,0.8,4.1C199.6,124.1,200.9,123.9,201.3,123.8z"/>
				<path class="st69" d="M188.5,122.6c0,0,0.6,1.3,0.9,3.3c0,0-0.5,0.2-1.1,0.2c0,0-0.9-1.2-0.9-3.5
					C187.3,122.7,188,122.5,188.5,122.6z"/>
				<path class="st74" d="M205.8,121.6c0,0-3-1.9-8.2-0.8l1-0.8C198.6,120,202.3,118.8,205.8,121.6z"/>
				<path class="st74" d="M191.4,123.7c0,0-2.4-1.4-5.3-0.6l1.2-0.9C187.3,122.2,189.2,121.9,191.4,123.7z"/>
				<path class="st12" d="M202.5,121.6c0,0-0.8-0.2-1.6,0.6C201,122.2,202,122.5,202.5,121.6z"/>
				<path class="st12" d="M190.3,124.1c0,0-1.3-0.3-1.7,0.4C188.6,124.5,189.3,124.9,190.3,124.1z"/>
				<path class="st75" d="M205.5,121.9c0,0-2.4,2.5-6.2,3l-0.1-1.4l0.3,0.6C199.6,124.1,203.3,123.9,205.5,121.9z"/>
				<path class="st75" d="M191.4,124.4c0,0-0.4,1.6-3.5,2.3l0.1-0.8l0.2,0.3C188.2,126.2,190.4,125.9,191.4,124.4z"/>
				<path class="st76" d="M197.6,130.7c0,0-1.1-0.3-3.3,0c-2.1,0.3-4.5,0.9-5.8,0c0,0,1.7,1.8,3.2,2.1s3.8-1.1,3.8-1.1l1,0
					C196.5,131.7,197.3,131.3,197.6,130.7z"/>
				<path class="st77" d="M196.4,131.7c0,0-0.5-0.4-1-0.3c-0.4,0.1-0.9,0.8-0.9,0.8S195.5,131.7,196.4,131.7z"/>
				<path class="st78" d="M188.6,130.7c-0.6-0.6,2.3-5.9,3.7-6.1c1.4-0.2,2.6,6,2.6,6s-1.9,0.3-3.7,0.5
					C189.3,131.4,188.6,130.7,188.6,130.7z"/>
				
					<linearGradient id="SVGID_63_" gradientUnits="userSpaceOnUse" x1="-86.7885" y1="274.8375" x2="-86.7885" y2="288.1505" gradientTransform="matrix(-1 0 0 -1 102 402)">
					<stop  offset="0" style="stop-color:#FFEADB"/>
					<stop  offset="0.9944" style="stop-color:#C27CB6"/>
				</linearGradient>
				<path class="st79" d="M186.5,113.9c0.8-0.1,3.5,3.4,3.5,3.4s1.7,5.7,1.4,7.3c-0.3,1.7-4.6,2.6-4.6,2.6l-0.2-0.3v0
					c0.2-0.5,0.4-1.1,0.5-1.7c0.3-1.7-0.4-5.7-0.9-9c0,0-0.2-0.7-0.2-1.3C186.1,114.4,186.2,113.9,186.5,113.9z"/>
				
					<linearGradient id="SVGID_64_" gradientUnits="userSpaceOnUse" x1="-99.3169" y1="247.5309" x2="-99.3169" y2="312.1407" gradientTransform="matrix(-1 0 0 -1 102 402)">
					<stop  offset="0" style="stop-color:#2E33A0"/>
					<stop  offset="1" style="stop-color:#0665A5"/>
				</linearGradient>
				<path class="st80" d="M185.2,135.3c0.1,0.6,2.2,14.6,8.3,18.8c0,0,0,0,0,0s5.6,1.4,14-1.9c0,0,9.5-5.7,11.8-15.3
					c0,0,0.5-2.3-0.6-4.7c0,0-1.6-0.7-2.3-5.1c-0.8-4.9,1.7-8.3,1.7-8.3s-0.3-2.7,0.4-5.7c0.7-3,2.2-5.9,1.5-8.1
					c-0.6-2.1-5.8-3.5-8.2-5.5c-0.4-0.4-0.8-0.7-1-1c0,0,0,0,0,0c0,0,0,0,0,0c-0.3-0.3-0.6-0.7-0.8-1l-0.3-0.3l-0.2-0.3
					c-0.7-0.9-1.6-1.7-3.4-2.6c-3.6-1.8-6.1-2-8.7-4.5c0,0,0,0,0,0s-0.1,2.5,0.7,4.6c0,0-8-1.9-9.8-1.9c-1.9,0-2.5,6.3-2.5,6.3l0,0
					c-0.1,0.2-2.4,3.3-3.2,5.5c-0.4,1.2,3.4,9.4,3.4,9.4s-0.4-3.9,1.9-7.5l0.9,0.8c0,0,0-0.1,0.1-0.2c0.4-0.7,1.6-2.9,3.9-3.5
					c0,0,0,0.5,7-0.3c7-0.8,9.9-1.2,11.5,0.5c1.7,1.7,1.1,5.7-0.5,7.1c0,0,4.3,4.8,4.2,11.5c-0.1,6.5-4.8,11.3-6.7,12.1
					c-0.1,0-0.2,0.1-0.2,0.1c-1.8,0.5-2.7-2.9-13.5-1.4c-7.6,1-7,2-7.9,4C186.4,137.4,185.3,135.5,185.2,135.3z M187.3,139.6
					c-0.1-3,1.9-3.9,2.3-3.7c0.4,0.2,1.5,0.8,4.6,0.6c3.1-0.2,5.2-2,5.2-2s4,0.4,5.1,3.8c1.1,3.4-4.1,5.7-5.1,5.6
					c-1-0.1-3.5-3-3.5-3s-2.7-0.2-3.2,0.3c-0.5,0.5-0.8,4.5-2.3,4.8C188.9,146,187.3,141.6,187.3,139.6z"/>
				<path class="st81" d="M190.8,125.8c0,0-2.7,3.5-2.4,4.8c0.3,1.4,3.4,2.2,3.4,2.2s-2.5-0.9-3-2.2
					C188.8,130.6,189.4,127.9,190.8,125.8z"/>
				
					<linearGradient id="SVGID_65_" gradientUnits="userSpaceOnUse" x1="-83.1979" y1="288.2173" x2="-83.1979" y2="303.122" gradientTransform="matrix(-1 0 0 -1 102 402)">
					<stop  offset="0" style="stop-color:#FFEADB"/>
					<stop  offset="0.9944" style="stop-color:#8860C7"/>
				</linearGradient>
				<path class="st82" d="M186,113.8c0,0-0.4-3.9,1.9-7.5c-1.9-3.6-2.2-7.4-2.2-7.4l0,0c-0.6,1.7-1,4.9-1,4.9l-2.1,0.6
					C182.1,105.5,186,113.8,186,113.8z"/>
				
					<linearGradient id="SVGID_66_" gradientUnits="userSpaceOnUse" x1="-102.4903" y1="247.5309" x2="-102.4903" y2="312.1407" gradientTransform="matrix(-1 0 0 -1 102 402)">
					<stop  offset="0" style="stop-color:#CCC2DB"/>
					<stop  offset="0.9944" style="stop-color:#8860C7"/>
				</linearGradient>
				<path class="st83" d="M188.9,106.9c0.4-0.7,1.6-2.9,3.9-3.5c0,0,0,0.5,7-0.3c7-0.8,9.9-1.2,11.5,0.5c1.7,1.7,1.1,5.7-0.5,7.1
					c0,0,4.3,4.8,4.2,11.5c-0.1,6.5-4.8,11.3-6.7,12.1l0.1,0.7c0,0-0.3,14.8-3.8,16c-3.4,1.2-10.5,0.6-11.2,1.3
					c-0.6,0.7,0.1,1.8,0.2,1.9c0,0,0,0,0,0s5.6,1.4,14-1.9c0,0,9.5-5.7,11.8-15.3c0,0,0.5-2.3-0.6-4.7c0,0-1.6-0.7-2.3-5.1
					c-0.8-4.9,1.7-8.3,1.7-8.3s-0.3-2.7,0.4-5.7c0.7-3,2.2-5.9,1.5-8.1c-4,0.7-6.6-1.5-6.6-1.5s-0.7-1-3.8-1.5
					c-3.1-0.5-15.4,0.8-15.4,0.8s1.2-1.1,3.8-1.8c2.5-0.7,10.9,0.1,11.8,0.2c-1-0.2-10.5-1.9-11.6-1.6c-1.2,0.4-5.3,2.4-5.3,2.4
					c0.4-2,4.1-6.8,4.1-6.8s5.2,0.1,8.6,0.8c3,0.7,4.7,2.1,5,2.4l-0.8-1l-0.3-0.3l-0.2-0.3l-1.2-0.2l-6-2.5c-2-1.1-4.6-3.9-4.9-4.3
					c0,0,0,0,0,0s-0.1,2.5,0.7,4.6c-5.1-0.7-6.8-0.3-6.8-0.3C188.9,97.6,188.9,106.9,188.9,106.9z"/>
				
					<linearGradient id="SVGID_67_" gradientUnits="userSpaceOnUse" x1="-98.3755" y1="247.5452" x2="-98.3755" y2="250.3192" gradientTransform="matrix(-1 0 0 -1 102 402)">
					<stop  offset="0" style="stop-color:#776D7E"/>
					<stop  offset="1" style="stop-color:#9D68C2"/>
				</linearGradient>
				<path class="st84" d="M207.5,152.3c0,0-3.1-0.8-7.8-0.6c-4.7,0.2-7.4,0.2-6.2,2.4C193.5,154.2,199.4,155.6,207.5,152.3z"/>
				
					<linearGradient id="SVGID_68_" gradientUnits="userSpaceOnUse" x1="-90.6381" y1="307.5037" x2="-90.6381" y2="309.5657" gradientTransform="matrix(-1 0 0 -1 102 402)">
					<stop  offset="0" style="stop-color:#1F77D1"/>
					<stop  offset="1" style="stop-color:#0686C9"/>
				</linearGradient>
				<path class="st85" d="M191.2,94.2c0,0-2.8-1.2-4-1c0,0,0.4-0.6,0.9-0.8c0.5-0.1,9.8,2.1,9.8,2.1S192.2,93.8,191.2,94.2z"/>
				
					<linearGradient id="SVGID_69_" gradientUnits="userSpaceOnUse" x1="-103.1176" y1="300.7137" x2="-103.1176" y2="306.8117" gradientTransform="matrix(-1 0 0 -1 102 402)">
					<stop  offset="0" style="stop-color:#1F77D1"/>
					<stop  offset="1" style="stop-color:#0686C9"/>
				</linearGradient>
				<path class="st86" d="M197,95.3c0,0,0.2,3.3,1.2,4.4l11.6,1.6l3.4-0.6c0,0-1.3-0.6-2.8-2.4C209,96.5,201.5,94.8,197,95.3z"/>
				
					<linearGradient id="SVGID_70_" gradientUnits="userSpaceOnUse" x1="-82.1306" y1="297.6224" x2="-82.1306" y2="303.122" gradientTransform="matrix(-1 0 0 -1 102 402)">
					<stop  offset="0" style="stop-color:#1F77D1"/>
					<stop  offset="1" style="stop-color:#0686C9"/>
				</linearGradient>
				<path class="st87" d="M185.7,98.9c0,0-0.9,3.2-1,4.9l-2.1,0.6C182.5,104.4,183.2,101.9,185.7,98.9z"/>
				
					<linearGradient id="SVGID_71_" gradientUnits="userSpaceOnUse" x1="-116.5533" y1="273.4124" x2="-123.5268" y2="281.9558" gradientTransform="matrix(-1 0 0 -1 102 402)">
					<stop  offset="0" style="stop-color:#FFEADB"/>
					<stop  offset="0.9944" style="stop-color:#B060F4"/>
				</linearGradient>
				<path class="st88" d="M217.3,126.7c0,0,0.8-4.1,2.8-6.2c2-2,4.3-1.4,4.3-1.4s-0.6,7.6-1.3,9.5c-0.6,1.9-1.6,2.4-1.6,2.4
					s1.4-1.3,1.6-3.8c0.2-2.5,0.2-6.1-0.3-6.5c-0.5-0.4-2.7,1.2-2.7,1.2s0.7,0.9,1.1,3.1c0.4,2.2-1.1,3.9-1.6,3.9
					c-0.6,0,0-2.6-0.1-3.3C219.4,124.8,218.2,124.9,217.3,126.7z"/>
				
					<linearGradient id="SVGID_72_" gradientUnits="userSpaceOnUse" x1="-115.9003" y1="274.5431" x2="-119.3601" y2="278.7818" gradientTransform="matrix(-1 0 0 -1 102 402)">
					<stop  offset="0" style="stop-color:#FFEADB"/>
					<stop  offset="0.9944" style="stop-color:#B060F4"/>
				</linearGradient>
				<path class="st89" d="M219.3,121.5c0,0,2.2,1.5,1.9,4.6c-0.2,3.1-1.9,3-1.9,2.3c0-0.6,0.3-2.3,0.2-3.3c-0.2-0.9-1.6-0.5-1.6-0.5
					S218.8,122.2,219.3,121.5z"/>
				<path class="st90" d="M185.2,135.3c0,0,2.7,13,8.3,18.8C193.5,154.2,187.1,151.5,185.2,135.3z"/>
				<path class="st90" d="M188.2,92.4c0,0-1.4,1.2-1.7,5.2c-0.3,4.1,1.4,8.6,1.4,8.6s-2.1-3.4-2.4-7.1
					C185.3,95.5,187,92.9,188.2,92.4z"/>
			</g>
			
				<linearGradient id="SVGID_73_" gradientUnits="userSpaceOnUse" x1="-103.5075" y1="300.1682" x2="-92.1882" y2="300.1682" gradientTransform="matrix(-1 0 0 -1 102 402)">
				<stop  offset="0" style="stop-color:#1F77D1"/>
				<stop  offset="1" style="stop-color:#0686C9"/>
			</linearGradient>
			<path class="st91" d="M205.5,101c0,0-3.3,1.2-6.9,1.5c-3.6,0.3-4.4,0.4-4.4,0.4s1.5-1.5,4.6-1.9C201.9,100.5,205.5,101,205.5,101
				z"/>
			
				<linearGradient id="SVGID_74_" gradientUnits="userSpaceOnUse" x1="-87.5412" y1="264.5399" x2="-84.1067" y2="264.5399" gradientTransform="matrix(-1 0 0 -1 102 402)">
				<stop  offset="0" style="stop-color:#1F77D1"/>
				<stop  offset="1" style="stop-color:#0686C9"/>
			</linearGradient>
			<path class="st92" d="M189.5,135.6c0,0-1.6,0-2.2,2.1c-0.5,1.7-0.6,3.1-0.6,3.1l-0.6-2.3c0,0,0.7-2.9,1.5-3.6
				c0.6-0.5,1.5-0.9,1.9-0.8L189.5,135.6z"/>
			
				<linearGradient id="SVGID_75_" gradientUnits="userSpaceOnUse" x1="-91.7818" y1="267.2239" x2="-88.0786" y2="267.2239" gradientTransform="matrix(-1 0 0 -1 102 402)">
				<stop  offset="0" style="stop-color:#1F77D1"/>
				<stop  offset="1" style="stop-color:#0686C9"/>
			</linearGradient>
			<path class="st93" d="M193.8,133.5l-0.3,2.5c0,0-1.9,0.2-3.2-0.4l-0.2-1.5C190.1,134.1,192.5,133.5,193.8,133.5z"/>
			<path class="st90" d="M185,165.6c0,0-11.3,8.7-12.8,11.7c-1.5,3-2.1,12.4-4,16.4c0,0,1.4-6.6,2.3-11.8s0.7-5.3,1.3-6.5
				C172.3,174.1,180.7,167.9,185,165.6z"/>
			<path class="st90" d="M187,214c0,0,5.4,24.5,5.2,26.2c-0.2,1.7-3.8,5-3.9,6c0,0,2.7,3.8,2.6,4.6c-0.1,0.8-4.7,6.2-4.6,7.8
				c0,0.5,3,5.7,3,5.7s-3.4-5.1-3.5-5.9s4.1-7.6,4.3-8.3c0.3-1.8-2.1-3.1-2.2-4.3c-0.1-1.2,3.3-4.1,3.4-6
				C191.1,237.8,187,214,187,214z"/>
			<path class="st90" d="M185.9,272.4c0,0-11.8,28-15.8,56.1C170.1,328.5,170.8,301.1,185.9,272.4z"/>
			<path class="st78" d="M260.5,160c0,0,3-0.7,4.3-3.5c1.3-2.8,0.4-6.8,0.4-6.8s-2.4,4.8-3.6,6.5S260.2,159.6,260.5,160z"/>
		</g>
	</g>
	<g>
		<defs>
			<rect id="SVGID_222_" x="3.8" y="52.5" width="393.3" height="276"/>
		</defs>
		<clipPath id="SVGID_76_">
			<use xlink:href="#SVGID_222_"  style="overflow:visible;"/>
		</clipPath>
		<g class="st94">
			<path class="st95" d="M50.5,145.4l2.1,63.3c0.1,2.5,2,4.5,4.4,4.5h103.6c2.4,0,4.4-2,4.4-4.6l1.4-64.1c0.1-2.6-2-4.8-4.5-4.8
				l-107.2,0.7C52.4,140.6,50.4,142.8,50.5,145.4z"/>
			<g>
				<path class="st96" d="M160.7,213.4H57c-2.5,0-4.5-2-4.6-4.7l-2.1-63.3c0-1.3,0.4-2.6,1.3-3.5c0.9-1,2-1.5,3.3-1.5l107.2-0.7
					c1.2,0,2.4,0.5,3.3,1.4s1.4,2.2,1.3,3.5l-1.4,64.1C165.2,211.3,163.2,213.4,160.7,213.4z M162.1,140
					C162.1,140,162.1,140,162.1,140l-107.2,0.7c-1.2,0-2.2,0.5-3.1,1.4c-0.8,0.9-1.2,2-1.2,3.3l2.1,63.3c0.1,2.4,2,4.3,4.3,4.3
					h103.6c2.3,0,4.2-2,4.3-4.4l1.4-64.1c0-1.2-0.4-2.4-1.2-3.3C164.4,140.5,163.3,140,162.1,140z"/>
			</g>
			
				<linearGradient id="SVGID_77_" gradientUnits="userSpaceOnUse" x1="330.9829" y1="257.7696" x2="447.0301" y2="257.7696" gradientTransform="matrix(1 0 0 -1 -280.4009 402)">
				<stop  offset="0" style="stop-color:#9D68C2"/>
				<stop  offset="1" style="stop-color:#AEC2FF"/>
			</linearGradient>
			<path class="st97" d="M50.6,148.6h115.8l0.2-3.3c0.2-3-2.1-5.4-4.9-5.4l-107.2,0.9c-2.2,0-4,2-4,4.3L50.6,148.6z"/>
			
				<linearGradient id="SVGID_78_" gradientUnits="userSpaceOnUse" x1="354.5957" y1="211.6235" x2="354.5957" y2="248.4713" gradientTransform="matrix(1 0 0 -1 -280.4009 402)">
				<stop  offset="0" style="stop-color:#CCEDFF"/>
				<stop  offset="1" style="stop-color:#9D68C2"/>
			</linearGradient>
			<polygon class="st98" points="56.5,153.7 56.5,190.4 91.9,190.4 91.9,153.5 			"/>
			
				<linearGradient id="SVGID_79_" gradientUnits="userSpaceOnUse" x1="414.2762" y1="229.592" x2="414.2762" y2="245.8216" gradientTransform="matrix(1 0 0 -1 -280.4009 402)">
				<stop  offset="0" style="stop-color:#CCEDFF"/>
				<stop  offset="1" style="stop-color:#9D68C2"/>
			</linearGradient>
			<rect x="126.2" y="156.2" class="st99" width="15.4" height="16.2"/>
			
				<linearGradient id="SVGID_80_" gradientUnits="userSpaceOnUse" x1="432.4644" y1="229.592" x2="432.4644" y2="245.8216" gradientTransform="matrix(1 0 0 -1 -280.4009 402)">
				<stop  offset="0" style="stop-color:#CCEDFF"/>
				<stop  offset="1" style="stop-color:#9D68C2"/>
			</linearGradient>
			<rect x="144.4" y="156.2" class="st100" width="15.4" height="16.2"/>
			
				<linearGradient id="SVGID_81_" gradientUnits="userSpaceOnUse" x1="395.7798" y1="229.592" x2="395.7798" y2="245.8216" gradientTransform="matrix(1 0 0 -1 -280.4009 402)">
				<stop  offset="0" style="stop-color:#CCEDFF"/>
				<stop  offset="1" style="stop-color:#9D68C2"/>
			</linearGradient>
			<rect x="107.7" y="156.2" class="st101" width="15.4" height="16.2"/>
			<rect x="120.3" y="181.9" class="st102" width="39.4" height="3.9"/>
			<rect x="110.5" y="187.8" class="st102" width="49.3" height="1.2"/>
			<rect x="111" y="174.5" class="st102" width="9.4" height="1.2"/>
			<rect x="129.2" y="174.5" class="st102" width="9.4" height="1.2"/>
			<rect x="147.4" y="174.5" class="st102" width="9.4" height="1.2"/>
			<rect x="107.7" y="189.7" class="st102" width="15.9" height="1.2"/>
			<rect x="110.5" y="191.7" class="st102" width="49.3" height="1.2"/>
			<rect x="107.7" y="193.6" class="st102" width="52.1" height="1.2"/>
			<rect x="107.7" y="195.5" class="st102" width="52.1" height="1.2"/>
			<rect x="110.5" y="203.4" class="st102" width="49.3" height="1.2"/>
			<rect x="107.7" y="205.3" class="st102" width="52.1" height="1.2"/>
			<rect x="107.7" y="207.2" class="st102" width="52.1" height="1.2"/>
			<rect x="107.7" y="197.5" class="st102" width="50" height="1.2"/>
			<rect x="110.5" y="199.4" class="st102" width="49.3" height="1.2"/>
			<rect x="107.7" y="201.3" class="st102" width="42.2" height="1.2"/>
			<g>
				<path class="st103" d="M66.4,183c-5.6,0-10.1-4.8-10.1-10.6s4.5-10.6,10.1-10.6s10.1,4.8,10.1,10.6C76.5,178.3,72,183,66.4,183z
					 M66.4,162.5c-5.2,0-9.4,4.5-9.4,9.9c0,5.5,4.2,9.9,9.4,9.9c5.2,0,9.4-4.5,9.4-9.9S71.6,162.5,66.4,162.5z"/>
			</g>
			<ellipse class="st12" cx="66.4" cy="172.4" rx="5.5" ry="5.8"/>
			<g>
				<path class="st103" d="M91.9,164.1c-5.6,0-10.1-4.8-10.1-10.6c0-5.9,4.5-10.6,10.1-10.6c5.6,0,10.1,4.8,10.1,10.6
					S97.5,164.1,91.9,164.1z M91.9,143.6c-5.2,0-9.4,4.5-9.4,9.9s4.2,9.9,9.4,9.9c5.2,0,9.4-4.5,9.4-9.9
					C101.3,148.1,97.1,143.6,91.9,143.6z"/>
			</g>
			<ellipse class="st12" cx="91.9" cy="153.5" rx="5.2" ry="5.4"/>
			<g>
				<polygon class="st12" points="54.7,143.6 55.4,142.5 59.4,146.1 58.8,147 				"/>
				<polygon class="st12" points="59.5,143.6 58.8,142.5 54.8,146.1 55.4,147 				"/>
			</g>
			<rect x="128" y="143.3" class="st12" width="35.7" height="1.9"/>
		</g>
	</g>
	<g>
		<defs>
			<rect id="SVGID_229_" x="3.8" y="52.5" width="393.3" height="276"/>
		</defs>
		<clipPath id="SVGID_82_">
			<use xlink:href="#SVGID_229_"  style="overflow:visible;"/>
		</clipPath>
		<g class="st104">
			
				<linearGradient id="SVGID_83_" gradientUnits="userSpaceOnUse" x1="-165.4919" y1="269.469" x2="-165.4919" y2="286.4577" gradientTransform="matrix(-1 0 0 -1 102 402)">
				<stop  offset="0" style="stop-color:#D93DE3"/>
				<stop  offset="1" style="stop-color:#FF6DBA"/>
			</linearGradient>
			<polygon class="st105" points="276.9,116.1 276.9,132.4 258.4,132.5 258.1,115.5 			"/>
			
				<linearGradient id="SVGID_84_" gradientUnits="userSpaceOnUse" x1="-155.6276" y1="269.469" x2="-155.6276" y2="286.4577" gradientTransform="matrix(-1 0 0 -1 102 402)">
				<stop  offset="0" style="stop-color:#A242EA"/>
				<stop  offset="1" style="stop-color:#FE117E"/>
			</linearGradient>
			<polygon class="st106" points="258.1,115.5 256.9,117.7 257.5,132.5 258.4,132.5 			"/>
			<polygon class="st12" points="273.6,121.6 271.9,119 262.6,127.1 264,129.1 			"/>
			<polygon class="st12" points="262.4,121.6 264.1,119 273.3,127.1 271.9,129.1 			"/>
		</g>
	</g>
	<g>
		<defs>
			<rect id="SVGID_233_" x="3.8" y="52.5" width="393.3" height="276"/>
		</defs>
		<clipPath id="SVGID_85_">
			<use xlink:href="#SVGID_233_"  style="overflow:visible;"/>
		</clipPath>
		<g class="st107">
			
				<linearGradient id="SVGID_86_" gradientUnits="userSpaceOnUse" x1="62.1964" y1="90.6959" x2="71.3305" y2="163.4221" gradientTransform="matrix(1 0 0 -1 197.7797 402)">
				<stop  offset="0" style="stop-color:#067EFF"/>
				<stop  offset="1" style="stop-color:#3E37A0"/>
			</linearGradient>
			<path class="st108" d="M296.8,307.9h-63.4c-2.8,0-5.1-2.4-5.2-5.3l-1.2-54.7c-0.1-3.1,2.3-5.6,5.2-5.6h66c2.9,0,5.3,2.5,5.2,5.6
				l-1.4,54.7C301.9,305.6,299.6,307.9,296.8,307.9z"/>
			<g>
				<path class="st109" d="M296.8,308.1h-63.4c-2.9,0-5.3-2.5-5.4-5.5l-1.2-54.7c0-1.5,0.5-3,1.5-4.1c1-1.1,2.4-1.7,3.8-1.7h66
					c1.5,0,2.8,0.6,3.8,1.7c1,1.1,1.6,2.6,1.5,4.1l-1.4,54.7C302.1,305.7,299.7,308.1,296.8,308.1z M232.2,242.5
					c-1.4,0-2.6,0.6-3.6,1.6c-1,1-1.5,2.4-1.4,3.8l1.2,54.7c0.1,2.8,2.3,5.2,5,5.2h63.4c2.7,0,4.9-2.3,5-5.1l1.4-54.7
					c0-1.4-0.5-2.8-1.4-3.8c-1-1-2.2-1.6-3.6-1.6H232.2z"/>
			</g>
			<g>
				<rect x="244.1" y="253.5" class="st12" width="33.3" height="1.5"/>
				<rect x="244.1" y="257.1" class="st12" width="16.7" height="1.5"/>
				<rect x="244.1" y="260.2" class="st12" width="16.7" height="1.5"/>
				<rect x="262.7" y="260.2" class="st12" width="13.3" height="1.5"/>
				<rect x="244.1" y="263.2" class="st12" width="26.9" height="1.5"/>
				<rect x="244.1" y="266.3" class="st12" width="9.6" height="1.5"/>
				<rect x="255.7" y="275.4" class="st12" width="16.5" height="1.5"/>
				<rect x="244.1" y="269.3" class="st12" width="30" height="1.5"/>
				<rect x="244.1" y="272.4" class="st12" width="23.1" height="1.5"/>
				<rect x="244.1" y="275.4" class="st12" width="10.8" height="1.5"/>
				<rect x="244.1" y="278.5" class="st12" width="16.7" height="1.5"/>
				<rect x="244.1" y="281.5" class="st12" width="4.8" height="1.5"/>
				<rect x="250.9" y="281.5" class="st12" width="17.3" height="1.5"/>
				<rect x="255.7" y="284.5" class="st12" width="16.5" height="1.5"/>
				<rect x="244.1" y="284.5" class="st12" width="10.8" height="1.5"/>
				<rect x="244.1" y="287.5" class="st12" width="16.7" height="1.5"/>
				<rect x="244.1" y="290.6" class="st12" width="4.8" height="1.5"/>
				<rect x="250.9" y="290.6" class="st12" width="17.3" height="1.5"/>
			</g>
		</g>
	</g>
	<g>
		<defs>
			<rect id="SVGID_236_" x="3.8" y="52.5" width="393.3" height="276"/>
		</defs>
		<clipPath id="SVGID_87_">
			<use xlink:href="#SVGID_236_"  style="overflow:visible;"/>
		</clipPath>
		
			<linearGradient id="SVGID_88_" gradientUnits="userSpaceOnUse" x1="35.4508" y1="271.3183" x2="35.4508" y2="277.4872" gradientTransform="matrix(-1 0 0 -1 102 402)">
			<stop  offset="0" style="stop-color:#459FFF"/>
			<stop  offset="1" style="stop-color:#A96DFF"/>
		</linearGradient>
		<path class="st110" d="M63.6,127.6c0,1.7,1.3,3.1,2.9,3.1s2.9-1.4,2.9-3.1c0-1.7-1.3-3.1-2.9-3.1
			C64.9,124.5,63.6,125.9,63.6,127.6z"/>
	</g>
	<g>
		<defs>
			<rect id="SVGID_239_" x="3.8" y="52.5" width="393.3" height="276"/>
		</defs>
		<clipPath id="SVGID_89_">
			<use xlink:href="#SVGID_239_"  style="overflow:visible;"/>
		</clipPath>
		
			<linearGradient id="SVGID_90_" gradientUnits="userSpaceOnUse" x1="-239.8245" y1="199.0511" x2="-239.8245" y2="206.7242" gradientTransform="matrix(-1 0 0 -1 102 402)">
			<stop  offset="0" style="stop-color:#459FFF"/>
			<stop  offset="1" style="stop-color:#A96DFF"/>
		</linearGradient>
		<path class="st111" d="M338.2,199.1c0,2.1,1.6,3.8,3.6,3.8s3.6-1.7,3.6-3.8c0-2.1-1.6-3.8-3.6-3.8S338.2,197,338.2,199.1z"/>
	</g>
	<g>
		<defs>
			<rect id="SVGID_242_" x="3.8" y="52.5" width="393.3" height="276"/>
		</defs>
		<clipPath id="SVGID_91_">
			<use xlink:href="#SVGID_242_"  style="overflow:visible;"/>
		</clipPath>
		
			<linearGradient id="SVGID_92_" gradientUnits="userSpaceOnUse" x1="44.0501" y1="271.3183" x2="44.0501" y2="277.4872" gradientTransform="matrix(-1 0 0 -1 102 402)">
			<stop  offset="0" style="stop-color:#B31A8F"/>
			<stop  offset="1" style="stop-color:#FE117E"/>
		</linearGradient>
		<ellipse class="st112" cx="57.9" cy="127.6" rx="2.9" ry="3.1"/>
	</g>
	<g>
		<defs>
			<rect id="SVGID_245_" x="3.8" y="52.5" width="393.3" height="276"/>
		</defs>
		<clipPath id="SVGID_93_">
			<use xlink:href="#SVGID_245_"  style="overflow:visible;"/>
		</clipPath>
		
			<linearGradient id="SVGID_94_" gradientUnits="userSpaceOnUse" x1="-144.826" y1="251.0175" x2="-144.826" y2="255.3785" gradientTransform="matrix(-1 0 0 -1 102 402)">
			<stop  offset="0" style="stop-color:#B31A8F"/>
			<stop  offset="1" style="stop-color:#FE117E"/>
		</linearGradient>
		<ellipse class="st113" cx="246.8" cy="148.8" rx="2.1" ry="2.2"/>
	</g>
	<g>
		<defs>
			<rect id="SVGID_248_" x="3.8" y="52.5" width="393.3" height="276"/>
		</defs>
		<clipPath id="SVGID_95_">
			<use xlink:href="#SVGID_248_"  style="overflow:visible;"/>
		</clipPath>
		
			<linearGradient id="SVGID_96_" gradientUnits="userSpaceOnUse" x1="-6.0971" y1="154.8061" x2="-6.0971" y2="159.1671" gradientTransform="matrix(-1 0 0 -1 102 402)">
			<stop  offset="0" style="stop-color:#8642A0"/>
			<stop  offset="1" style="stop-color:#6456C0"/>
		</linearGradient>
		<ellipse class="st114" cx="108.1" cy="245" rx="2.1" ry="2.2"/>
	</g>
	<g>
		<defs>
			<rect id="SVGID_251_" x="3.8" y="52.5" width="393.3" height="276"/>
		</defs>
		<clipPath id="SVGID_97_">
			<use xlink:href="#SVGID_251_"  style="overflow:visible;"/>
		</clipPath>
		
			<linearGradient id="SVGID_98_" gradientUnits="userSpaceOnUse" x1="-221.42" y1="133.2977" x2="-221.42" y2="137.1961" gradientTransform="matrix(-1 0 0 -1 102 402)">
			<stop  offset="0" style="stop-color:#8642A0"/>
			<stop  offset="1" style="stop-color:#6456C0"/>
		</linearGradient>
		<ellipse class="st115" cx="323.4" cy="266.8" rx="1.8" ry="1.9"/>
	</g>
	<g>
		<defs>
			<rect id="SVGID_254_" x="3.8" y="52.5" width="393.3" height="276"/>
		</defs>
		<clipPath id="SVGID_99_">
			<use xlink:href="#SVGID_254_"  style="overflow:visible;"/>
		</clipPath>
		<g class="st116">
			
				<linearGradient id="SVGID_100_" gradientUnits="userSpaceOnUse" x1="-20.0279" y1="154.3852" x2="-20.0279" y2="186.5891" gradientTransform="matrix(1 0 0 -1 327.9139 402)">
				<stop  offset="0" style="stop-color:#D906E3"/>
				<stop  offset="1" style="stop-color:#FF6DF9"/>
			</linearGradient>
			<path class="st117" d="M323.9,247.6h-32c-2.6,0-4.7-2.1-4.8-4.9l-0.7-22.2c-0.1-2.8,2.1-5.2,4.8-5.2h33.3c2.7,0,4.9,2.3,4.8,5.2
				l-0.6,22.2C328.6,245.5,326.5,247.6,323.9,247.6z"/>
			<g>
				<path class="st118" d="M323.9,247.8h-32c-2.7,0-4.8-2.2-4.9-5l-0.7-22.2c0-1.4,0.4-2.8,1.4-3.8c0.9-1,2.2-1.6,3.6-1.6h33.3
					c1.4,0,2.6,0.6,3.5,1.6c0.9,1,1.4,2.4,1.4,3.8l-0.6,22.2C328.8,245.6,326.6,247.8,323.9,247.8z M291.2,215.6
					c-1.3,0-2.4,0.5-3.3,1.5c-0.9,1-1.3,2.2-1.3,3.5l0.7,22.2c0.1,2.6,2.1,4.7,4.6,4.7h32c2.5,0,4.5-2.1,4.6-4.7l0.6-22.2
					c0-1.3-0.4-2.6-1.3-3.5c-0.9-1-2.1-1.5-3.3-1.5L291.2,215.6L291.2,215.6z"/>
			</g>
			<g>
				<polygon class="st12" points="300.5,223.4 292.6,233 300.6,240.2 300.6,236.5 296,232.2 300.3,227.1 				"/>
			</g>
			<g>
				<polygon class="st12" points="314.3,223.8 322.2,233.4 314.2,240.6 314.2,236.9 318.8,232.7 313.6,226.9 				"/>
			</g>
			<g>
				<polygon class="st12" points="302.2,240.2 309,224.2 312.3,224.2 304.5,240.2 				"/>
			</g>
		</g>
	</g>
	<g>
		<defs>
			<rect id="SVGID_257_" x="3.8" y="52.5" width="393.3" height="276"/>
		</defs>
		<clipPath id="SVGID_101_">
			<use xlink:href="#SVGID_257_"  style="overflow:visible;"/>
		</clipPath>
		<g class="st119">
			
				<linearGradient id="SVGID_102_" gradientUnits="userSpaceOnUse" x1="413.1707" y1="108.8084" x2="413.1707" y2="149.0857" gradientTransform="matrix(1 0 0 -1 -316.4687 402)">
				<stop  offset="0" style="stop-color:#D906E3"/>
				<stop  offset="1" style="stop-color:#FF6DF9"/>
			</linearGradient>
			<path class="st120" d="M116.8,293.2h-40c-3.2,0-5.9-2.7-6-6.1l-0.9-27.7c-0.1-3.6,2.6-6.5,6-6.5h41.7c3.4,0,6.1,2.9,6,6.5
				l-0.8,27.7C122.6,290.5,120,293.2,116.8,293.2z"/>
			<g>
				<path class="st118" d="M116.8,293.4h-40c-3.3,0-6-2.7-6.1-6.2l-0.9-27.7c-0.1-1.8,0.6-3.4,1.7-4.7c1.2-1.3,2.7-2,4.4-2h41.7
					c1.7,0,3.2,0.7,4.4,2c1.2,1.3,1.8,2.9,1.7,4.7l-0.8,27.7C122.8,290.6,120.1,293.4,116.8,293.4z M75.9,253.1
					c-1.6,0-3.1,0.7-4.2,1.9c-1.1,1.2-1.7,2.8-1.6,4.5l0.9,27.7c0.1,3.3,2.7,5.9,5.8,5.9h40c3.2,0,5.7-2.6,5.8-5.9l0.8-27.7
					c0-1.7-0.5-3.3-1.6-4.4c-1.1-1.2-2.6-1.9-4.2-1.9H75.9z"/>
			</g>
			<rect x="77.9" y="257.4" class="st102" width="36.6" height="22.9"/>
			<polygon class="st12" points="93,263.1 93,274.6 102.3,268.3 			"/>
			<rect x="77.9" y="284.5" class="st102" width="36.6" height="2.1"/>
			<rect x="77.9" y="284.5" class="st12" width="9.5" height="2.1"/>
		</g>
	</g>
	<g>
		<defs>
			<rect id="SVGID_260_" x="3.8" y="52.5" width="393.3" height="276"/>
		</defs>
		<clipPath id="SVGID_103_">
			<use xlink:href="#SVGID_260_"  style="overflow:visible;"/>
		</clipPath>
		<g class="st121">
			<g>
				
					<linearGradient id="SVGID_104_" gradientUnits="userSpaceOnUse" x1="36.3829" y1="133.0668" x2="32.9546" y2="162.4915" gradientTransform="matrix(-0.9656 0.26 -0.26 -0.9656 216.1923 389.6646)">
					<stop  offset="0" style="stop-color:#1852A0"/>
					<stop  offset="1" style="stop-color:#067ED3"/>
				</linearGradient>
				<path class="st122" d="M144.3,255.9l-1.9-5.8C141.7,250.6,143.2,252.7,144.3,255.9z M146.2,261.7l-1.9-5.8
					C145.3,259.1,145.7,261.5,146.2,261.7z M144.3,255.9l-1.9-5.8C141.7,250.6,143.2,252.7,144.3,255.9z M146.2,261.7l-1.9-5.8
					C145.3,259.1,145.7,261.5,146.2,261.7z M139.1,261.6c0.5,0.8,1,1.6,1.5,2.2l-0.9,2.7l3.9,3.1l0.4-3c0.8,0.4,1.6,0.6,2.4,0.6
					l0.4,1.4l0.5,2l3.4-1.4l-1.3-3.2c0.6-0.5,1.1-1.2,1.5-2.1l2.2,2.2l1-5.1l-2.2-1.5c0-1.1-0.1-2.3-0.3-3.5l2.1-0.4l-2-5.8
					l-1.9,1.1c-0.6-1.1-1.2-2-1.9-2.9l0.9-2.7l-3.9-3.1l-0.4,3c-0.8-0.4-1.6-0.6-2.4-0.6l-0.8-3.2l0,0l-3.5,1.2l1.3,3.2
					c-0.1,0.1-0.3,0.2-0.4,0.4c-0.4,0.5-0.8,1-1.1,1.7l-2.2-2.2l-1,5.1l2.2,1.5c0,0.9,0,1.9,0.2,2.9c0,0.2,0.1,0.4,0.1,0.6l-2.1,0.4
					l2,5.8l1.9-1.1C138.9,261.1,139,261.3,139.1,261.6z M142.4,250.1c1.9-0.7,4.3,1.3,5.4,4.5c1.1,3.2,0.4,6.3-1.6,7
					c-1.9,0.7-0.9-2.6-1.9-5.8C143.2,252.7,140.4,250.8,142.4,250.1z M144.3,255.9l-1.9-5.8C141.7,250.6,143.2,252.7,144.3,255.9z
					 M146.2,261.7l-1.9-5.8C145.3,259.1,145.7,261.5,146.2,261.7z"/>
			</g>
			
				<linearGradient id="SVGID_105_" gradientUnits="userSpaceOnUse" x1="33.0649" y1="132.9653" x2="33.0649" y2="163.1351" gradientTransform="matrix(-0.9656 0.26 -0.26 -0.9656 216.1923 389.6646)">
				<stop  offset="0" style="stop-color:#1852A0"/>
				<stop  offset="1" style="stop-color:#067ED3"/>
			</linearGradient>
			<path class="st123" d="M139.1,261.6l3,2l-2.4,3l3.9,3.1l3.1-1.1l1.8-0.6l-0.5,1l-0.8,1.7l4.9-1.7l3.5-1.4l-1.1-2.7l3.4-0.4
				l-1.8-6.8l-3.6-10.5l1.2-3.3l-3.9-3.1l-3,1.5l-0.6-2.5l-3.5,1.4l-1.4,0.5l-3.5,1.2l1.7,3.7l0.9-2.3l-4.9,1.7l-0.7,4.9l2.3,1.2
				l0.2,3.2l-0.3,0.2l-2,1l2,5.8L139.1,261.6z M146.2,261.7l-1.9-5.8l-1.9-5.8c1.9-0.7,4.3,1.3,5.4,4.5
				C148.8,257.8,148.1,260.9,146.2,261.7z"/>
			<g>
				
					<linearGradient id="SVGID_106_" gradientUnits="userSpaceOnUse" x1="15.7379" y1="202.4957" x2="13.5222" y2="221.5129" gradientTransform="matrix(-0.9438 0.3306 -0.5202 -1.4851 273.3081 564.2052)">
					<stop  offset="0" style="stop-color:#188DC1"/>
					<stop  offset="1" style="stop-color:#06BFE7"/>
				</linearGradient>
				<path class="st124" d="M143.7,259.2c0.6,1.1,1.2,2.1,1.9,2.9l-0.9,2.7l3.9,3.1l0.4-3c0.8,0.4,1.6,0.6,2.4,0.6l0.9,3.4l3.5-1.4
					l-1.3-3.2c0.6-0.5,1.1-1.2,1.5-2.1l2.2,2.2l1-5.1l-2.2-1.5c0-1.1-0.1-2.3-0.3-3.5l2.1-0.4l-2-5.8l-1.9,1.1
					c-0.6-1.1-1.2-2.1-1.9-2.9l0.9-2.7l-3.9-3.1l-0.4,3c-0.8-0.4-1.6-0.6-2.4-0.6l-0.9-3.4l-3.5,1.4l1.3,3.2
					c-0.6,0.5-1.1,1.2-1.5,2.1l-2.2-2.2l-1,5.1l2.2,1.5c0,1.1,0.1,2.3,0.3,3.5l-2.1,0.4l2,5.8L143.7,259.2z M145.7,255.5
					c-1.1-3.2-0.4-6.3,1.6-7c1.9-0.7,4.3,1.3,5.4,4.5c1.1,3.2,0.4,6.3-1.6,7C149.2,260.7,146.8,258.7,145.7,255.5z"/>
			</g>
			<polygon class="st125" points="134.5,250.9 139.4,249.2 141.7,250.6 136.8,252.3 			"/>
			<polygon class="st126" points="139.7,266.5 144.7,264.8 145.6,262.1 140.6,263.8 			"/>
			<polygon class="st125" points="144.1,244.2 141.4,245 140.5,244.1 138.7,244.7 137.8,242.7 142.8,241 			"/>
			<path class="st125" d="M151.3,265.4l-2.6,1.1l0.2-1.7C148.9,264.8,150.3,265.6,151.3,265.4z"/>
			<path class="st125" d="M150.9,249.8l-4.4,2.4c0,0-0.6-0.9-1.1-1.2C145.4,251,146.6,245.9,150.9,249.8z"/>
		</g>
	</g>
	<g>
		<defs>
			<rect id="SVGID_265_" x="3.8" y="52.5" width="393.3" height="276"/>
		</defs>
		<clipPath id="SVGID_107_">
			<use xlink:href="#SVGID_265_"  style="overflow:visible;"/>
		</clipPath>
		<polygon class="st127" points="251,78 246.8,86.9 249.6,88.2 253.6,80.1 		"/>
	</g>
	<g>
		<defs>
			<rect id="SVGID_267_" x="3.8" y="52.5" width="393.3" height="276"/>
		</defs>
		<clipPath id="SVGID_108_">
			<use xlink:href="#SVGID_267_"  style="overflow:visible;"/>
		</clipPath>
		<polygon class="st128" points="345.7,284.6 341.8,289.1 340.3,287.2 344,282.9 		"/>
	</g>
	<g>
		<defs>
			<rect id="SVGID_269_" x="3.8" y="52.5" width="393.3" height="276"/>
		</defs>
		<clipPath id="SVGID_109_">
			<use xlink:href="#SVGID_269_"  style="overflow:visible;"/>
		</clipPath>
		<polygon class="st129" points="147.9,132.1 151.8,134.6 153.4,131.5 149.1,128.8 		"/>
	</g>
	<g>
		<defs>
			<rect id="SVGID_271_" x="3.8" y="52.5" width="393.3" height="276"/>
		</defs>
		<clipPath id="SVGID_110_">
			<use xlink:href="#SVGID_271_"  style="overflow:visible;"/>
		</clipPath>
		<polygon class="st130" points="128.6,290.6 134.2,294.8 135.8,291.7 130.3,288.3 		"/>
	</g>
	<g>
		<defs>
			<rect id="SVGID_273_" x="3.8" y="52.5" width="393.3" height="276"/>
		</defs>
		<clipPath id="SVGID_111_">
			<use xlink:href="#SVGID_273_"  style="overflow:visible;"/>
		</clipPath>
		<g class="st131">
			
				<linearGradient id="SVGID_112_" gradientUnits="userSpaceOnUse" x1="-24.929" y1="288.8852" x2="-17.2093" y2="317.5549" gradientTransform="matrix(-1 0 0 -1 102 402)">
				<stop  offset="0" style="stop-color:#188DC1"/>
				<stop  offset="1" style="stop-color:#06BFE7"/>
			</linearGradient>
			<polygon class="st132" points="136,110.7 137,87.4 108.1,87.4 109.3,110.6 			"/>
			
				<linearGradient id="SVGID_113_" gradientUnits="userSpaceOnUse" x1="-37.6864" y1="292.0644" x2="-31.8551" y2="313.7208" gradientTransform="matrix(-1 0 0 -1 102 402)">
				<stop  offset="0" style="stop-color:#1852A0"/>
				<stop  offset="1" style="stop-color:#067ED3"/>
			</linearGradient>
			<polygon class="st133" points="137,87.4 137.8,88.8 137,110.7 136,110.7 			"/>
			<polygon class="st12" points="127.4,92.1 131.9,91.6 131.3,107.5 127.4,107.1 127.4,105.4 129.7,105.5 129.9,93.2 127.4,93.3 			
				"/>
			<polygon class="st12" points="118.1,92.1 113.6,91.6 114.2,107.5 118.1,107.1 118.1,105.4 115.8,105.5 115.6,93.2 118.1,93.3 			
				"/>
		</g>
	</g>
	<g>
		<defs>
			<rect id="SVGID_277_" x="3.8" y="52.5" width="393.3" height="276"/>
		</defs>
		<clipPath id="SVGID_114_">
			<use xlink:href="#SVGID_277_"  style="overflow:visible;"/>
		</clipPath>
		<g class="st134">
			
				<linearGradient id="SVGID_115_" gradientUnits="userSpaceOnUse" x1="-51.9287" y1="238.8239" x2="-46.6656" y2="258.3699" gradientTransform="matrix(1 0 0 -1 393.3441 402)">
				<stop  offset="0" style="stop-color:#188DC1"/>
				<stop  offset="1" style="stop-color:#06BFE7"/>
			</linearGradient>
			<polygon class="st135" points="335.2,161.5 334.6,145.7 354.3,145.7 353.4,161.5 			"/>
			
				<linearGradient id="SVGID_116_" gradientUnits="userSpaceOnUse" x1="-60.6244" y1="240.9907" x2="-56.6485" y2="255.7564" gradientTransform="matrix(1 0 0 -1 393.3441 402)">
				<stop  offset="0" style="stop-color:#1852A0"/>
				<stop  offset="1" style="stop-color:#067ED3"/>
			</linearGradient>
			<polygon class="st136" points="334.6,145.7 334,146.6 334.6,161.5 335.2,161.5 			"/>
			<path class="st12" d="M342.1,148.9c0,0-2.2-0.1-2.5,0.1c-0.4,0.2,0.1,3.9,0.1,3.9l-0.9,0.8l0.8,0.8c0,0,0,3.8,0.5,4.1
				c0.5,0.3,2.2,0,2.2,0v-0.9c0,0-1.4,0.1-1.7-0.1c-0.2-0.2-0.2-3.5-0.2-3.5l-0.4-0.4l0.4-0.5c0,0-0.1-2.3,0-3
				c0-0.4,1.7-0.4,1.7-0.4V148.9z"/>
			<path class="st12" d="M347.1,148.9c0,0,2.2-0.1,2.5,0.1c0.4,0.2-0.1,3.9-0.1,3.9l0.9,0.8l-0.8,0.8c0,0,0,3.8-0.5,4.1
				c-0.5,0.3-2.2,0-2.2,0v-0.9c0,0,1.4,0.1,1.7-0.1c0.2-0.2,0.2-3.5,0.2-3.5l0.4-0.4l-0.4-0.5c0,0,0.1-2.3,0-3
				c0-0.4-1.7-0.4-1.7-0.4V148.9z"/>
		</g>
	</g>
	<g>
		<defs>
			<rect id="SVGID_281_" x="3.8" y="52.5" width="393.3" height="276"/>
		</defs>
		<clipPath id="SVGID_117_">
			<use xlink:href="#SVGID_281_"  style="overflow:visible;"/>
		</clipPath>
		<g class="st137">
			<g>
				<path class="st96" d="M161.4,102.2l12.5-2.8l-4.8,13.3L161.4,102.2z M161.9,102.4l7,9.6l4.4-12.1L161.9,102.4z"/>
			</g>
			<g>
				<polygon class="st96" points="130.2,295.2 130.5,295 134.7,301.1 134.5,301.3 				"/>
			</g>
			<g>
				<polygon class="st96" points="174.3,245.1 178.8,239.2 178.6,238.9 174,244.9 				"/>
			</g>
			<g>
				<polygon class="st96" points="314.7,287 323.8,280.1 323.6,279.8 314.5,286.7 				"/>
			</g>
			<g>
				<polygon class="st96" points="315.7,278.8 315.9,278.6 322.7,288 322.5,288.2 				"/>
			</g>
			<g>
				<polygon class="st96" points="329.2,184.9 335.1,181.7 335.3,182 329.4,185.2 				"/>
			</g>
			<g>
				<polygon class="st96" points="103.4,101.7 103.6,101.5 96.8,93.4 96.6,93.6 				"/>
			</g>
			<g>
				<polygon class="st96" points="232.4,127.9 235.4,121.5 235.7,121.6 232.7,128.1 				"/>
			</g>
			<g>
				<polygon class="st96" points="275.8,230 276,229.7 283.8,236.6 283.6,236.8 				"/>
			</g>
		</g>
	</g>
</g>
</svg>
